<mxfile host="Electron" modified="2024-05-11T10:38:12.225Z" agent="Mozilla/5.0 (Windows NT 10.0; Win64; x64) AppleWebKit/537.36 (KHTML, like Gecko) draw.io/24.2.5 Chrome/120.0.6099.109 Electron/28.1.0 Safari/537.36" etag="Nh4y6t94BBGKpUUqch4e" version="24.2.5" type="device">
  <diagram name="Page-1" id="zK_hfVW0nQD1Woya3Dhb">
    <mxGraphModel dx="1024" dy="603" grid="1" gridSize="10" guides="1" tooltips="1" connect="1" arrows="1" fold="1" page="1" pageScale="1" pageWidth="850" pageHeight="1100" math="0" shadow="0">
      <root>
        <mxCell id="0" />
        <mxCell id="1" parent="0" />
        <mxCell id="fbeROoTmtEvh5QqqCgWJ-1" value="" style="rounded=0;whiteSpace=wrap;html=1;" vertex="1" parent="1">
          <mxGeometry x="190" y="250" width="730" height="390" as="geometry" />
        </mxCell>
        <mxCell id="fbeROoTmtEvh5QqqCgWJ-6" value="" style="edgeStyle=orthogonalEdgeStyle;rounded=0;orthogonalLoop=1;jettySize=auto;html=1;" edge="1" parent="1" source="fbeROoTmtEvh5QqqCgWJ-2" target="fbeROoTmtEvh5QqqCgWJ-5">
          <mxGeometry relative="1" as="geometry" />
        </mxCell>
        <mxCell id="fbeROoTmtEvh5QqqCgWJ-2" value="Диспечер" style="shape=umlActor;verticalLabelPosition=bottom;verticalAlign=top;html=1;outlineConnect=0;" vertex="1" parent="1">
          <mxGeometry x="220" y="280" width="30" height="60" as="geometry" />
        </mxCell>
        <mxCell id="fbeROoTmtEvh5QqqCgWJ-3" value="Доставчик" style="shape=umlActor;verticalLabelPosition=bottom;verticalAlign=top;html=1;outlineConnect=0;" vertex="1" parent="1">
          <mxGeometry x="220" y="440" width="30" height="60" as="geometry" />
        </mxCell>
        <mxCell id="fbeROoTmtEvh5QqqCgWJ-4" value="Клиент" style="shape=umlActor;verticalLabelPosition=bottom;verticalAlign=top;html=1;outlineConnect=0;" vertex="1" parent="1">
          <mxGeometry x="220" y="540" width="30" height="60" as="geometry" />
        </mxCell>
        <mxCell id="fbeROoTmtEvh5QqqCgWJ-5" value="Уеб приложение" style="fontColor=#0066CC;verticalAlign=top;verticalLabelPosition=bottom;labelPosition=center;align=center;html=1;outlineConnect=0;fillColor=#CCCCCC;strokeColor=#6881B3;gradientColor=none;gradientDirection=north;strokeWidth=2;shape=mxgraph.networks.pc;" vertex="1" parent="1">
          <mxGeometry x="360.01" y="275" width="100" height="70" as="geometry" />
        </mxCell>
        <mxCell id="fbeROoTmtEvh5QqqCgWJ-7" value="Мобилно приложение" style="verticalLabelPosition=bottom;verticalAlign=top;html=1;shadow=0;dashed=0;strokeWidth=1;shape=mxgraph.android.phone2;strokeColor=#c0c0c0;" vertex="1" parent="1">
          <mxGeometry x="370.01" y="450" width="80" height="120" as="geometry" />
        </mxCell>
        <mxCell id="fbeROoTmtEvh5QqqCgWJ-10" style="edgeStyle=orthogonalEdgeStyle;rounded=0;orthogonalLoop=1;jettySize=auto;html=1;entryX=0.013;entryY=0.561;entryDx=0;entryDy=0;entryPerimeter=0;" edge="1" parent="1" source="fbeROoTmtEvh5QqqCgWJ-4" target="fbeROoTmtEvh5QqqCgWJ-7">
          <mxGeometry relative="1" as="geometry" />
        </mxCell>
        <mxCell id="fbeROoTmtEvh5QqqCgWJ-11" style="edgeStyle=orthogonalEdgeStyle;rounded=0;orthogonalLoop=1;jettySize=auto;html=1;entryX=0.018;entryY=0.561;entryDx=0;entryDy=0;entryPerimeter=0;" edge="1" parent="1" source="fbeROoTmtEvh5QqqCgWJ-3" target="fbeROoTmtEvh5QqqCgWJ-7">
          <mxGeometry relative="1" as="geometry" />
        </mxCell>
        <mxCell id="fbeROoTmtEvh5QqqCgWJ-12" value="" style="shape=image;verticalLabelPosition=bottom;labelBackgroundColor=default;verticalAlign=top;aspect=fixed;imageAspect=0;image=data:image/png,iVBORw0KGgoAAAANSUhEUgAACWAAAAiICAMAAABn824HAAAABGdBTUEAALGPC/xhBQAAAAFzUkdCAK7OHOkAAABJdEVYdENvcHlyaWdodABQdWJsaWMgRG9tYWluIGh0dHA6Ly9jcmVhdGl2ZWNvbW1vbnMub3JnL2xpY2Vuc2VzL3B1YmxpY2RvbWFpbi9Zw/7KAAAATnRFWHRTb3VyY2UAaHR0cHM6Ly9vcGVuY2xpcGFydC5vcmcvZGV0YWlsLzE3NzIwOC9tYXAtbG9jYXRpb24tYnktc25vZG5pcHBlci0xNzcyMDgi352nAAAAIXRFWHRDcmVhdGlvbiBUaW1lADIwMTMtMDQtMTZUMDg6Mzk6MDAQj30gAAAAEXRFWHRBdXRob3IAc25vZG5pcHBlcp2ePhkAAAASdEVYdFRpdGxlAE1hcCBMb2NhdGlvbr/8dH0AAAAZdEVYdFNvZnR3YXJlAHd3dy5pbmtzY2FwZS5vcmeb7jwaAAAACXBIWXMAACsUAAArFAGlLkUbAAADAFBMVEVMaXEAAAAAAAAAAAAAAAAAAAAAAAAAAAAAAAAAAAAAAAAAAAAAAAAAAAAAAAAAAAAAAAAAAAAAAAAAAAAAAAAAAAAAAAAAAAAAAAAAAAAAAAAAAAAAAAAAAAAAAAAAAAAAAAAAAAAAAAAAAAAAAAAAAAAAAAAAAAAAAAAAAAAAAAAAAAAAAAAAAAAAAAAAAAAAAAAAAAAAAAAAAAAAAAAAAAAAAAAAAAAAAAAAAAAAAAAAAAAAAAAAAAAAAAAAAAAAAAAAAAAAAAAAAAAAAAAAAAAAAAAAAAAAAAAAAAAAAAAAAAAAAAAAAAAAAAAAAAAAAAAAAAAAAAANDQsAAAAAAAAAAAAAAAAAAAAAAAAAAAAAAAAAAAAAAAAAAAAAAAAkIx8hJhwAAAAAAAAAAAAAAAAAAAAXFxEAAAAAAAAAAAAAAAAAAAAAAAAAAAAAAAAuLiwBAQEeHRoAAAAAAAAAAAAAAAAAAAAXFhMAAAAoJiIPDw0PDgwKCgkLCgkLCwnc07rlJia005j///8AAAD3/Z8sKiUkKh4xMyAzMzOqo5D39e9XVEpIVDwEAQHs9OYlKh+MpHbgJSXkJiYLAQEoKiLXIyP9/+gRAwMwBwcXAwPcJCTRIiLFICD5+fXm38yaGRni28a/xHs3CQkoBgajGxsuMCBtEhJ9FBRMDAyrHBx1ExO9Hx/s59rp49P8/PmSGBjLISHf18AeBQWLFxe41Zo/CgpmEBBaDg7+/v2yHR3u6t9iZT+3Hh6EFRVlZWXx7eNTDQ3N45vX07ZgDw/J06rZ6pzC06VGCwsjBgbB25nQ07Dk8Z281J/Xzrb0+KXq6K1ZZEzl4LLu+J69tqLv8KjPx7Pz8OfJwaqPinxmYle0rZkODgz18up7d2uak4IaGhZGQzzg2bZld1WGgHFybWA9PDT19O2btoM+STRzh2GBl22mw4yhnI0zMSv7/sMyOipQTEPL4bjE3a78/teuzJM4Ni++2abS5cHZ6cqx0Jbe7NLl8NvV1dViY2Hd5qW0sbZDAAAAgHRSTlMABwgJBAUGAgEDCw4KDQwPEBESJBPjFOLkFSYWFynYG94c6C/mLecfGhgg2SMz5eEZItceNija1tU6PR0/MU1GSM/b3U9SNSzUQlxZXyE5YWTSV+9VK0RBS+DfVErTMjj4/HRwoGdq9Ku2lYtmv8aC/vz1+PP+y3vu7/3r5uzm4GWQ4ksAACAASURBVHja7N3dT1PZGsfxEV8ARz2Ko3N0xlEhOhIHxjMz4qiIIuIMLyMwYTRqzpykbJruXdum6Vt62aTXXFBCKNCkSWlKWy5KaNqGhCZNuMD/6nDOuZicYVSka791fz//Aexnpb+sZ61nffIJAOjs01+ePu8bHBl9Y7eFPE6nIkkOh+xyBye+u9Ld7vdFd3n94esve/4ZdLtk2SFJiuL0hGxT02PDr/se3b14vpl/IgAAsLqWtrPP+kZtHsXh+vm6N1q3QLjHLUvO0Phg72+dR/n/AgAAi7hw6d6TcZtTkt1ftQvIVO/hvxKUJSVknxzquEraAgAAjRisnk7aFPmOL6oL70uX5Bnt/bqVDwEAAMzvs67B3WD1sz9qCN4rLik0fO8+p7UAAIAJnXkwOKXIEwYJVnuC1sB/gtbdyy18KAAAYAJfDNkVR384agq+HlkJDZ5lQwsAABjUoQejTrk9akJ+t2TvPcMXBAAARvJ9X8jxozdqbudk58hP3DcEAAC6O/VsWnGFow3D1y/ZHt7iuwIAAF00X3ztcQwEoo2o3aWMdR3mGwMAAO003ZuSgv5ogwvcdIT6zvO1AQCA6r4YdLp9Ueu4KY3fZpoDAABQS8tvb6THUQsKy6F7TXx/AAAg2IkXITkctTCv2znYSR0AAABBbkwqQW8U0eiANH2NqaQAAKA+zR126RXB6k/9whfHqQwAAHAgJ597ZD+B6i/7hUFl8ioVAgAAPkrLg5CbruD79SiPOPkOAAD2qe1X6Tr5aV9z3+Wpi9QLAAD4gOanIXeA5PQxB9+VPo5kAQCAd7owLLWTmA6wkeWyXaJ6AADAHq13PUG2rg7uW2XwJFUEAAD+cGvUESYj1X230GXroJYAAMCuI73OfsKRKN3S5GlqCgAAa7s/7mDUlfBHdUJdPA8NAIBVXZ7iwqBKXjq7qC8AAKyn0+4iXak6vsHJgSwAACzlwjTpSgM3PT9RawAAWEPbuMwrOFr50XObigMAoNGdHiVdaWwidJa6AwCgcZ0cln0EHh30236h+gAAaETHRxxmSFczc3OLixsr8XiqtJOtVbbL5Ux+tVosFpLJZKFYXc3nM+XtSi27U0ql4itvNxYX5mbMkLGCtvvUIAAAjeXwa8POu5pZXEllK5nVYnozsbwUixxAbHZ+fStdqOa3s6WVxTmD/qEB99QNKhEAgEbR9MRg6Wo3U5Wy25nVQnorMR8Rbml9LZes5su1UnzDWGkr4LJ3Uo8AADSADsUwzwwupmqZYi6xFNHQ7PJmMl8pvTVKH9ErPzlCUQIAYGqnxoNGCFbx/war2YiOYuubhd2gtWGAoNXt4cg7AADm9YOkb2twIZ4tV9Pa7lh9OGjlCvlaSt+gFZAnj1GeAACY0Gn7hH5bVqXdYLVmqGC1p3WYyBUzWf06h+3Oi9QoAAAmc0/SZybDXLxSzc1HTGN2q1AuLeqTsVzDTRQqAACmcd72nQ554W02n0zEIma0nFutxHW4cBhWrlGtAACYQcuQ5gNFF0rl4tZSxORiiWQ+u6F1xnKPHadmAQAwuM7QgKYTreK11dxypIEsbRa3Uwta/g/9Shd1CwCAcTU/cng1zFZls3YE99EzTOdLGrYM++2fUr0AABjSfc/nmh1lL+VzS5EGF1ur1jTrGPqlu1QwAACG81AOaBMFNmrFtVjEKpaT5bhGoxy+sp+gjAEAMJCjoxNadQWXI5azlNOoXxj2fEktAwBgEKdt3RrcFNyxQFfwff3Cohb9Qp90iXoGAMAAvnaq/h7OW0t1BfXtFwbkXmoaAACddal9b3Bj24pdwfeMfs/l4ypnrOBIK4UNAIBuWvpcKl8WrCaIVHvNJ2vqvq7zcuoU1Q0AgC4Ojd9RtS9YTi+Rpd55Jmsrn1KzWxh23qDCAQDQ3GehdhW3rnbYutrPRlZFxY0sr8Q7hQAAaOsbRb2T7Svl3CzpaZ/WVlXcyJKfU+kAAGjmmSOg2tZVcZ3UZJyNrP7ho5Q7AAAaaB50q7V1lWHrynAbWX+3/Y2aBwBAZYfsj9XZusqydVXnvPdkRZ1JpH7nVeoeAAAVHZ0+p066SnJhUIStsirNQp/SSe0DAKCS1rFXajwwSLoSOb5hU5WM5XNeoP4BAFBB83CPCulqpzBPKhKcsXLbCyo0Cj1trAEAAARrmRQ/VXSmRLpSK2NVFlSIWBx3BwBAqCcT4tNVkXSl5puFafEZKxw6yVIAAECUR0HRP9WpIi84a5CxanOiI5btBMsBAAARhkTPvUpVSVdaZayk6IzVPtXEkgAAoF69LtKVyedjZcVmrG77MZYFAAD1+JfYeLWxyjRRPTJWoST0M37+hgd0AAA4sN9locfaa7kYYUcniYzQ8VhXxlpZHgAAHMQ1h9CHBqtcGtT5OJbQbaye4WaWCAAAH+u2IyDwLZzKJglHf+t5ka8V3plsYZkAAPAxLksC41WciVeGmUCazs6I+7ATD1kpAADs2+GQX9zm1fYWucZIllffiotY8kVWCwAA+zPyrbihDAUecjbeNlauJmobK+B18n4OAAD70CVsruhCeY00Y0zz1RVhk0enOe0OAMAH3BJ2+KqUnCXIGNhmRdT80f4XrBsAAN6jSdThq8VMgghj+G2sYlxQxHL8g7UDAMC7TL4SdG2wwOaVOWwJulToc55k+QAA8FceCHoWZydHcDHRbKyymE7h9TGmYgEAsMeXYg5fzVQ42G62TuGqmFd0gndZRQAA/J9DNiGHrxYyywQW85ktiLlT6PielQQAwB8GB0T8vm5UGXplVmkRDxUGfJ4TLCYAAP6nQ8jhq1QyRk4xsTUh00fPDXMUCwCAXRcUEYevsrzmbHrLGRHn3d0/sKYAAJZ3zBYW8d4gU68awlJ1Q0CjULrBugIAWNvQYwFDRfPzRJNGEUsKGD7qtx1haQEArKtNqv/HdKXIUNHGktsR8HrO76wuAIBV/dpe/4ODaU62N55Epe7z7l7nYRYYAMCKrsr1xytOtjfqefftuiPWwBBrDABgOS32uieLpngSp4Gt17+LJZ1hnQEArOWSu+4HnYlXNAo/oH2SlQYAsJBjHl+98SpNALFAxKrVO7FBvspqA/Bv9u62p876DAD4tLUPak11bnVlVUt1U2cau9Q5H+ba1TqntdpksbXOLkFseBgQAm3Dl+gLIAQ4kJBAw0N5AYFQQkITEl6UbzWdc6u26rn+9wHOue/f7zPc18O5z3VfFxTF2T9m/XJwTPNRDLPTWTc2XLbZHYBC2Jd1c/uEmzhFarGyLm1oPyTmAMi/Cwey1cuNOe1VsaxmbLG6ru0SdgDkW11TtmK5oL0qoJWlbE/Ne2dFHgB5dibb4cFhW9sLamY827B7y2OCD4C8OtaWrb26rb3SYiU6cEH8AZBLexsyrRYdnNJeFduNbGegm+rEIAD5c+RqlurYP1XSYRRd342JLH8T9pwRhQDkzM6Ozgy18fr6gPaCr1qsxcEsbXrziyIRgDw5lukyztKs1oJvDNzKcj+n/m2xCEB+nMkyfbXhKg53Gc20FqvlUeEIQD7sb8o0fGW2ne/+TziTZRTr95dEJAB58FaW1e3LIxoK7mmxbmcYxeps2C0oAah1D7VmuDw4bviK+49irWcYxWo7LC4BqG0HMyxnWBjTSPBDZjOcz+n5TGQCUMs+Tp9u779p+Iofc2MjvcVqdDoHgJr1ZIbp9jXDV/yE3qn+5OfrL8fFJwC16ZOj6cNXq9oHftrIcvqs+7W9QhSA2vNA+nT78JzWgTJHsdJvQLf/VpQCUGsOnUwfvnJ2kPKNLSTPun8gTgGoLZe7Uqve9LyegS0axWp8RKgCUDvqmpNXM7iLQ9ho8sqGi6+LVgBqxT/qU+vdLf8OkmIudbV7Z8dOAQtALXiwJbW9mljRKZD4PeFa8qz7y2IWgOr3888TC911m0XJ4EbqsHv330UtANXundTd7eOjegSyKN1KfYnV6m9CAKra7o7E5Vf9i306BDJanUg9/1wndgGoXk+kfj047TAOldjYcPN62gP41FnRC0C1unQxcXP7mNaACm1sSNzs3nVZ/AJQnc4kLhddH9AXUCl9i4lrRxt3CGEAqs+uxO0MG3YzUNmNDdNpT+LJD0UxANXmmfa03QyTdjNQaWPDabcJT4hjAKrL+bTl7UOzugEqb2A96XG8cm2PUAagijR0Ju1muG03A5tjZSOpxWreL5gBqBYPNyUVszvz+gA2S+LGhlPPi2cAqsPB99JeX2kC2EyrSS+xut8X0QBUg7TjOEMu47DJSstJb1ZbHhLUAGy3xOM4t3w8yBZ8TjiY8nC2vyKuAdheTyYdxxmeUfvZCiNLKc/nb94Q2QBsp0ufJl0etLqdLdI3lTLr3vmF2AZg+3yUchynf07ZZ+vMTqT8CGh6WHgDsD12tphup/r1Jm0dPXdYhAOwHfaljF9dv2m6na12I+V0ztE/iXEAtt7hcwlFa8FlZ7Zj1v1OykasC6IcgK125GhCyVoz3c72WOxPGHW/LM4B2FonEraL9o+p82zX14SjQwm/CFp3C3UAttCXCcedx+eVebavw+qdTPmYcIdgB2Cr7GlNmG6f6lPk2VYzCbPu7XXiHYCt8WBTvE5trKrvbLeB6fiT++yrIh6ArfCr9niVWi6p7lSBufise895MQ/A5jt4ynQ7NWs0vte9631RD8Bme6Mn/vfgrLpOtSitxV/Adoh7ADbXB/Hrg047U1USzj837hL6AGyia1fiXw+q6NT814Rt+wU/AJtlZ2O4MA3OqOdUm5H40tHXPhT/AGyOR+LXnYfmVXOqT+96+FGuPy4DALAZ3vw8vp2hVy2nKs2FB7G6TssBAFTepefC41eL6jjVanUh+jxfaZAFAKi0t8PXnRcsb6eKDSyF38i27JUIAKiof4WvOy+NqOFUs7749ecm6xoAqKSGcCmadNuZajcWPpzTvEMyAKBiOhzHIY/ih3Pa9kkHAFRIa7QKTYyq3dSC0nT02b76uIQAQCXsaQkfxymp3NSI8OGcc3VyAgDZ7Y2ub3cch1oyMxh8wJ8+LCsAkNVDTY7jkGvz0cM5F4/JCwBk82D0PM7EvIpNbeldDj7kRw/JDABk8VhbdPvVgHpN7Q1iRQ8THpEbAEi3v93xQYoguhGr55+yAwCpfnky2F8Zb6dGrQRH3bvPyw8ApHnhteDng7aLUrNGN2JPe9cJGQKAFC+dCn4+uKJKU7sGxoMd1mk5AoC4gwdi9WbD9nZqWu9a7InvfF+WACDq+fpYtRn3+SC1bjL2zF/5Up4AIObdnuB1HJ8PUvvmgndzGmQKACLe6I4Vmsk+xZkcmAmua+iQKwAo3yex/ur6ospMPswuxDqsVtkCgHK90xWqMf2uD5IbI8HLhC17JAwAynK6M1RhhmdVZfKjdCfWYTXqsAAox4VYfzU0oiaTJ33rwXdYcgYAP+1vsf8H75RUZHLmtjksACrs9dh8+7rPB8mf4O3na/IGAD/uUmz/levO5NLqsH1YAFTOodD+dtedyavR2LoGO90B+BEvP6e/gq/Nb4Su5rhLCMAPevNT66/gGyMTocvPp+UPAO7vxT+E+qsVNZg8GwitHO06IYMAcD9Pfh6pJ4OrKjA577DGQx3WW3IIAPd65Kr17XC30lIkJrqPyyIAfN+j7aH+alT1Jf96Q2dzeo7IIwB81wNtkUqyMK/2UogOazoSF/WvyiQA3G1nc6SOTDg/SEH0LUci46ljcgkA/7e7yXlnuG+HdSsSG88+I5sA8K09jaH+akDVpUAmI9HxdJ18AsB/tUQqyFJJyaVQbkbi49zjEgoA/9EaqR93ehVcCuZ2JEKu7pNSAPjKtUj1mNZfUTyLkRhp2yGpAPCzLyK1Y61PsaWAxq4HoqR5l7QCUHgfXwlUjnX9FcV0I9JhNe2WWAAK7s+dgboxqc5SUH0z/YFIaZFZAIrt+e5A1bipzFJcK5EO6wu5BaDIXvhFoGZMqbEU2Wqgw7ryjuwCUFyPnfT+CjbjHVb3cfkFoKj2Npu/gvJF5rDqX5JhAAoqssB9XXWFyLeEr+2XYgAKqSHQXy3bzwCxfVht1mEBFNFngQVY0/or+Npc4GdJoywDUDxnu9wfhLDI1ZwOeQagaF6uL79MLOmv4FtTgQ7rjEwDUCxP/K78IjFeUlThf26WHzud5+UagCJ5oK38GjE0oKTCXW6VHz09h2QbgOLY01R+hZgYUVDhO9bLj5+Lv5ZvAAqjo/z6sKC/gu/pWys/gq4+KuEAFMRH5VeH4XnVFO7psKbLj6Gm3VIOQCF80ll+fzWqlsK9epfK77Ba5ByAIvhrd9mVYXBWJYX7dljj5XdYl2UdgPx75UDZdaF/VR2F+ysNlR1I/2bv7l7zLO84gIPWvihqZ4duOhGrrSgT53DObqNrrcimdbqxUbTbDmIsSUpaQpOWnO84B0kIeXugkIS8HiSkJCGQQKAH9b/awU6nftM+L9d9+/n8CS2/7/e+r+fO7xo6L3cA6u7Ji/nz1YoWhe8ykT9hDb4teQDq7URvXAojCzoUvtvst/EwnX1D9gDUWl/+fHVXg8L3PmFtxuP022eED0CNfZJ/mLuuP+H7bUznyxqkD0B9ncn/gHBVe8IP2RuPJ6pL/gDU1clLcRvs6E74YQsj7n0G+LE7nn/gvjWqOiGwHw/V6VdlEEAt5TcQzk8oTohsx2N146gQAqihfw65gBCa7RDXErozB6CG3h22wB2a7xAr3T+XQwB18/hFC0ahFfJ1WLf+LYkAaqY7fsve15hwGI3JdLi+/KkoAqiVa/Hz1ba+hMNZiZc19B4TRgA1cm4gLYDlMXUJh7Qev8DclEYA9fHm62n8T1mABYe3mk7Y0EfyCKAujvSn6b85qyrhIeykMzb4okQCqIm+NPsnG4oSHsboVjplf3pGJAHUwqfxgoZdPQkPZ2I+nbMemQRQB2cG0+C/qyXhYW1Mp4PWJZUAqu/kpTT2V3UkPLy98XDSBq7IJYCqO96bPl/taEh4FAvpOqzTr0gmgIq7kz5fbVnQAI9mP522G0dFE0ClXRgKE39+Qj3CI7qfPmH1ySaAKvvlcJj34xY0wCMbnUufsD6XTgDV9cRtf0AIbTSb/inhrTPyCaCybqbPV4uaEZphN/3Q/V+PCSiAivpD+gHWlhueoTn2fYYFUHMnX0hvIPSBOzTLQXrt8wUZBVBJPekNOXtKEZplJr0z5+zPhRRABV1Of6pY14nQPI3JcPJ6pRRA9bybXkF4XyNCMy2k7zbX5BRA1Ry5EWb8lA3u0Fyr6a6GlyUVQMWkGxqmN9QhNNfYg3D8LroyB6Bazg2EH7ivaENotolvwyes67IKoEqe+irM9yVdCM23Nh7uaviztAKokO7w+epAE0Ir3A1H8GfPiSuAyvg0DPf5GUUILbEdDmGPvAKoijeGs2gfb6hBaI3RufAJ6wuJBVANJ9INDQtaEFpldjobw8FTMgugEu6Ez1erOhBaZ28kG8TbR4QWQAW8F25oeDCmAqGF7oWvOjelFkD5nr6UhfrmhAKEltoJdzX8Tm4BFC/c0DC+pv6gtUansml851nBBVC4v4e/SqxrP2i1xrhdDQC18PthG0ahGOvhC88nsgugZMf6fYAFBTkIdzV8Jr0ACtYVXvG8q/igHSY2s5m8cUx8ARTrN7eyMF/Ue9Aeu+E2rK/lF0Cpjocr3KdG1R60yWL4I+FbEgygUN+4ghBKk+5q6JVgAGV6ZTAL8ns6D9on3dXgLwkBytSTxfiyxoN2Cnc1nH5eiAEU6GqW4tM2NEB7LWez2S3FAMpz8mwW4ivqDtprYjobzgtyDKA43TY0QKFWsun88klBBlCYKzY0QLHCXQ19kgygLI9/aEMDFCvc1TD0niwDKMp1GxqgYOGuhr8+IcwACvLaQJTeD/QcdMa97B3ojjQDKMeJ2zY0QNmyXQ23XpRnAMXosqEBChfuaug/LtAACvFudkfOto6Dzgl3NXwj0QAK0R/l9rwNDdBJ29GgDr4i0gCKcDnb0LCm4KCTRuejUe2RaQAleGk4Su19/QadtZbtargq1QAK0BNl9tyYeoMOW4qG9exJsQbQceejyB6xwh06bixb6N4t1wA67ekXosRe1W1QwI+EI9G8XpFsAB3W5y8IoTqyW58/fEy0AXTUuaEor3cVG5RgZjOa2OuyDaCTjl20YhSqJFs3OuDGHIBO+iIK680ZtQaF2ImGtle6AXTOs6ejrF5QalCK8E7CC/INoGOuR0l9oNOgHHejsf31EQEH0CGnBpKgnpxVaVCQB9ET1tcSDqBDeqOcXldoUJKN6Mac4edFHEBH/DF6vtrSZ1CW/Wh0+2QcQCcc+SAJ6fENdQZlGZuLVjWckXIAHXAtegte0mZQmkZ0Y06/lANov+eGk4ieGlNmUJzV6PXoIzkH0HbRJYQja6oMyjM6n8zvpaOCDqDN/hGtaFjUZFCi3egIq0vSAbRZtKLh21FFBkW6n0zw4C9EHUBbnY/ef1fUGJRpZjMZ4W5ZB9BOR99PwnlHi0GpFpIZHnpb2gG0UVeSzdMTSgyKtZxM8Q1pB9A+Lw0m0XxXhUG5ZieTMf6bvANomz535EDl3Uvm+J3HBR5Am7w2ZAUWVN7YVPKEdUfiAbRJfxLL9/UXlC1ahjX4qsgDaIurSSpP+sIdSrdsVQNAMR77KgnlfeUFpdsYT1Y1/EXqAbTBneT5at4lz1C+xWSabx8XewAt96tBO9yhJmamk3G+LPcAWi5a0fBAc0EVrEerGo4KPoAW+2wgWdHQUFxQBdmqhmuSD6DFupM43tZbUA3RqobXbRsFaK1TA1Y0QJ0cJE9YXbIPoPMHWPeUFlRFtKrh9JPCD6CFXk4uyZmyogGqY9WFOQCd1mNFA9TMzGYw1cNPiT+AlolueV7WWFAldx1hAXRWb7KiYUNhQaXMJUdYPxGAAC3ycfKiu6iuoFr2ksm+KQEBOniANT2jrqBidoLRHnxeBAK0xLnkNXddWUHVzCarGq7LQICW6LeiAeppKRjuW28KQYAWuJIcYO2pKqie0WRVQ58UBGiBG0ECH2gqqKJkVcOtV8UgQNNdCAJ4fENRQSXNOcIC6IjbQf5uqymoppVgwAfeEoQATXY+OcCaVVNQUVvBiHdLQoDmOn7RjlGos93kCOuULARoqqvJAdaEkoLKeuAIC6Ddjn0QZO+qioLqSi7MGXpZGgI00SdB9E46wIIqWw7GvEcaAjTPifcdYEHdrSVHWK/JQ4Cm+Tw5wHLLcy2NzjbWVv5nd2+tsTE7MTPqX+VHfITVKw8BmnaAdSnI3SX1VBMTawvrS/cPlrem5jcnR/7vf/bI+OT0/NzyzuLS+sJew2/DddFIrsP6WCICNMmnQepOO8CqtrHGwr3V+8tTmyP/ObSR6anl7f2FhqOtqjvwFRZAGyU7sPaVU2VPrPbWF5fnH+K56r/s3e9PlFcWwPHUqoyo7Lpu164r3Yh1bU2wq6s2UotSS3fxR2tN1bXWNaGzZH4IEwI44f3zel7IxDADJJMMkxmYeQGBDBMSSEjmhfxXm7bG9Qdw7vPrPs8z8/38BTr35JzLPee5d4ttdn6juDzPiVZwj7AUwmD4FikRABzRp1JZObwIoOlCqZbPGo7LVosLFSIiiGq8SAgA2kQ5wGrAY6tCeW7JcFNqdqNUWOSXDpZFhSOs0UMkRQBwQPuYnHKXOK4I0N5qvuTy3ur1j0tflFYJjgCpKyxqkqwIAA4IK2TcZQpTQJqCudqmoVsqXywwl9VAR1gf7yUtAoBtn45wgNUom6u6/s3VK7O1hRnWIABWFBbzJnkRAGxLKOTbBcqS39uCuZVZw3NLtRwnWb7fh6flhXxEXgQAuw6My+l2c4Ky5GeVcsbwi1S+VGFFAn+EdZXMCAA2DShk2xxFybeezdeXDJ/JcpAV9COsQTIjANjTovBKziwHWH5tDC7MpQ1fSuVLi6yPTxUVFpAnnwHAnl4OsIJqZr2aMvwsvz7NKvlyX66wKw+TGwHAliE51WY4wPJhjVzOGwHAHsuXygrv5RwnOQKADZcUimSBguS3uavci5QREKnqMvNYvtueT8oLFyc7AoANET4hDJqJ+VraCJRUNcc9aoE7who/SHoEAMsOK7ySwyXuflJZyRoBNLnC3Q1+Mq1wAtpPfgQAy2IKn9xz+OAbU8sZI7Ayy1OsoG/U5AX7bDcJEgAs+qPCKzllipFPzKykjUBL19ZYRb8Ek8J63SBDAoBFSYWiyISyPyavclWjAcyuE0/+8EJerB4yJABYs6tDTrJ1SpEfRmbKWaNBpOs8Ce0H8wprdZ8cCQCW3FbIsVRD761upIxGMrfKmnpPYZwvSo4EACtC5xRqIYXI695gIWM0nEyOuz+8tiAv01g7WRIALOhWqIScNXi8vVqYNRrS0jrfFHrrmcIb4byXAwBWDCqcNFCHPK2By0tGw5os8oqOp0ryGo0cI00CgGmdPPPsb1OlrNHQUvVFVtk7Kk8+J8iTAGBaWKGPw6SMd+WvPGk0vNQKp1jeWZEXqGMviRIATPq9wiWj6xQhr7ZXxbTRFNJssTyzqPBx6g9kSgAwaUBhSoY5ZI9mr0qTRtNIF7l71CMb8uoMkikBwKQeObkWKUFemFjOGk0lXWaL5Yk1hZsabpEqAcCUbxQGZGjeeCG3aTSdyTKHpV7IM+YOAE6Lyam1RgHSbz5jNKXsAh9U6FeQF+bj3SRLADChbVROrRUKkG4VfS86jz+KRsLxRP+TG92X/3P49K/Otp8439X309d3bt4e6I+HI0PnOob13e7Opbb6u9EKp6Vfky0BwASFZwir1B/Nntdc38UMX4yGEwO9j/+h+vl96A+Hv/2hPxb9fMT9LdbGIjGg2TIPEgKAs4bkxDpP+dE82+7qp4NnBmP93Uf3WA+ZY49vJGPRB+5OuzOKpdcz+XuK4eOkSwBQdpJXe6isnQAAIABJREFUcvxm1bXhq45o4s6XbU6Fzv5LA7GhUbf+rUu8HaBXWV6TJPkSAJQpjLgvUHw0mnanOzgeTfR+4UYAnepORj5z5Z+cXyMadLal5QttH7SQMAFA0a5x+auuZxQffd3Bdee7g8ND8Yen3Q2j43diPS4Mwde5FUujurwgV8iYAKDoupxUS5Se4HYHh4cS9w7oCaW2vmTU6YZhtkBMaDMjr0eEjAkAigblcWNOEbQ1aWpOb66utOoNp5YT/YPOnmTNccetNvLNIMN/IWUCgJKjCl/MU3g0KTj5Ls4Hsatt3sTU/t7YESevdmcEUJecvBr95EwAUBKXUyqXPmo6vtpwblPSk/jS27i62z/o3G1Z1RmiQwuFmxoukjMBQMWeDjGjblJ3gnV8NRId8MV1RW29EacmstIlHs/RoiivxWWyJgAoeMiIe2MdX42Ge9v8E16tNyIOnWNluLHBJ2PuYbImACiIivk0xYxxYI6vhqPXW/0WYfuvRx0Zek+VOcTyxZj7yCHSJgCITo/JH3FRdAJyfPX052P+jLJD3zmyx8ovEil+GHP/mbwJAKIEzxD6wLwDx1c/Ji74OdA+TV5zYBKLzwndH3OXr7l9RN4EAMm+D+UH4WjMuGyiaH+sPdwV8nushe45MI61wZVsbluRV+ExmRMABN1yMi1Tcty1mLd94VUyIJc//rn/I9sPQHNnCGPuAOB/CiPuzL24PPNi9+XBwd59AYq4y2Gbx1ipIg9jukve8I8eJHUCwI4+kUePX1BwXJ14qdvbbozG2oMWdH9KdNj7P2e4ddRVC/ISPCF3AsCOknIq5aldV9sxs7a2GhcHAnmUsOvJOXuz7jkix9sx96fkTgDYkTwRk2XE3UXLaVuv4dxpCWrghboHbW2xioSlt2PuJ0ieALCDkwqVjHLj3kmBrcuvhv4d7ODrjNi5GqvK7bfuqci/f4LsCQA7ULgEi3EX10xnbGwwoveDH36nYja2WFleznGPHJnXyJ4AsIOv5IMCio1bVq1fLjoW6WyMALwVtr7FSi0TQ661ruWfv5P0CQDb6pTTKNPErtWwlOWtReRu48Tg4fCY5d+hxn0NLpmSZwPj5E8A2FZczKKTlDCXxq+s384weL6xovBCxPIWK7NIJLlDDs8fyZ8AsK0HYhZdodS4M35l+fL2niuNF4f/tLzFmuSdTHesyb/9eRIoAGzjvJxEK5QaV77SWrJ679WdUEOGYqfVSxtSvP7s1Zg7PUIA2I7cIcxTaNyQs3j71Zn/7m7YYOy9ZnGLxVOZHo25HwmRQgFgS6EPxBzK8YAbytZ2EiOJA40cju8lR639LhvMCbrgufxHwCVyKABsqUt+kWSKQuP8eHvN4sVXRxs9IP9u8YPC/HOiynlymMbIoQCwpZiYQeuUGcdNVS1tIo70NkNIfjNk6cfZ5GNC583LHesWkigAbKHlb2IGXaXMOP75oKXb20firU0SlTfOcKu7P0zI9+BeJosCwBbu886zfjNLdAd39ruYlT5hukBsOa1OjxAALJE7hFyC5bS1SSvdwYfNFZhd56xsQteJLoetir95xz7SKAC8Y18HHULdChauZxiLtTVbaO5NjFjYYRWJL+09wj7yKAC8456YPZeoMc6y8vrgtfvNGJztVobdOXB12Ao9QgCwIEzB0qxk5fiqtTmjMzRg4VKsGjODunuEu0mkAPCWPeNi9uTLLK/3V191NW+A/jXKlaNek7/IuEcmBYC3/ESHUC/z17ePxd9v5ggNDZifxJpjh6W3RxgmkwLAW8IMDWtVND991fQvkdztMf2jVXl7wEFr4u89vodUCgBveE/uEFYoMF7uryL7idK9cdN3YuXZYWntEV4lSgHgDd3y8yOUF529lreM3iZGf9H3odlfLsPDhDr/LqBHCABvokOo0UTd7C7h+3ZC9DeHImZ/u9lpIs4pFblHuJcYBYDXvD9Kh1Df/qpmdo8Q20WIvnJzlDMsz2yKv3Y3EQoAr+mVzwEoLk4xu78a7yVAX3fhc+aw6BECQDDIfZcyxcWj+aunp4jPNx002yascluDth7hKKetAPB/e+SuywzFxRlm778KU7DeEUqa/JrwBTssh8yKv/UV4hMAXrlMh1CXdXM7g+F+onMrV8bN/Y5zvJqj6++DONEJAK/E6RBqsmBy/IqnR7Zx9nveJfTCjPhLf0RwAsArPXQI9SikzN3OcJbY3M4Bk4NYdaJPU4/wNMEJAC99In/pTmFxwry5/VWkldjcQf+wqV+Ti9w09QgHCE0AeOk7MWeWKCwOWEubets5GSI0d9RnbhCLINbTI4wSmQDwktxsWaSw2FeZNPU4Djc2itofmNph5YhBB2TEyOUydwD4zb5xOoQaLGbNbAbOnCQwZceemvlNU6tEoX0l8XfuIzAB4FddNFc0mJo1sxf41xfEpQpzo+7/Y+9ef6wqrzgAj1UctFKtbQwiWhhvWBovDWrAFiUqtUi1GLxEU02AEu5kMjMQvs9nPjATwmVISBiCXD5AhgCZBBISPsB/VYtt1dq61j5n73POnPd5/oS9f2evs/f7vmsdcVajE2uEGjUAfGuvFcLmTdyu8k9g9yNimTO4o8p1nTH4uQNrhO+JJcBdYZMGXUbbV2lAzrZ7pDJta5Wu7qe0dO/AOUKfXwH+afGYA+6Nq9TAfafjg1WsHtHSvZNmw4u8SygBvrE+fF6eU1TaVKXB6Nhmmazm09EK/7CuSmO7q93hadhtMgkwkGjSMGlZpU0XKjTAGv5IJKv6oEpDrMvy2KazYaOGeTIJMDAYFqfbSkp7pmby5X/kHZGs7umhCs0aTktke+KBmp+KJMDAV175G3boaIX/V59JZCuefFGzhs69MGjUAJCgSUPXV1S+9//qTYFszStL8ld5+rhQtiV8Y9ggkAAD+zRpaNbX+co/qgd2y37zVP4635TKtpwJr/AygQSK99iYY1eNms0fIBz9gzy27ok1+X9YN+SyrUyHF/hDeQSKt06Thmb3q+QnEI6uFMd2PLrBVMLOmJjUqAEgskWThkZL0ZV00T+wQhrbs3h5+mIfMzOn0W2FB+4TR6Bwg0OaNHR3t8p/StKX0tiupZ+bmdMRl8Pru0oagcKttV2lSafz5wdVpBq8slBH944sfIeXd68wAoXbHz4pNQ1q3Ykj2XI//JYs1uHVfMfRk/LZuuno6q6RRaBwe6IH5R3FpGX5DqNj5uPU5On01JzJCxLa3NL32AuyCBTtUU0aGnQt/TXl76JYlxXpyc/TtmG17Fx4ddeLIlC098PnpMFtLbuY/n+1XxLrsyr9D+uWjLb8cVajBoCfpElDcy5NZgu9yW21Wj2WvfDeHloWN2oYlESgZK9Hj8krSkmLJk5ly/wWOazXVt2wGhc3anhWEIGCxVuwNGloVXoE4XY9Geu2M3vtNXlr+fusfYUAP2G1Jg1NuZAdQbhhgRzWbXCboYRNm/ZhFqCNN/0ZhaTFTcDTyQo/9LwY1u/ePXo1NCxs1LBEDIGC7XbOqiFXsw3cv5LCJjz+tl4NzYobNbwshkCx7h9xzKpb1edf3pfCZizKNhzV6K3Fb7ThIdkvpBAo1gfRI/LgcYWkFYdnktXdxLbGrBpJ3oNz8tqS27qPAPw/mzRpaMbNZG3XjLFB65M3YcZbREvCRg37ZBAoVnjW6rwy0oqTydK+52cy2KAdFgkbPScbDjB/SAaBUg1ZPWlkgfBIrrAvXCyCTZqXPEp48LrMtmAi3IT1qQwChVpkC1YjkjOeh1eKYLNefs5JwgZdMWIT4H/7MHpAHlVEGjxBuFkCm7ZqOHcrLIW34nw4o0ACgUKFk551wWrl+PodG9x7xubkIqGBBU28SRyYL4FAmX4fPSBPKiINvNd/6ykTcnriJeJbpyYEt7Lj4TSojwUQKNKvw7JzSRGp7ERuBuGo2tMRD23I/cO6LLnVHY2u6i4BBIoUTno+poRUdypX0NfJX2f8LtfRfdLLRHXhPCjznoEyhZOezyohlV3O/b/aIX6d8n7ujtyW3crCfm9vix9QpLBL0A0lpKqpXAusNfeLX8ckt2EZu1nZpfCi6vQGlOiecFab/ouV5WbkjC4Sv85Z8HbqptzRDKuycOTmu+IHFGhluC3FyaqqZnMfS7ZKXyetyHXD+lp+qzpr3jPAj5n03IVjVfovdsP+3D73KQGu6EY4bVP4gAJtjx6OZxSQujf93jX0gvB11uDu1I25JsEVXY8u6Yhx5kCBhuz6rdmhmVQdty+l495I9Wo4eEGGq4nnPa8SPqA44aTn8cMKSDVfp/5f6Q3UBV/k+rnLcEXmPQP8SDjpeVr5qGZqMlPElxiR0w25Xg1mQ1Vk3jNA9Ypj0nNF1zIlfMyaSVc8/Ezm7sxo1VDNafOeAf7b8ujReFH5qORCagihc+td8q5WDQ04HF7RJ0UPKO2NPnwynlA+6t2OcneB8F7R65JtWjU0YDq6ouslDyjMKpOeO7xYctebktcty1InCS2MV3PLJ1uAH9pq0nO9B9bvZMr3NsHrnl2pVg2XZLmKi3a5A/zQDrtROlto7u74Nfu2i+an2o3qNlrJibCtruABhdkTPRhnFY8Kcj1Gd8ldNy0ayXzCsvewkmPRBX1C8ICyjEZ1xoH1Ki5n/l/tcWS9u1IzCW9KcxXhvOdP5A4oym81te74B6zhj+Wuu+b9zSesuoXjCzbJHVCU1dFj8arSUfcHrL1i121/ztwnxzuqmDUaCuD7wsUSbUbr/oD1uRZY3ZdqhmXmcwVhq9E1UgcoNIpMkx+wNkpd9/1lxCesmkUvFyMPiB1Qktftce/wB6w9QtcL9mb+C1+X6bzbhuUAfOdnw8FDcVrhqPcD1thaqesFDy5M3KzbMp13JrqaH0kdUJAvnVXv8AcsW317xDq7sOp10uEOgO+s18e9PjcSFXt0qdD1hvl79MKqVdjL3bAcoCQ7o4fiaYUja2JGi4a5ZO2YiYS15v9gcDFfkjmgINujCqPA1LdE8o2FD8lcz9iSuGHawOUdjS7mwzIHlGMoeCROKhtppxL1ep3I9Y6lo/ENmzws2Fk3o4u5SuaAYjxhUE5tZhP/r/YZQthLdiZumU2IaeGwnK0iBxQjnBhyS9nIOpuo1m+KXC95LPEJ65hGcFnnomu5Q+SAYmyOHomXlY2kSwfjYq3HaI/JdBs1KyprSv4B/i3c5jurbCRd9QFr7vnlgfimabWbdiTqUWKFHCjGvqi6HFc1cg5P+oDVp5+wdCrJuhJdylckDijEA9HE2xlFo64Nvj5g9aKfJz5hXZHuur7iviNxQCEWmcVWk0yTUR+wetB+83LqczG6kvsFDijExuiBeEbRyMk0Gf1E4HrPL4biG+cobdL16EpuEzigEOEOlJOKRk27T3zA6lGbEs1G7UTMORSdpH1N3oBCbItKywlFI+WSD1hz9hPWAZ0aanMnuJBjJkUBhVgSvbpPqBkp533AmrMS7dzNM0gKm+2ukDegCAvGgsfhUSWjti3uq+WtNy0biW+eL7k1vWh8KG9AEf4UPQ6vKRkp5+IS/dqgvPWoLfHduyrjKaejC7lX3IAirDbotkMrI+bc9rBn47t3xEDCevYibhE3oAhbo8fhOSUj43A8hvDAg+LWs7bH/7Acp82tlU/aiQgwkNjeO6VkZCS6uO+Utt71iW7udTkVXMcXpQ0oQtSl4YiCkTId1ufhN6Sth22I/2FdEvOMa1GfhnukDSjBGocI6zAbl2cdrHva+vgOmmlQzzHCX0kbUIKoxeJZBaOOt3btf3rdvBfDO3hMS7iMcGSUgedACR7x1l6HQ5Nhdba1t8clRj7PSnodX3N3CRtQgD9GD8PLCkYdL+3j4xuFrbctHjbxuRZTGmEBDAy8Gz0MTysYCTfD2jx0n7D1uG3WCOsxaTciwMAmA0I6s0KoR0PPeyv+DKkpXMYdq+UAAzuikqJ9dT0rhE/KWq8bfMkaYS2uBFfxOVkDChA1sD6mXCSctcW9H8Tb3I9YI0y4FTXCulfWgP73XvAsPKVcxI7HK4R/FbXet3TYGmEdwqkGr8oa0P9Gg0fhTeWijhXC0QWi1gffc8fHr0l7Db+Ht0QN6HuPa4PVkRXCLaI2F7wTrxHakxi7Hl3FraIG9L0V2mB1ZIVwlajNBfc9M65tSfsOO1ILsNGek06sEC6XtLlhZ3grrZknaIQFoA1WR1YIN0na3LDWGmEdpoOLuE/SgL4XtcE6qJyE4i6jY0slbY5Y4hxhDW5HYw0EDeh70bGpGcUidE4TrP4RrxE69hG7Gl3EByUN6HfLtcFqvpqMbxa0ueLp8GYelfhQ2AjLXAOg380fsaW38Q0n42NvSFrfvHKMj0+JfNvHPj4TNKDPLYsehOcVi8iUFcJ+sje8nRdlPnJBIyygdCsVk7ZddIawn3ysUUP7NMICirfOkakONGl4XtDmkPfCRg0GPoeOaIQFFG5/VEwuqRWBiaiWaPrTZ7+J8Vmpjxz1mwAKtyVqg+VlPXLdCmF/WTRuY2Ljn3UPyBnQ53Zrg/UP9u6ux6rqjAN4iC9gfYkttTZWa8UasUq1alKkFkrRGgHDSxBrtTFBJAxkmEwGIdyf67mACYEBkkkYwstwwQQChAQSEy7gW/UD4N7/ZFZOk7XO7/cR1v6v/axz9t7PU2oh1uM/yVlV1mrUUCy2LnlOzoC2bQy3wZtKRXI+lZKNYlaX3Gv0pNgH9/zqAEbcC+E2eFupSN9LTftgqjG74wFrTu6DC2kJ18gZ0LbUZ9RYkCS2VBx8JWZ1WXY4XdJbcl/6ZuIGOQOa9ky6DV5SKoL7aQkPPyFnlRnzElapxbSEW8QMaNoH+owO+3v0wZiY1WZfuqbTZwS/3xnjOYHR9vd0G7ygVIRCEl/BMhSkOivjY1/9d5O0LybEDGhafJ33rkrR70qsxSvFrDqbdMIqNRtW8ICUAU3bkgrJOZWiX+yCtUnK6nNgoH1JoXmzcoCRtk/Dn0IPBn6pt+ff6arOmHAQpPZw41IGNG0ivcyrUARxEOEnUlaf5yY9Oy+UZuVovwu0LT0KmVUo+p1LhXjyWSmrUJpwMLgn+/1uhwV8UciApu0Pd8F5haLftVSIDwlZi788Bpdlv9/FsIBTQgY0LXVUPK9QlP1ONyenTrsG/tstcymt4GNSBrRso9/pw/1WarBLyGr0Xuy+sSj8Zf/t/k3KgJZ9bdZzkZOxDr8qZFWKnbDMe+4Xpz2/LmRAy9JUW7Oe+8U2o+/KWJ32ajVaJk573i1kQMOWmfU85BdNtFOs1HZvuQ/5+9qdQgY07FWznof8jruRtpV6JV3Z69Jf9vTcjE6gZW+Y9VzmdFrANUJWpxXH0qU9I/59TqRpz0eFDGjY56mI3FEoeovITGr287iQVSp1MNHLPUgzDsyQAloWu/2Y9Vz2nomBa9Xak67tDfnvlTqY7JUxoGE/mPVcZE6b0WbtTtf2lvz3StOex2QMaNjRNOv5hDrRZyEV4c0yVquX07U15aBfmvZ8RMaAhh0M98BTykRRDdFMsWKrbI6hfmH7HxEDGpa6KT5UJno9DOs3uUzGqjWeTs9nbYA+adrzYREDGmbWc5Ez6Uv0tSLW7t+7epj0i014n5QxoF1Hwi3wgTLRJ04D0ce9YtuMOSgSpz2vljGgXWmirVnPZSVEL8WKrRnYHSXitOc3ZAxo1zFfog/1Ich6EavXYz+Gq3vTDuhzJ+2Oj2UMaNdhD0GG+Z3U4E0Rq9jvTSMsEbvw7hYxoF2TmlWXuOk7qZbt1yWuRJz2/K2IAc1akW6B15SJki4Nh0SsZqkN72DRFuj7xjYt36ciBjRrWboFzikTPU6kLg2mrVVts1HoRdsjLd9OEQOa9axOPyXOpuWbELGarfMHb5H0+8McKaBdv3HAGupnUltFrGavpeu7YA/0mQnLt13EgGatThXkiirR45rv0Ju2fEojrGEesPaJGNCsL7xkUmJBl4a2pT68Jkn1OhWW73sJA5r1Ujoh3FUleqQ2WJNPiVjVxjXCKjEblm+PhAHNeiMdsK6qEj1SG6w/SFjd9mqEVeK6QVLAyIrT1s6pEj1SG6xxCaubRlhD3R8+sgXa9ZECMszP0LXBqpxGWEXmw+odlDCgWV+lAnJWlegWO1V7BFK5ddqYlDgdVu+AhAHN2pAKyElVotviQCPFtsVGWDqN9jnvgAWMrPUOWAXuptXbIGF1W56GoV+yCwo+AvEIHWjXN+mIcFyV6HYlrd4aCavcqnCFL9oFDlgAP2NLOiL4DL3HXFq9LySscn/Vyr3Ag7B6+wUMaNa21OdHkehxLx2wnpawyqVOo5ftgh6Xw+qNCRjQrB/CHXBGkeiRJuVMCljt9puVU+AnByxgZO0Ld8BTikSPW2H1VglY7VIr93m7oEcaJaURL9CuPeEOOKtIFPxAXytgtTtogxS4H1bvkIABzUqjQAyzLflIyg/05n+BeEmx5C/eIwIGNGsi3AEfKhI9TvtIqnXbNIob4gFrh4ABzTroFZMC17X5aV3sxGsaeo+LYfHeFzBgZA9YpxWJHqfMsm1dnIZ+1TZY+me2mwQMaNYBB6wCM2H19ghY7T5zwCpwKSzebwUMGNkDljY/JQes7QJWu5fSAeuubbD0A5Y+JkC7Upufm4pEj+mwelsFrHZvpgPWFdugWxp1cFjAgGalRtUPFIluJ1Lx3SlgtXvLAavAjbB4UwIGOGDxqDOp+H4qYLX7VbrGF+yDbtfC4v0oYECz9jpgLd3JVHy/FbDa/SJd4zn7YOn/YBnWCYzuAcs7WD3OpuK7W8Bq94QDlkeEAA5Y/1+LqfiuE7Dq/Riu8TX7wEvuAI/SpqHAuXTA+lDAqjcVrvEN+2DpbRqOyRfggMWjrqYD1usCVr3D4Rrfsw+WfsDSBwtol1E5wzxgvSJg1VsVrvEl+6BbGpWjkzvggMXPuJsOWO8IWPVecMAa3gHra/kCRvaANa9IdLuTDlh/EbDqvRiu8YJ9sPQD1j/lC2jWRLgDPlQkCv7B8oiwfh4RFrgYFu99+QIcsPCS+0g65iX34R2wdsgX0Kyj4Q54XZEoaNPwLwGrnjYNBW6FxdsoX0Cz9oQ74Kwi0U2j0RGg0egQD1hH5AtwwOJRcVTO5wJWu6eMyilwPyzeIQEDmvV9uAOeUiS6xWHP/xCw2j3jgFXgdli8cQEDmrUv3AFnFIluZ1Lx/UTAavfLdI0v2AcOWACP+sEBa+mOp+K7S8Bq93K6xlfsg24/hcUbEzCgWdvDHXBakeiRiu9mAavdBw5YDlgAS7A11Y/jqkS36bB42wSsdivTBrljG3R7EBZvv4ABzdqS6sdJVaLbTFi87wWsdl+mDXLXNuh20wELGFnrU/1YVCW6nQqLNyFgtfswbZCrtkG302Hx9goY0KyP1Y8C18PiHRCw2n2bNsg526DbfFi8gwIGNGuNJyBD/IHuCUj1tnqGPsRfIP7iBdr1ko+khviKiY+kqpc68U6fsA2W/gx9j4ABzVqtj+IQv0I3y7Z6E0YdDPEz230CBjTrWZNACqRZtl8LWO0OhEv80C7odlyjOGB0LU+3wBvKRLeFsHiHBax2+8MlPm8XdIvDOj8VMKBdh8Mt8JIy0e1eKiBPCljlxsMVfmAXdFtM+2O3gAHtWhVugQvKRLdrqYC8J2CV2xGu8G27oNvVtD++EzCgXZvCLfCiMtHtQiognwlY5f5ofyzdXfsDGGEbwy3wvjJRUEA+FrDKTXmEvnRX0v54U8CAdh0Kt8CflImCd0y+EbC6/c5HIAXm0ur9WsKAdo2FW+BlZaLgKymNFCv3oT5xw3xH0UcgQMPSZ+g3lYkeqZGiYYSV25mOCHdsgm43wuJNChjQsL36/BSYNSunbXvMei5wKSzeMQEDGpY6Vc8rEz3Oh9V7W8Da3h6D4zZBt4th8d4VMKBhadbarDLRIw0jnFouYVUbsz0K3A6rt1bAgIalZyDTJ9SJpf9EH7wmYVV72xP0ApfD6h0SMKBh29IR4aQ6sfS3eAfrJKxmK6Z0MRniE3SvKAItW+8t3gKxk+JWCavZ6nR9NXLv8zCs3l4JAxr2ne/QC5xLqzchYTX7SJ/REqfC6h2UMKBh76QSMqdOdDs+7Td6yzan3XHFHuh2Qh9eYJQ97Td6iete423ZUQ/QC5xNq7dNwoCWpdd4FxSKgtd4VwlYzVIb3mltsHpcTQes9RIGtOzP4SZ4S6HokRphDd6SsIptDFf3uh1Q8gnIdxIGtGyHD9ELLKQaskHC6vX4lDZYBebS5lgpYkDLxk17LnDNe7wN+3Lg10eB2CXueREDWrY/3ARPKxQ97gx8RtiuLQMvKA7x793JFSIGtOyA10wKnEwleKOE1eugHiYlbvkCBBhp6Uv0GYWiz2wa9/y4iFVrTJeGYX4B8l8JA5q2LxWRMypFj5tp+V4RsWq9mH58mIResjfGJQxo2q50QlhUKXpcTMu3RcRq9fzA+4kl5sPy7f8fe/f3E8d1hnG8jcEmdWInxqntJqodoshqa5M2caLYcajtJrJjt8GOXDtNlVYCjAx0QQgWxP253gtYoeWXhASInxcgEEZIICFxAf9VG7tV0yqZ5x3N7O7MnO/nT5jzsC9z5pz3JWIAMu2xqiI7VIoo1wiZRpha19TabpH/KJ/PO4kYgEy7zUHeKGS36g4illby6/ku+Q8wUuDdA4DX3qKKRCHHPQ8RsbRSHUwY9RxoTT2+ViIGINNq1c8gs3IiHTRxH5KxlHpDLe0o8Q8ge8R9RcQAZFuD+BlcpFREuYvu7hOxdPpArew46Q8iJ+VcJWMAsk0NtGXeWqAFerlnlOzjzhSpaH8ZH5AxANmmTprQyj3QnCojvyRi6aRmHLh50h9ENXLP04MXgOd1pEA3xSCTqgy7n5OxTG7tulXSH2RRPL5GIgYg41pUHZmkVgRZV8+viYyl0fG8WtgVwh9kTDy+bjIGIONHpOBAAAAgAElEQVTkUZNtakWUF3XXRcbS6PdqXUts7QZSfUZp5A4g62S/ajqNBtp1vKlnUY9a1wOyH0T2GeXFA0DWXVSFZIFiEWRHPb++nxKyFMrxdxGJ7DPaQsYAZFytOmtCp9HgN/WiqiTXCFn61PTz6TwS2Wf0ISEDkHWNdBqNZJN5zxl0Xa1qYZjoB6HPKAB0ix/CMYpFoGVVSQbIWPp0qVWlAW8w2Wf0E0IGIOtUp1EmggSTrUbzbxKy1HnAjM5o6DMKAPJdnW8hgUZlq9G7hCxtzstFnSP5gVT7krOEDEDmtapSska1CDTr6PiTNfflP1j03w1Gn1EAeMh1qWj21QMcOkbKUkZ9N3eH5D5YibcOAN77OzPXolmVux1XSFm66CYNW+Q+2odz+owCyD553GSechFItlSkUUPayCYNvHUIsv8ufUYBZN+xXhphlfkQFudNUkZe/OBgYtRtXfqMAvDALRphlfdGusufJmWpIps0zJL6YLI73GVSBiD7OsRPYZFyEWyJRg3Z8omjC1ZEe+oJHidmALKvkxvp0QzLcYQdpCxNZOcSt0Tqo3VpaCBlADzQTjWJ6EA9wb6TxCxF1PQoV6T5bsQuDRxLBOCDG6qcbFAvgu3KHY8/ErP0uCiX84DMR+zS0EbMAHignj4NEU05vhFmSItczl0yH2xbPcFBYgbAAzX0aYjqUNWT3lPkLDUG5D9YU0SeLg0AoN3iTnq5GzW4+8QsMzu6zMmR5tUjfIecAfCB6tNQGKFiBJuTNTlHzNJikCYNkS2qR/gzcgbAB7JPwxoVI9hEQX4jPEfOUkJ2GXVzJD5il4ZGYgbAC/RpiGxTFuV2cpYOH8qlLE4QeKHIhi4A/MTQp4FLU8oG3wizokcuJZc+lEm6NADAd+o5cxLVqPxG6H5B0FLhI7mS0+Q9apeGFnIGwAuyT8MmJSP6N8IugpYG1/lCWIEN3c8JGgA/qD4NJUqGIhv/uIYagpYCbXwhjG5fPcPbBA2AH1SfBsY9x/GN8DOClnyn+vhCGN2MeIT5IyQNgB86uUYYmRz4zLicNGjVXwgZ9CypUc9nCBoAT8g+DQvUjOjfCHvPk7TE+1Yu4x5ZV9a4UgsAL1ynqFTiGyEDbhPvS7mIdBnV5rjwAQAvvK5+EMcoGpKcDuIu1BG1hGvjC2EMFtRDbCZpAHxxlmmEkU3rzY9HJC3ZjvfzhTAGe+ohXiZqAHwhrxFOUTWUiaIszk9JWrI94QthHGa5RAgA/9bF1fRKfCPkmHuy1b0vl7DEF0JpWB1H/A1RA+CNu6quzFM24vhGyOHeRPtar+A+OZdW2MkFgP94R/0kHlA29Iv7uCzPQ6+StQTL6X+wVsh59DeNHqIGwBtH1TTCdcqGNq/rcytZS65P9fpxnTaOvwMmEQLwyB31m8iAW21KF+j3GEiYXLpHg9sg5ZocalBP1gD446n6TdymbmibukLfI2tJ9XavboLFe4bBuniK/ccIGwB/DPLqXplj7jfJWlJ16dXbIuPaqHqKA2QNgEea1I/iMwqH4Zh7SdfoLwhbMp0Y0ovHPq7BtnqKbYQNgEd+rX4UZygcBs90je4gbMnUqtduloQb7HLTAwD+q07NCCkyLMdgRRfp/J9JWxLVfKPXbpeEG+yxiQsA39NNA6A4zOgqTZfFRGrWK1cYJeAxnHF350gbAJ90cso9DquGLax3SVvy1F7QK7dHvuM4495A2gB4pZ0ZIXGYKLGFlUr/0Ovmlsi3wZx6jDnSBsAr1+lhHQtDN/f8p8QtaY6eoYt7TJYZyAkA33cirw6gDFM7DCYLXCTM4gbuv6ySbgvZx51euwA88y09gGKxZSjVV4hbsrzUqBdtnTcMEzny/BJ5A+CXNu6oV6pTA1tYSWPogeUWyLbFmnqOQ8QNgGeecIcqHoaBhO4qeUuSVxr0kjGG0GaatwsA+F9/Uz+MhxQPkyXDP1hcpEqUFsOSzZNsEznMoIe8AfBMbZ/6ZaTNos2soVzTzDpBXjNsYBUmCbaJbLXbROAA+Eb2cp+jepgYmo26m8cIXGJ0GRZsi1ybjBTVk3yLwAHwjezlvkz5MBkeNxTsZgKXFJf6DOvFpKiY7ni8R+AAeOeu+mk8oHzYLBgKdsOrJC4hnhqWa5NU22wwxwAA/l+9+mkcp3zYjBYNJZt+1gnxyLBYTMmxkm3gWkgcAO/UDanfxinqh41hXo7rqydySVBzx7BYTMmJ7YbHYyIHwD8d6rdxg/oR4xYW30oSoZ0NrDiTLwdxniByAPzTQ6vRuCxbqvYjIld9p4cMKzVDoo1km9E7RA6Ah5rkNDYKiPVFvmQo23deJnNV18kGVpxkm9E2IgfAQ7+VhWaNChLnFlY7mau2d3u5QhinMTIPAD/gDfXruEoFMZqwbGENnSZzVZaz/CO8TZ6tO7cF9SwvkzkAPpINgfYpIVaWXlh8L6m2ZscGVpzm5N3ZWkIHwEeD6udxlhJi3sKytHN3NwhdNf3KcsLd7ZBmK9mfZIDQAfDSVVlrmHhrtmup3X/h0nqit2wZYBCOnPRMe10Afjoqh7JNU0OsTBMJXSepq57PLCvEFMIQmZdHsJpIHQA/ySO/zygi8W5h5b8kddVystGyQosk2WxJxv11YgfAT7LVKCNDQrzOH1rq98dHiV2VmFpgFZgPZSebk9wkdQA89YUsN6NUkfiuVD3XQ+yq43Hesjzs2YawyRdxAPhhR2TbxTmqSIz15ju9t8ldNbz0kWV1SrxRhNizlSM4/0ruAPiqW/1CzlNG7FYKlhrezcScaugy7S/ukmK7Hfk43yR3AKg6jL2Nwb6piA+Su8q7apmR42ZHCLGdbK77PrkD4K0b8hDWBHXEzjTz2fVeIXiVdvyC6X9fpjyHccARLAD40brDIaxYmVo1uFu0G620NtPC0GM03iNY9wgeAH8NcKsq1pozayrkzCSssHuOFg2xk12w3NskD4C/5CEsxhGGYmvV4D4neZV00TSDkJeJcOQgwj+QPAAe09ND1qgksZ5LeW7oPNGrnJdzjhYN8RtjoxYAftwp2X1xg0oSxpSpVYPL1ZG9ihm0bSuS9HA3OuQDbSZ6AHz2gNlsFf5w8kIL0auUK6YODW6MFg2hTMsn+juyB8BnckBbiboT7py7aSSh66NXQ4W89o3thPsK2Q1lSz3Rs2QPgNceysqzQy2J+XLVc2fOEb5KqOuwrQczC0Ia5wgWAAQ5LQ9hLVNLwrH1c3c5RuZUQo9tNQ6HCW4oKxzBAoBgshMW03LCnv4dt9X0LsJXfl/nbYuxTW7DkXNyHDdlAfCGLw6ncHs99uO/L3xF+srtkq0DltsntSFtqkf6MekD4LlrsvhMU01CWrRV9f7bxK+8XnlgW4lxXiLC3uUosEELAMFq+nm7j9tk0VbXb50kf2XVZtxLZOJmWHpkwQ3iB8B3T9Uv5TrlJKwNY2HvoN9oObUal2GPxIb1TPYhOUL+APjuiaw/zMANa2TGWNp7yF/5XLN1GHWlSRIblpxqniN/ALz3J1mAdqknYU0ZPxK6uwSwXOqNB9zdKnkNa41RBQD+yd699USVZQEcxyuO3Y33TGvjqEXQzIw9Tuu0o4nSKpKRRken022PtrETqCZVxUClUlWQet/P9YAVU4AmJIVBLg8QDBATSEh8gG81XtoIiqx9Lbn8f5+As1jZa9U5e68N2VlprZykoAT7SJj+mQQMY/8VzX8Bl0GZmxWjWkMGAkCCQQ0BzGuW99y3ZGAImzoUJwiDEYc0HGd3IQBU1DGoIcRJQs1xo6qeO3MC2BHTDL8aJleNPRSHNHBPDgBUVFSl+IjySQ6y/66D81b+telGnzsILfSztxAAdLRLq2WBi9pCnGR/K8bnFN9u6ca+h9S2MCeFNVtNDgJARUUXn1FC6B7QrfIMvfbsO80BDarACBKbzBbPyF4mBwHgpftc1RbEaF63w/qNJPSpJqMb+GdkqYVhfjIAgJYdEfGkFUUlzGH2t19UmshCfw5FdOM+T47aeCEGtpEsBIBX5CvbZqgqFh5M6lb6VB1Z6MuNLxUTGoISD8hmNpGGAPDK95y1CkN7VoNK85vfkyNHFRMagpqRj22QhgDw2h5xT/AAZcVut4r2NqzMv8lDH746rd1fjZCfVkYY0gAAusRBDVz4bOmpdrnPXSQPPfxWuKwd8PkHpKcV8XRsai+JCABvtIjV6Cl1xc6QdsGPcGmOsy86tcO9wAYsO/JFz+0kIgD87oS4ZpYoLHb6tKdhqS9vkIlutrRrB7swSm6GOhvbQiYCwFvihxUufLb1uKBd9I+eIRNdbI9rh5r7Na2VxNj+hVQEgLeS4qI5RmWx9ES/6tdTmhxsNuivpshLS/JFz4xxB4B3apjJGM6gft0/cIhctLVT//ugKrHB3dYzMbhJchEA3rnDN8Jg9OeNKhWpIRftfNahH+XeR2SlLTmZOQ4LAIskuLYt4FeVCf3an/uVZLSxV//8oMpzMYG1R+IXwlMkIwAs0ihWpUmKi7VR/Y3uKsNMdwvV/9GPML8Vgp4hTJCNALDI1pz4s5/PKg4b3fP65T/NvYTGjv1VscF9lZwh5AcCACwhX/g8S3UJuTV40SDsH0hHM9/cNQjvEBvc7clTRnNbyUcAWKyBWaOr5Sihyt4iH03U/M0guD19JKM9+eqnKPkIAEtUpcWlc5z64nCUcMigCVDJHWSktnsZg8hO8KXbRY8Y4F9ISABYSp7SyH2ELrpLJh1WbBMZqak1ZRDXIreWu3gs7yCsIiMBYKlb8scVCozTAfcJkw6rfT8pqaOyzSSq+WHy0MWIGOE4KQkA7zkovwjg17/bz/+iSS9wdh85KdsSM4kpFz45km8uv0lOAsD75G+EI1QYJ8/zJs1A5Dw5KanuNOqvSGA3o/IXwt0kJQC876a4eg5QYtz0G7UDacY1CA7fNQroNBnoZpAvhABgYbd8jnCUGuNm1qghyHaRlStpzBmFkwFYruRdhE1kJQB8SP5GOEiNcfTUqCVQMc5kfVxzyiiW892kn5sZ+Z6nnaQlAHyoSR4iRJEJ/5VliXOHyMvl7TTb3q4m6a9cTck/CMhLAFiuZMkDG59TZcJXqaXvBK6SmMvZd80sjgxwd/agV4xyA4kJAMuJsU24DKbNOoNsspLM/EBdzrC/ekjiuXoi/xrYTGYCwHLk+wgLvAdwfxEwZ9YbqDgzR99TmcyahXCBC3LcyZc9cQ8hACxvs/yNkEmNHjqsIcMO6+59cnOxvXHDAHIBoQeP5Clul8hNAFheVFxCSxQad92Thg1CuoXLn985f9cwfL3j5Jw7+QBsbhvJCQDLuycXK67L8aCvpEw/E/6Z7HxjazJl2l+Rsz7I1+QkyE4A+Iht8tZhRmF56bBM32GpSB3p+crJDtPITdBf+SAPwVKNpCcAfExCLleMw/bylXDetE9QiS3kZ8X1jGnYFvg+6MULMdLHOe4KAB/VKBesYWqNlw5rzrjDOlez0dNzT8w4aAPsb/eTr0W+EAKAg8rj4jI6R7Hxc5Zw2rhZ2Oh73X8+YBwy5l95onFP+XnWTwD4uDZxGc1Tsjx1WFPG7YJqP7lxU3NLW9Y4XiWS1RN50+BRTroCwApq5aI1S7XxZNC8w0o3/2Gjvr66Yh6tSebiejIuB7uL1RMAVtIpf3Wh3PgyYt4zqM7ajZiWe6IWoZrnfufyZWr2DIsnAKykVa5bo9QbX2Yt2oZUctOGy8ofIxaBGqK/8mZCntTG2gkAK78qSItL6RT1xpuxvEXn8M8Ntp34WNwiSGqagSLeDMvhbmLtBICVySfhi7wZ8Fi6Cha9QzZRtXESsrI1Y9NfjZBb/sgzRXKbWToBYGXfybWLG589Gp2waR9O/bBR8rG2wyY+eXLUI417nhmCBQDiC4MDbHMvb/XqsekgVMf9jZCNBxMpm+AUGYfrk3zPs/oHKycASJJscy+vvnmrDisbrV7vqbitOWcVGq4f9OqB/JL1HOsmAIj2aewfpuh4LWBTVm2EyjRvX9eZWHfWLi4lrsfx6okc8mbWTQCQyZteCgzI9mvWrpNQV+rWbxr+q90yKIxn8Eye4p6qZtkEANlNprmX/yVBwbKbiK/TuaNf2W2+emmQ8Qx+PdbIQlZNANBQJR+LX6CIeTbTa9lPZGOH1l8K7klmLMORf0YueaZxo9NVVk0A0KFxLQmntLwfJixZthQqFf1mfeXfLuv2SvU+J5M86y6KUY9sY9EEAB0XNPa5UHhWy1b31y3WiXX0ArUrZx0Itrf7NyaHvY01EwC07KiXv8SMU3m86y9YdxbpxJH1kXufN0esg6Cm2N7un8aYtlrWTADQ06WxlZjK49/ognJosY6t/cTb0uLQXhX6yaAAmwPlwHeyYgKApiPyCa5eXhYE8HDIvr9QqWjN2k67g0mH9kotMP42hGk58i2smACgS77xWfG6IIineYceQ7VfWrs5920i7fLo88xmC9Lyy5+tM7tYMAFAV6PGfmKKT5Ct7sNFlzZDXbu5Nqe7X4hnnZ57hMEhYRp+OfTc8wwABv7EhYSfynjJqdNQx7v2rrVs29rU6fbMvYwNCdTvy9cQqhqWSwDQ1yKvq3OUn0BFze0zoVKZxJo61lXdfMrtedUQnwcD6ZeD38FqCQAGdsujHvPMHAp2cmvBseNQnf/7Ym0kWuWlWMrxWQtjZEwoGm9Tm1gtAcCExjR3JjUE0zft2mGpTPTX1Z9lZ5J/dH7QnsfkSyjP5fBHtrNYAoCJi/LSWuyjAoX7NlN07jzUtZb9qznFtjU4bmx//R51kHkh4WhMDUmyVgKAmQ55bZ2lAgXc6z7p3mGpdKxutb5g+Lot4uEBJ7h7MKDH8mbA1BmWSgAw871GdeNo/Gre6/5GLnpv9V3Fe7Gt3sezqTl2t4ekcTtmjJUSAAxt0njBwLDRoEZ7vHQhL3usS1tXUWbVJs/6ea4i+ReUxpBRdZuVEgBMtWnsL6YIBX6JVVC+eqzbq6PH+il52tMjqTmOsYalMWT07A4WSgAwdUNjBzI7YELvgpn01Y6oXOz63z9tRu2sS9R7e5yJJ2RHWN29XEMIAEHENSY8UoZCe1b01pOo7OXkhU/1Iutwc3va35PkpzjCGtqYxiyQ3SyTAGDunkahYwZRcI+GlE+52K0j5c6kqquJO14fYmCGvAhuQP4/RFklAcBC5VF5hX1BHQrvSa/yqz76W21lmbLoyI+JzpTfP7/wlNlX4Q1r/CcuskoCgI1mjVrHOflyHOd6obzLxJO3A1+nU1nTGr3j/y+f5LVpOWjs/uMaQgCws0u+kFCNUInKYaakAsheTly/vzlIb7WvIRnPhPibe8eYvlYOoxr/iwbWSACwozGpoZevNeXRP6HCSJ2OddXd8Hfc/mBjS7QzE+iPLYywub085jS+NFeyRAKAnRMam2e4L6dM+kYKKpxMR6L5l6/3umTL54f/29oWPx7wj1Rz4+RBeYxrXCPQygoJALZiGvOIeIVVtqI3p0LLXI61tdb9tN/k3cRnJxtvJWMdkeB/XM//2bu73ijOMwzASvhO89WQFmiCkoZEBAhV1ZY0pBUJ+SofrYCoKWqoqEQAYRAgyyaI8z32gY0sr7ElS7bl9doHtryyLUu2ZMkH5l/1oOfNU7wz877Ldf0BkMZzP6+euXfGa9dKE2j9PXpJQAI8q28CY69lGpVmpV4rx4NHH9/run7n4c2/nz3+wa+OfvjLV17470PEHS+9ceTw3u+ufvr1xWt3rt+6+8l73SX9l5SvSjQSWGDdl48Az+6uFVZSBlrDtap09/b2PKjqH++bUr4qUeAzzz1HxCPAszsVmH1z5lGJBgutYiWqT/mq3AVW4G/MS0YBtmL3sZ9O2qce3ZR7xJp63o5Y0958Va6pwEX5TjoCbMUNK6wEFwxLz9MRa3rWFS/5CB/48+qSjQBbsi3w47AJK6zyj1h9z8nxatNnB5NcYP1DNgJszf1A2I6ZSaWb33gejliL3syQ5gLrtGQE2KIDPVZYiR6xljv9iDXedJUrMBO4NOckI8BW3bbCSvaI1dFdrGnbq0o8Gfrpa7N/h2AE2KoTgXcf1Y2lip7mNIY783T1eMMvByvSCFyea3IRYOu6AoE7aS5VpH9uovOOV8Mzg65sVQuswJG99zWxCLB1n9assJLWXOys49VEy8cBqrMWuEJ3pCJAOwS+l1NTR67SbAf13Rcn/WSiyo1oYIHV87ZQBGiHy1ZYyRtpLHRG9cpbRdNvYN2WiQDtcc8PCdM30JzOfY01PueLzhUbDPyEsOcdkQjQHp9HijMe7CSwxnqa7+lqaMnyqnozFlgAZfrRFwkzsbKe56uxxscU21M4ogf+erqPCkSAdjkVGJELJmQaD3nW6rmdrhamvPQqDUuBq3VdHgK0ze7TgeBdM58SMd/I6Iw1vORzzsn84QRafN175SFA+1yJTEoN5XSMzkzkcbpa0d1Lx7IFFkDZK6xPAtHbMKGcsf6fWvtG0+kqqb+YwALrwUFpCNBO5yMD0/dNEjM7lezPCoeWna5SMx24brdkIUBb7fk4EL5TZlR6W4m1zeR+V9g3PrPqdJWc1cCle3BIFgK014XIe7hHTKkE9TeXEnpYOLw8ZtOZpMgnLbskIUCbbf8+EL9LplSi5lvTj1NYXTW8TTRVzcgVPC4JAdrtRmSAzptTCS+yZhYrPGT11ZesrlJWt8ACqMTOXwQCeN2cStrA7Np6BV+FHtqcaXqJR9omIxfypBwEaL+bkQReMamSNzK2VC/vu9BP11uzGu3p7zcjvze9KwUBCrDj3UAE183SLDxZaW2MPy76oeB6o+l3D3loRK7oN1IQoAjnIhncMqvyMT/ZWJ8oYpm1sDk1NuqsndFWM3LY9g4sgGLsOuNto534cGh2bmZ9fLhNbav69NLair+B3KwHrm23l7gDFOSryIhdNq3yPGeNTramputDz3awejyxudEYm3WyylPoFQ2+QghQmHuRHF41r7JuZ82vNufWZjamF+vD//O5Ud/wxPj08lRjbnJl1MEq78N15EW0PYcFIEBRLtf03J+v09bI/Ojs6kpzcnJsbq7Vas2NTU42V1ZnR0fnnak6R6jhflv+ARTnrp47dJhQw733LfEHUJzjNT136CyRhnvtvvQDKNKtSBZvmFmQi5XIPf3oNeEHUKSD3Xru0EEGIg332jXZB1Cs63ru0EHWInf0b7aJPoBiHe7Rc4eOEWq4125IPoCi3dZzh44Rarh/uUPwARTtrV49d+gQoYZ77bzcAyje/Ugi982aXZC6gXrkbr60S+wBFO/lfZFMHtdzh9SFGu61P0s9gDJcCYXynOkFaRsZ8pVngIR0RVJ5WM8d0rYcuZN7fyvyAMpxIvS20SXzC1K2WvOOUYCk3NFzh9zFGu5ntgs8gLK8uj/UczfCIF2t0ALrsrwDKM+3eu6Qt8FQw/2WtAMo0109d8harOH+jrADKNNBPXfImYY7QJL03CFjsYb773yEEKBkr7yv5w7ZijXcz0o6gLKdDwX0mEkG6dFwB0hWrOf+xCyD5GyEGu5/EnMA5ftLqOc+ZZZBamIN94dSDqAKsZ77qGkGaRkYj9y7x3YKOYAq/Oy9SEovGmeQlrnQAuszGQdQjXN67pAfDXeAtO2+p+cO2Qk13HsOSziAqhzSc4fczPZpuAMk7raeO2Qm1HD/4gXxBlCd1/XcIS+xhvu/pBtAlS7ouUNOBocjt2yXbAOoVKznvqDnDmlYCjXc/ybbAKp19YGeO2Qj1nC/L9kAqqbnDvkINdzffVGwAVTt56Ge+6bJBtWLNdxPyTWA6l0MRfak2QZVe6LhDpCN3T+Geu79phtULNZw/0iqAaTgeKjnPmO6QbU03AGyoucOOViM3Kn/3CbSANLw5iM9d0jeWKgu+bVEA0jFDT13SJ2GO0Budum5Q+qmQg33vfIMIB1/0HOHtI1quAPk53okux/Pm3JQkVDDfd/LwgwgJQdCPfdpUw6qEWu4X5FlAGm5qecO6XqyELlB70oygMTsOR3J76d67lCFUMO9+4QkA0jNyVDPvWHSQfliDfc7cgwgPXrukKpQw33/q2IMID1v67lDmmIN92+lGECKfgiFeNO0g3JpuAPkbM8lPXdI0Eyo4X5QhgGk6dOanjskR8MdIHN67pCezch9+f4rAgwgVUd69dwhMZOhzfI5+QWQLj13SEy/hjtA9rafiWT5hJ47lCXWcP9AegGk7LKeO6Rk/nHklrwtuwDSdivUcx8x96AUoYb7e6+JLoC0fRjqua+be1CGWMP9r5ILIHXX9NwhFf1PI7fjvd2CCyB1O/4Y6rkPmH1QuFjD/ZDcAkjf2dAKa83sg6JpuAN0ED13SMN0qOH+utACyMGv9dwhBc3QNvmCzALIw8NQrK+Yf1AkDXeAzrLzmJ47VK4RuQ8fXJVYALn4TM8dqqbhDtBx9NyharGG+xviCiAfvw/13JfNQChKrOF+UVoB5ETPHSoVa7j/uEtYAeTkhS8i6V7Xc4dixBru38gqgLx8HlphtcxBKMKIhjtAZwr13IcGTUIowHrk/nv0pqACyM3RHj13qEis4X5DTgHk534o4lfNQmi3/onIzXdawx0gQy9+qecOlYg13P8tpQBydErPHaoQa7hfl1EAeerSc4cKxBruB0QUQJ4+CvXcN8xDaKeV0O74poQCyJWeO5RuINZw3yOgAHK17Xs9dyjZWqjhflI+AeTrKz13KJeGO8BzQM8dyhVruL8tnABytlfPHcoUa7j/IJsA8hbquffNmovQDgP1yB13ScMdIHMv7/sPu3bWq1V5h3FYkGEDouBAFYsDKA4Va5TWosggUhWwQqNSO6QJIGEoEMIUznvMARDCmJAAYTyAQICQQELCAXyrpiWtYtl73+/7rrWB57muz7Ce+5+s/JK9P6ZzhyZEhfs/Z1smgEfdwmjwz7uM0LvD+xXuAJWIOg0Nt7QAACAASURBVPeDOnfo3dXktW19zywBPPomb042/4rbCL26Hv0vXmGVAEqwXucOQyEr3L8YYZQASjD2+ahzdx6hN5eiH1jLbRJAGf6oc4f27YsK9zUWCaAUG3Tu0LqscH/ZIAGUYorOHdqmcAeojs4dWpYV7u+PNEcA5Rj/ms4dWpUV7t9ZI4CSLI7G/6grCd1RuANUKevcD7mT0JVbUeH+sSkCKMvnUed+0p2EbmSF+w5LBFCarHM/4lJC57LC/VejDBFAacZNTy7AZacSOnc++oE11w4BlGeRzh3aoXAHqNhGnTu0Iirct7xhhABKNE3nDm04t0vhDlCxdTp3aMGx5GUtGGaCAMo0YarOHR5Q4f5XCwRQqiU6d2i8cD+YPKu19gegWH1R535R5w65K1Hh/pX9ASjXJ9t07vAACvdN1gegZDp3eACF+yvDjQ9AySbq3GHoC/c5tgegbEujc3DC3QSFOwCpvu1R577b5YTGCvd3LA9A6WZEnftZlxMU7gDEdO7QlMvJa/r+cbMDUL5ndyY34bbbCYM5GiWNC60OQA1+0LlDEw4p3AH4n9E6d2jCyahwn2xzAOowU+cOvTuicAfgp1Yld2HvBRcUei3cfzHW4ADU4oWocz/tgkKvhftf7A1APVbr3KHHwv1i8og2WBuAioyZn9yGOzp36Klw3/wbawNQk1k6d2i/cF9vawDqonOH1gv35580NQB1eVHnDm0X7ostDUBtVkYH4oxLCgp3AFJjluncoUtno8L9WzsDUJ+Pol9Yp9xSULgDENO5Q3duJ2/ntfFGBqBGb23VuUMXTkR/fxfZGIA66dyhC7sV7gAMYMQXyZ04rnOHzgv31y0MQK2W69yhUxf2Js9mnX0BqNeaqHM/7KZCZ4X71KfMC0C93ow695tuKnRWuC+xLgA1W6Fzh44K9zvJk9nYZ1wAajbyQ507NF64T7MtAHX7MvqFdcNdBYU7ADGdO+ROR4X7BMMCULtXde6QOhP98f3argCwIzoZ19xWULgDkBr1UtS573Fdqd6p5K1sm2FVAHjssbk6d1C4A9AwnTs0VrjvfNqkAPBvH0Sd+1X3FYX74JZaFADu0rlDQ4X79tEGBYC7hn2aXI4DOncU7oMV7r+3JwD81zydOwzssMIdgE5Fnft+nTv1uhkV7pOMCQA/enuLzh16LtxX2xIAfirr3K+7s1RauB9PHsh8hTsA9xi+QOcOPRbuf7ckANxrTvQL65JLi8K9P6vsCAA/tzbq3Pe5tSjc+yncXzAjAPzcO1HnfsutpT7XFO4AdGuTzh3uZ09WuI8xIgD8v8f/rHOH+7gRFe6zbAgA9/OZzh0U7gA0TOcO3RbuvzQgANzfMzp36K5wX2k/AOhP1LnvOufmUlHhfiB5FctGmA8A+vPEr5NbckznjsL9XrOtBwD9Wxgdk/OuLtUU7vsV7gD0LOrcD+rcqcXV5EVsfc90ADCQyVHnfsXdpQ7Xo3+6KywHAANbr3OHzgr33yncARjE2Oeizt3ppQaXoh9Yy+0GAIP5RucOd+2LCvc1VgOAwW3QuUMHhfvLRgOAwU3ZrHMHhTsAzdK5Q1y4vz/SZACQGP+uzh3Cwv07iwFAZnF0WI66wCjcFe4AxLLO/ZAbTMFuRYX7x+YCgNTnOncU7okd1gKAXNa5H3GFqbtw/+0oYwFAbtz05LpcdoYp1fnoB9Y8WwFAJxbp3FG4K9wBaNhGnTsK94FtecNQANCZaVHnftIlpkTndincAWjFOp071TqWfP0LhpkJADo1YarOHYX7AP5kJQDo3BKdO5UW7geTT3+tjQCgC31R535R505prkSF+1c2AoBufLJN547CvR+bLAQA3dG5o3DvxyvDDQQA3Zmoc0fhfn9z7AMA3VoanZoTbjIKdwBI9W2POvfdrjKVFe7PWAcAujcj6tzPusoo3AEgpnOnLpeTL/77J0wDAL14dmdyb267y5ThaJQdLrQMAPTmB5079TikcAdgSIzWuVOPk1HhPtkuANCrmTp3anEkKtzXWwUAercquTl7L7jO1FG4PzfWKADQu0k6dxTuP/rGJgDQhNU6d6oo3C8mH/oGiwBAI0bPT+7OHZ07FRTum6dYBACaMUvnjsJd4Q5Aw3TuKNz/490nzQEATXkx6txPu9GUXrgvtgYANCfr3M+40ijcASA1ZpnOnaKdjQr3b20BAE36KPqFdcqdRuEOADGdOyW7nXzf08cZAgCa9dZWnTvFOhH9oV1kBwBo2kqdO6XarXAH4AEZ8bfkBh3XuVNq4f66FQCgebN17pTpwt7k015nAwBow5qocz/sXlNi4T71KRMAQBvejDr3m+41JRbuSywAAO1YoXOn1sJ9Y58BAKAdIz/UuVNp4T7N+wegLV/q3FG4A0DDdO6U5nRUuE/0+AFoz6s6d2os3L/29gFoU9a5X3O3eUQK9zsKdwAevFEvRZ37HpebR8Kp5HveNsPLB6Bdc6NfWDdcbhTuABDTuVNZ4b7zac8egLZ9EHXuV91uHn5nov+x//DqAWjfDp07NRXu20d79AC0b9inyVU6oHOnjMJ9pjcPwFCYp3OnBIejwn2VFw/A0Ig69/06dx5uN6PCfZIHD8DQeHuLzp1KCvfV3jsAQyXr3K+74TzEhfvx5COer3AHYMgMX6Bzp4rC/Q9eOwBDZ070C+uSK47CHQBia6PO/V/s2uuLjnkcx3EMc3DM8QGZjSIUVoTsECE5JFtWm/LEKachmaH5JzxAMg6lEIMHREhRygP+q23b3QxrxnfMdd/X73ddr9ffcH36/u6793V3nKwL93mmDkAzrdK5k7O3CncAUnRO506+rsYK9w5DB6C5Wg7q3MnW+9Dvgw12DkCzbdO5o3AHgILp3Kl04d6z1MgBaL6Zoc79o2tOnoX7ERsHoAyhzv2yzp3UCvf+yJd7aLyJA1CGySsjd+qezp0cC/cuCwegHNtDh+qZi05ShfsNhTsASdO5k583ocL9V/MGoCxzQ537azed3Ar3w9YNQHlOhzr3p646eRXu6ycYNwDlmTg71Lk766TiZegPrJ22DUCZ9uvcycn1UOF+wrIBKFd35F7d1LmTU+H+i2EDUK7553XuZOOdwh2APOjcqVjh3qlwB6B0U1bo3KlU4X7AqgEo326dOwp3AChYrHO/5b5Tso+hwv03kwYgBTt07lSncL9k0QCkQedOZQr3ta0GDUAaJi2OXK5XTjxlehb6A2uzPQOQil2h03XXjUfhDgBhZ3XuVKFwv7DMmAFIx6JQ5/7QlacsTy8r3AHIzqlQ537Hnack9yJf6NaxpgxASqYt1LmTfeH+pyUDkJY9OncSLtxvRj7Pk3YMQGLaQ537C507ZXgdKtxX2TEAqdnYq3Mn68L9nBUDkB6dO1kX7gdbjBiA9EzXuZNz4b7NhgFI0T6dOwp3AChW+0WdO9kW7jMtGIA0LQ917k9cfBTuABCmcyc9ryJf5crJ5gtAqmb1RW7ZJzef5rkbSgO3Wy8A6ToWOmYPXH2a5ZbCHYDstcU69yvuPk3yMFS4z7VdAFK2RudOSu6ECvfTlgtA2o5G7tm15y4/6RTusycaLgBpm6NzJ7fCfb/dApC64zp3kincX0Q+xm6rBSB5bVsiN+2zzp1ECvfz860WgPTt1bmjcAeAguncyahwXzHVZAHIwbxQ5z7g/pNC4b7bYgHIQ6xzf+wFgMIdAKI6fte5U7onocL9D3sFIBcbQn9hPfIGQOEOAGE6d8r2KfINLp5krADkY2mPzp1SPQj9i7rLVgHIyRGdO2W6onAHoILGH9K5k3zhvshSAchLl86d8jy/Fvn8TtkpALk5Eercb3sLUFbhvnCamQKQmyWhzv2DtwBlFe57rBSA/BzWuZNy4X623UgByM+EdZErd1/nTjmF+0YbBSBHO3XuKNwBoGA6d8owECrcpxsoAHlaoHMn1cJ9n30CkKtY5/7Wm4ACC/fPCncAqq21M9S5X/UqoDCPIt9c73LrBCBfB0J/Yb33KkDhDgBhOncSLNz7ZpgmADlbrXOnmR6H/jM9Y5kA5O2Szp3UCveLbYYJQN7Gro1cvH6dO80r3NfYJQC526xzp1luhwr3o1YJQP5CnfsNnTuj9yFUuM8xSgDyt+xC5Oq98TqgOYX7cZsEoApinfs77wNGWbjfj3xoWxTuAFTCuK06d5Ip3PdaJADVsCn0F9ZLLwQU7gAQdjLUuV/3RqDhhfs8cwSgKlbp3Gm0twp3AOrmnM6dxroaK9w7jBGA6mg5qHOnod6H3vAbbBGAKtmmc0fhDgAF07lTeuHes9QQAaiWmaHO/aOXAo0r3I/YIQBVo3OncYV7f+TjOjTeDAGomskrde6UWrh3WSEA1bM9dASfeS0w4sL9hsIdgNrSudMYb0KF+xITBKCK5urcKa9wP2yBAFTT6cgdvPzUi4HiC/d1EwwQgGqaODtyCe95MjASL0N/YO20PwCqar/OnaJdDxXuJ6wPgOrqjtzCmzp3ii7cFxgfANU1/3zkGr72aiDqncIdAHTulFC4d7aaHgBVNnWFzp2mF+4HLA+Aatutc0fhDgAF07lTnI+hwn212QFQdTt07jS3cL9kdQBUn86dphbua8caHQDVN2lx5Cq+8nzgR56F/sDabHMA1MGu0Fm86/2Awh0Aws6GOvdbXhCMvnC/sMzgAKiHRaHO/aEXBMN5elnhDgCDnAp17ne8IRjGvchXtHWcuQFQF9MW6txpSuG+ydoAqI89OndGWbjfjHxCJ20NgBppD3XuL3TuDOV1qHBfZWsA1MnGXp07DS/cz1kaAPWic6fhhfvBFkMDoF6m69xpdOG+zc4AqJt9OncU7gBQLJ07DS7cZ1oZAPWzPNS5P/GaQOEOAGE6d37Oq8iXs3KyiQFQRzP6Infyk/cEX7sbyve2WxgA9XQmdCgfeFEw2C2FOwAMo+1iqHO/4k3BIA9Dhftc+wKgrtbo3BmpO6HC/bR1AVBfRyO38tpzrwpGVrjPnmhcANTXHJ07jSjc99sWAHV2XOfOiAr3F5EPptuyAKi1ti06d4ou3M/PtywA6m2vzh2FOwAUTOdOwYX7iilmBUDdzQt17gPeFkQL991WBQA6dxTuAFCwjlDn/lnnzpNQ4b7DpgBgzJgNob+wHnlfKNwV7gAQpnMn4lPkO1k8yaAA4G9Le3Tu/NCD0D+du+wJAP5xJHQ6H3tj1NmVUOF+1poA4F/jD+ncKaRwX2RNAPCfLp07w3t+LfKJnLIlAPgi1rnf9s5QuA9n4TRTAoAvloQ69w/eGQr34eyxJAAY7LDOnVEX7u2GBACDTVgfuaD3de4K9yH1brQjAPjaTp07CncAKNgJnTtDGAgV7tONCAC+tUDnzmgK9302BAD/p3Pn+4X758iHcVHhDgDf0doZ6tyvenHUzKNQ4b7cggDgew6E/sJ678WhcFe4A0CYzp2fLNz7ZpkPAHzfap0733oc+l/zmPUAwFAuhY7pW68Ohfs3hXub8QDAUFrXRq5pv85d4f514b7GdgBgaJt17vzF3r31WlHfcRwOIMrJA6CkiGjU1gqpisW0RvGAaBtPVBNrU1tvhBKBIiF4iJd9A1yoIYiamKDxxAUGIsQEExMu9F01tbD3zFoza/1m75lZ8595nhfQmqwZ5pP//q5ZWR+HFu573TkAMElo537Czn0ofgwt3De4cQBgkq1HI0/UC8rDwn3ePvcNAExm5878wv2zyMWw08IdAKZYusvOnUoL993uGgCY5tHQEdY59WHhbuEOAGH7Qzv34/rDwv2XhfsmtwwATHe/nTsW7gBQs8OhB+tFBdJv74cW7i+udMMAQMSyV+zc+c8Poc5+yP0CADFP2rlj4Q4ANbNzJ7Rwf3OLmwUAotaHdu6XVEh/fR86xdzjXgGAODv3oS/cP4xcAK9e5VYBgLg199m5W7hPtcOdAgBVPGXnPuiF+4nIx/+6+wQAqrFzH7ILoYX73W4TAKjmZjt3C/fJXnOXAEBVByPP2GOn1chQF+5/XO4mAYCqVt0UecqekiP9cy50gPW0ewQAqnsp9Jg9o0f65riFOwA051DkOXvSzn2YC/fb3SAAsBCbj0SetOcVSb9ctHAHgCbZuVu4l7j1arcHACzMdffauVu4F3rM3QEAC/WsnbuFu4U7ANTMzn1oLoUW7tvdGgCwcH+1c7dwH/eOOwMAFsPO3cJ9zBNL3BgAsBir74o8cb+TJv1wJnSA9bj7AgAW55nQI/dTbWLhDgCExXbuH6mToSzcj251UwDAYv0mtHP/Qp2k7/QxC3cAaMmB0M79E32SvFORT3rXUrcEACze9XfYuVu4z3nUHQEAdXjOzn0QC/eTkY95v/sBAGqx4g079wE4H1q43+9+AIB6PGLnbuH+f4fdDQBQFzt3C/dfvLLMzQAAdVlr527h/j9PuhcAoD4v2LlbuFu4A0C9Yjv3s3bu/V64r3cnAECd7nnLzt3C3X0AAPWyc++z7yKf7n1r3AYAUK9170aewT9plRR9GprYPeUuAIC6/Tv0EP5craTnIwt3AJiRa94O7dzf0yvJ+SLyyR652T0AAPV7ILRz/0avpOaT0ML9oDsAAJqw1859uAv3m1a5AQCgCRvs3Ie7cH/J9Q8Azdhn597DhfvZyId6yNUPAA25Zqed+0AX7ptd/QDQlN127hbuAEDNQjv3D77VLf1auN97rUsfAJqzKbRz/0q39Gvh/qwrHwCaZOdu4Q4A1GxlaOf+s517nxbuf3bdA0CzHgodYX2pXSzcAYAwO/f++CnyWd612kUPAE3b8qade098HjqNfMY1DwDN2xN6LH+tX7ruvdDC/Q1XPAC04KpX7dx74ZvQwv1OVzwAtGGHnXsffPtB5GM84HoHgHbEdu4fa5j0F+533OByB4B2bLNzH8rC/TlXOwC05TU794Es3Fe42AGgLcsfjDydP7NzT3zh/tYjrnUAaM/Tdu4W7gBAzV63c0/aV6GF+1oXOgC06bbQzv1HJZPywv0F1zkAtMvOPeWF+8+RD+9tC3cAaNnyW0M79/fVTAd9GVq4/2kFdJh/hYF+ejl0hPWDmkl24e4J3m3XpEljAT1T/7/vdu69Xri/u0HBkEJ1+ccdaKV6WrTdzj1NX4fOHv8ldEgltjxKQM70yzuhB/X3iibJhftK7UNCoeX5hu6gR5b8wc69twv33R7wpNVZHuWIJ/rjcTv39HwcWrjv9WDvoJU90GhleeKjqOgLO/f0/BhauN+iYehadEksdBXD8fzRyNP6gqpJbeG+T+3QydaSWAgr7Nzt3Du5cP8s8oHtXC596GpnSSykFV3Q9BHDsl2R5/WHdu5pLdwf8oRvyVUDtdjOklhoK2bQPO16NHSEdU7ZJLVwFzN0p7cW1FgyAW2lZJK3P/LEPnFc2yS0cN+meuhWai2gsdQCXagrjcAirLdz79vCfY/2adnygVlYZ0ksuhpXQoCGvuN1OPTQvqhuZu/90ML9xSVahk70ViiyFBazqCsB4I2EbbjuFTv3RPwQauG/iZ6Burp+NaTW9MaSWLRWV+LC6wvb9ZSde68W7tqnE2nSfxU6a1pjKSyarisV4/U8s2Hn3qOF+5sPaxs6EVsTIyveWCqCxdWVImGWX/K6ObRzv6RwZuv70Enja9KnWUtYsiReWhUaS2FRd14JKekze3buKSzcP4x8SA+u0TPMPLfKI2tSYjnEosa8ElUqpxtW32fn3pOF+8u6pxVLhyxaWiWRNaGxFBa11FX/w0q2JPTN9pfs3Du/cD8R+Yhe72f7LCWl3iqJrJLGCiWWqCCaV7WUlWzwUp8a2bl33YXQwn2r7KnZMopML63CyCpurEhi6QoiebWwtpIi3uPTqM127n1YuL/Tj/bRL/PWdEC12iqurILGKkssh1gsrK8qtpV6oa0veR2MPL+PnVY6XV64//5a4ZNGsvTCxNAqiKzxxqqWWOpCXlWtq0WElcLwYp/6rP1V5Al+ys59Ns6FDrD+KXFma1X/BVqroLJGG2taYiksFp1XldJKt3hjT6Nf8no29Ag/o3Vm4Xhs4T6c9Fk1XNe1rFJvFVTWtMaqcoilMeTVQuuq9qxSGd7rU8WhyDP8pJ17dxfu6zVPl0ulZyak1lhl5RsrllgKi1hfTY2ramGlUbzAp4kved15JPIUP6922ncxtnBPK32Srotrh2xia41V1qTGqp5YQkNeVcqrSFrpFa/1aYGde9IL9yfW9jd9elAlq9M3tbbGKquosaYklsKiQl9VqatKXaVSvMKn5i95bfx1aOcueLq5cH9S9vShYrKu74hQcY1lVi6yChorkFgKi0l9NamuJrRVqkHlncZpf739OTv3dBfu+zuXPqJl5m5YhErVNdZZucjKNlZ5Yiks6sqr0riq0FW6ZXgvLWx4p2zn3kWXIp/K0c3ppE8ve2RYSlqrsLIykZVprEmJNeXPhJJDX0XzqqytZt9T3qHcr++2R8Y399i5p7pwP5x2+nQ3JdYypiS2RjIrE1mj51hjiVXpEEtz6KsVpXk1La5iXSVnvJ2wAQfs3NNcuO/a1Kfy6WxZrGPdurLYymdWJrJGGiuUWAqLaF4VHl4VxdWksPIzEN7k0/yXvLbdYefeMWdCB1j/6Gf4dLMwbhy0strKZVYmsgoaa1JiKSym9VXZ6VXB4VVBXE3rKgHjvT6NfcfrhdDj/FPd07GFe5+7p3OJsWHQSnIrl1mZyso1Vv4Yaz6xphxiKSx9Nf34qryuitoqFlWrhsxrChv4jtcboZ37R8qnUwv3O9tvn0HmzEY2biysrVxmzUdWcWNNSSyFRXlfRfNqtK6K0mphPeVXHBJ/c+Esv+G1O7Rz/0L5tOP0scjHcXAG7TOcoNnUJ7dETPnfKKqtbGcVRNaVxsom1twfChdSWOpDXxXkVUldjcfVxKoSLQN9oU8b3+eK7dw/0T6tOBX5NP5+d8vt0/OmuSURWxo3PcDyoTVSWXORlWmsKYmV/zOhwtJXgeOrkrzK19V4Wk1rKhnj1YX1D5m3h3bu32mf7izcn2mtffrXNVu6ZVsnTSqvXGjNV1YussaPsbKJNfd3woJDLIWlr6YdX43k1aS6Gk+rUFGtHpL+v0J5xl/y2mfn3pmF+8nQwr3p9ulH3sw8U+5OW1l0ZTsrX1nFjVWSWKOHWApLX03oq1BeFcXVeFlViqnrh8zLCusYOt/4tp17R5wPLdwfSCd9+hwxtw1AYXCNdtZcZV2OrMuNdflPhWOJNX6IFSwsETKsvpp0fJXLq/G6ysfVeFktpqKG/qMOA31R4SLmyzvs3JNauHc2ffrUMrd32cMNKfw/G8+tTGflKivXWPPHWLnEGj3EUljE+2pKXmXrKtdWBWHVdjb18iceBvSawsVsmPfauaezcL/p+U60T8JJ8/CsbE9HSXnlSmsuszKRNdpY2cRaNZdYJX8mVFj6KvLnwbG8yhxeZeoqF1cFXdWtAkr4px56/5rCxU6Z179r557Mwv0vbadPQnXTeof8tt8KkitbWlcqKxNZc41VllgTD7FGC0tg6auS46vRvJqvq8zRVa6txruqq42T2m899PdFhXWtmvfYuaeycD+URPqkGzJbZ+n5Lhj9jxrtrUxoZSrrcmSNNVZZYiksJgRWaV+F8mq+rnJtNdZVHS2bdH7loZ8vK2xg4bwz8mw/a+c+84X7kR2dSZ9EoqbFNLm/XwqqKxNac5mVi6xMYxUk1ughVuXC0iJD66vy46t8XuXraj6uitKqtKj8aES3X1qY2tfb5yc6j71l557Ewv1Aq+nTzcZppS5+NyvrZ2z0v2e0t+ZD60pmzUVWprGuHGPlEmv8EEthUaGvpudVQV1l0mqsq9L8g9OAXsSc1Et8Jg13/svevcVYVZ1xAA8SeJgZ5uaUZhxAoFJuJZWhOqMoLQXrVCE4pLQpdoQZBzKAM1yUi4QEgwi2AsFrtFqRiHhFK9VWtFokxqgxJkSj5WIdYyNeKKEP+uBD05l99tlnrW+tvc86Z/Y+e13+/3cvGcisX77vv9dCzz3t/FXlT+CCizSkj+6kOReJSV2MtLLMIsjKGssbYxFiCUMsf00IYcFXxfiK45WgK4IrTlZyUVn/EoTuFzEbdJtPwU3mBei5p5tHlGpwS1Ogj0vEOQ8JDUOtwFkZZWWQxRnLH2OxxOKGWIKwhoYJC8ByzFdi/aowXmV1xduKk5XUVCY9AGH6PcwG3U8YV8W5Q+mAfwwSSiYPKjXce6ykj2nSuEiHjEwgEf85Kq0sswRk+cbyx1h+Gcv/olA+xGLXhBAWfBU1vuK3g4RXMl3lcMXKSmIqk16yMuMtCdOuKkz4G69JrUo997tgoUTyuFLD/deuwccgnVgcKbV8ZvHI8o01IWMsbooV7Am9IRaEheQBVpSvCK+Y4RXVFW8r3lURkNL/JauU33gw9dbC9D7ymqHUc38aFkoif1JruOtBH6txsyDhXGlCZP/jPLUYZnnK8pDlG2tMxlgsseqyxGKHWPmEFVLDAkpc9hU7vuJ55Q+vfF2xuMrZioVVCKbwWMQY0+9f1vQbry703PVuuI+9PFn72ICahMQxztVIyMVAi0GWN8lijCUSixtiZdeESsLCCMtZX+UZX+WWg7nhVU5XWVwFtmJlJQOVng9A4B7mxC72KelHXlOUeu5vQUNpNdw7DJKP9Z75gUthsMUwi1VWMMjqN1Y0sfg1ISesIUrCgkusBZair0J4ldsM5nTF2YqRlUAqEx+2SuFxB6PuW9bsG6/16Lmn1HD/i8oPfl1MQx/T2GMAQC7XIdcNLBH/ZkKtnLOyygqMFcyxKLGosMohLKRQX0m3g4RXga780VUWVwGtWFdJLWXfAxF63MSs41WFJf6aqwU9d40b7rM1oo8dkLku9kyxJ1J5Mc5ilBUgK2OsYIwVEIsZYnFrwmzVnRcWgAVf5fdVOK84XTG2ytGKY1UeBc01KaV75sHqmgDKawAAIABJREFUy5aTajrPR89d34Z7p5b2SYc2WsvkF9rlJ9HJ808z3uKdxSgrgyzGWDyxpEOs4oUFmlgJLHpBg9xXgwVfMbwKhlesrnxcBbRiXSV31FS7H4sw/SJmcz9tV+q53/M8TJRCw/2SktjHGO+UUiBmZ1FRkfErKy2WWQGyGGMRYvl7Qm+IRYVVyQlrKISFAZboq76/FXOvyOVaL7/yMt/P1X6uCjKHZB6Xa9RzgxlZgixZqns6blQ565+EiUrfcO+83r50IMZF9ufI/grxftF5v/H7zqbsceadcP7B55+EfYfi+EBYg8OFBWA5N8CS+Gpox8wC0povbSVLC2JumuPPD9Fz17PhflNT0WlEIjIKiY78x8b+Bcv9+gh+NfnHCz3Y+HNwTnm0sDDCgq+y68GumHgFDoE+qUZphPU2eu4lbrivHQ3ZILpZS4asaGJxJ+Hycrmw5EtCAMtqYEkL7oGvJsSgK5jKbdpokL5flAu3oueuYcP9ZshHt0y2PkrOEo2lTKyeOiVhYYTl0gBL6qtBswfIq9RdBVzob5/S5Gb03Euat5SuaJjssn0mIxpqS4YsFWIx5+FlVXmEhRGWywtC5vPBlQPgVSG0AjSchU+pcvFa9NxLmMeUJoYXAD0m52LTogot0Vj8GCuPsDqqq+iNo7IaFkZYri0Iqa8GdRfLq/y2gmFsJ00pUsCGaKzSkf8UbBRH7lJquN8I+thGGMPBJUMWb6yIIVZwJnZVE2FFLwkBLEcWhIKvriyOV1G4AjtAn5TKx+i5ly5PK2n2t7COA/m5FilAWiKywoklF9Y0RlgVUmFhSejSACvEV+fMK8JXobiCoeCdVPNjpUP/Ceho4Hn+HqWGO+hjuFrMThSzqLEkxIpYE86uYe50jxAWgGU1sEJ8NSS4vn15obwK0ZUrqAJitP7I6yb03LVquM8CcpC+zEo6BUlLRFYhxMqcjCtreGExNSyMsDDAyvqqvKdYXoXjCkaBfNLKLPTcdWq4jwV9DEKKdYlyFjUWN8ZSENayWkFYGGFhgEV8dc6lBflKoqu8tIJecGlPCT/yQs9dp4Y7eIPoRy0BWSKxhCGWKKxxjLAkRXf03B0aYMkLWP3PO3cUwSuprmJ1FZSBS32KLeso9dz3oedeiob790EfRE9mEWOJm8K8wrqmtjbz8jNXw8IIy+0BFvHV4C5lXwm8CsEVzATnpPmN1/fQc9em4Y4jHeEyOqEUxyyZsaR7QnFN2P9aTh0V1mB1YQEqdg6wqK8mqPqK8kqGKztQhbsFDf/IS63n/hCUNIA8qdRwHw1RGAIUO6OALM5YlFjRwuqZ6AsrrIYFYDkywJIWsDxfDZ5RFK8kulKFFSyCG30SLjovVOq5vw4lJd5wB28czsISp3BqccZiiNUYSix+hPWbujpZDQsjLFeAxS0Ipb6qoO/kbF5sbFalmcWIPulFzz3hhvvbCj/ftavb3cju/RqlHUksm4iwOoYzwpItCelVDQCW5QMswVcVywiwFm8zNr9PMau2Ifpk42r03BPNE0qCbd/uRu69XZ/s344kljVkhtVV7wmL1LC8JWH+ERasYucAKyhgeb4aSTeD5p6qqwAsxI/aCOs1SCnJhvtJV87d/QCWG9ndQoQ1tU9YshqWSgsLVrF+gFVRUTaHbggBrKIC0+iVk+i5p91w39UOYAFYdmUz6WFdWz88I6z8S0IIy9YBVoSvKsroOzkbsCEEsGxYEqLnnlyeUpoP9m4HsFIIFJTgBGsDabqvaPCElalhSZeEAJYbAyx+QRj4SngnBxUsbAgdWhK+DC0l1HDfuno7gAVgWZZ28i1h94iGoIblLwkropeEAJYbAyyvgFVWtoj4qg0bQgDLjqj13O+Gl5JpuK/tBbAALOvSRIQ1paGerWGF9NzlIyxwxa4BlljAKqtcigoWgIWeO1JAHkLDHcByNZsy92EFwLphRNiSECMshwZYzIKQ9VVZZScB1hpsCFHBQs8dicjrSgOsdgArneyGgpK8qKGFF9byiXRJWEALC2CxCViSBWHliHXkkoaNABaAZUvPXWmE9RLEhIY7gIWolrB4YfWMGdHQUC/5klBlhAWwWDrAyvqq8mfEV83YEGJDiJ47EtFw36d0h/t2AAvAsvE7ws3k0ZyfThSXhMFVDdgROjXA4r4g7PfVsPXk+cFNGGABWPaMsJR67g+g5x7/He69ABaAZWU2kGcJ119IloQRIyzsCO0BVvSCsMID1rBhy8jzzrikARtC50ZYL0BNaLgDWIhaCauZXxJ29QFrBLMk5Hvu2BG6NcDiF4TDziUDLLyTA2C513O/Hz13NNwHFJ18dfu9QFCiO8JmXlgzz7uQXRJyPfeQERZ2hNYASxxgsQvCYfOJr3BJQ3E5A8qg546Gu6MLQgDLqWwmwrp6QtSSECMsZzaE/IKw31flK3hftdJ3cj7dYUz+948Uc3wHome2KYHgVchJLXfvU1oQ7nQsf9cpO5FYc5aWsHLA8oS1wgOWtyQMeu6yERaAZR+wyABrED/AKq/q5n0lVLD+c4sp2XtrmtlzC6Jn3utFzz3GvKbk1Tu3OJbbdMqRLUic+Zpe1NDMj7C6zy9ghEVr7kCLlQOszIKwfArxVQvdsHxozEF6IFVgHYRkdM0n6LmXuuH+pWtH8ItaAetNmCjWnKY7wkYirEWBsHI9d26ENQQjLPsHWLTh3uer8iUEWLSC9V9zztFTafrqYThG33yu1HO/D3qKq+F+8jSABWBZlC8JsDY1Z4SVXRIuzQJruPIIC8AyG1hhAyxuQVhe1cn7Sqhg/cucY/RQmsD6CIzRNx8oXYb1BvSUPy8rTQM/c+4EfgfAsjmf0YsamvgRVucYhRFWWM0dbLFtgBUsCKvq1/G+EipYJ4w5RfekuiE8AMZonOPouZey4d7+HYAFYNmUO2kJq6mZE9a6ST6w6skIi75IiB2h5cDKDbD6F4RVvyS+ou/knHnPmEP0cKrA2gvFaJwP0XNHw90hYL0LEsWbb+jFF5ub+CXh76JHWNgRWrwhDBtg9fmqqoMAi76Tc9ScQ/ThNH11CIhBz92Bhvv9aLjLK1gAlt3ZSS9qaOKXhOunjzk/d1VDgSMswMVUYEUPsKqqqrt4XwkbwmPGHKEHUx1g3QHDoOduf15S+SmuPu3gAXwEwLI6XwklLF5YXdMHMMICXCwdYFWPJ75qo5c0fGDMCfpsqsB6BYTRvOe+Cz13NNwBLKS4fEFfy2lsYpeEra0LWGHlRljymjt2hJYPsCr9AdYVBFj0kobPzTlBP04VWM+CMDb03Hc9A0VFNNwfUHoj5zsAK+28DxHFnbNCCYsfYV3FAKsuaoSFHaF9wAobYFWv5H01k17ScNycA/Q5XDOKDLjn/ih67uF5QWmA9fUWAAvAsi5HxRIW+yVh64ppAxhhgS6GAStkQ0gHWDXLOF+JFaxPcEmDUp4DYLTPMSUe/BmOCst9aLiH500Ay+4Ir+U08iOs7vHTFFtYeC7HwgHWEH6A5V3RUF0zjh9gie/k/NOY4/OVVIH1Mfyif75V8cEf0XMfWMP9CwBLgwBEcUd4LWdUEy+sS8QRFnaE9gNLHGBl7xitrq6ZRwZYtIL1qTmn5x24ZhSJzgmlnvvfICl5XkXDHcByOMJrOY1NXM99qTDCYm9qwI7Qvg0hX3EnA6z+BWHNct5Xbea+k5PuJQ237gFf0HNHw93Vhntf3gWwLI/wWk4jvyTsHO+PsBpURlgAln0Vd6aB5TXca+p7OGC1tdEK1h9wSYPaNaPouFvUcwem0HA3HVgvAkRxR3gtp5EfYa37ETfCqqlBzd25DSE/wKq9lAyw6Ds5q8x5J+cjXDOKoOeOhjuABWAlE/G1HDLCmpEZYeVeJGRq7rnb3AEs2zaEoQOs2uvJAItWsHaYc3Sme0nDYdgFPXe78wYa7iYB6x2AKPYIr+V4wGoKRljrJ42fHjnCwo7QrQFWbSc/wGpbQ4D1b2MOzr3pVrBwzSh67mi4b9161N3T930Ay/Z8JZawuBFW11xvhJUBVjDCQs3dUmCFVdxzA6zpZIDVtpEA64QxB+eBdIG1F3RBzx0N995vACwAy9oIr+WMYoXV1tY6joyw5DV3AMvWDSEdYM0gvmokvvrWnHPzFK4ZRdBzR8MdwAKwEstZsYTFjbDmTOofYUluasCO0PYNITfAytyBVVu3kgBrk7Hv5Bw8lCqwTgEulvXcH4GpCm+4n3X58NXLV7cdAYfij/BaDhlhrZhLR1hBzT10Rwhg2TbAqswOsOqW8b4SLmk4Zsypme4lDbhm1KScUeq5PwhVoeEOYCFshNdyRvEjrO6p/SMsseaOq7AsBVboJaPeAGskGWAZ/E7OYVwziqDnnlSe2YWGO4CFCK/lTCYjrMvmTiKXjYbV3P/P3rn9VlWmYTyMMyYzExNh7zTpASZemFDBpDDWYoyjnXjAicxUg+PFxAtxx9AypWgiJoRETcVJKBg8xmMZo46nYVC0am002DGNNg2JgQCCBQnHwYHADRdzNey9u3fX935r7b0KLNZ+v+/3/AftuniffM9vP88vecJyJiGUKzmFFcIZM7J/EA9Yindy+tM1WNSMatJ3sTj31/BVZb0B4V5NAxgsD2St5YgnrPvlE1YI5h6ZEeKwnEHcCw9YdcvEA5bcyTms5mSmXNLQj2lRxbn/EMcvfIKvKukDCHd1BmsEN5SArLWcWeYTVm7eosmy0bpsFszdt4Sw9IB11mDVd5sPWAslgnVCzclMuaRhF6ZFlQ7BuU+JcH8Zwr2qRjFYHshayxEGa2XDoqvMvZxIzJ2M0AmDFdnRkK27RjxgtUkEa6eaizlOzSiCc09In0K4Y7BQXvZaTt5hBRYJby4+YZmYOxmhNwlh4AGr7gHxgCURrNN6Dma6JQ3UjLrJub+Nt4Jwx2ChgKy1HPGE1TMv0NQw0eZORuhLQhjoaMhm63LmA5aFYO1Tcy83puuvBnEs2rQOzh3C3WmDNYYZSkLHbQhrVhBzXzo3GnMnI/QkISwi7rNXmg9YFoK1Vs25HErXYFEzCucO4e65hjFYPshay5ljPmHdecO8YlODbHOPlRFiY7SUNBgJoY24zzhrsG4UD1hyJ+fkNjXnMuWShiEMC5w7hDsGC4Plvk5ZRQ3mE9Ydc0Pb3MkInU4I8yVYAnGvf0Q8YMmdnHVqjuWWXhh3NEWtiOMbPoJzj0W4P3UMg1VjBms7XigR2Ws55hNW11yJuVfMCDFYLiWEQcS9fqn5gLXwIXZyqBn1iHN/GM4dwh2DhaYmay1HZITdmXmlNvfoxWcyQuUGKzQhDCLudfWZdvMBa4Esadih5lbuomYUwbknok8g3ONpBIPlhay1nGtLT1gTGeE9Bcx9ahkhRQ3aE0ILca9fLB6wZEnDET2ncjM1o2jK2g3nXl1/j4WqHefuYrB8kbWWI56w7s9MtLmTEfqaEOYR9/pl5gOWVdKwR82lTHknp3cTZsVhzv0tn/3VKxDuWg3WGj5JMrLWcuaYmHsuM4m5R87lUNTgZEIYQNwbO4XBkiUN+9UcypRLGqgZ1aonY3Huz3hssN6GcI+rMQyWH3o6BMIKPmGtnGlXYYVlhEBYuksaIhPCIuJ+g/BXFoK1W82d7KNmFJ2L1sZ6wnrfX3/1GoS7XoM1wDdJRPZajsgIb8mIKqzp00VGSFGD2wnhWX9V3yEMlkSwDqg5k2mXNPThVODcPSbcf4Bwx2D5JGstZ46JufcEMsKm6hkhBsuFhFAi7o1dJuKueCcn7ZKGrRgVtzn3byDcIdz1GaxRvkkystZy5phPWJ2ZYhUWGaFfCaGBuDcvFwmh3p2crdSMIjh3CPd0tR2D5YmstZxrTcz9zqutjPDyqhkhRQ1OJIRlxP0e8YAld3JW6NnJSbmkgZpROHcId4TB8kanQooagk9Yf8oEqrDq6+qy0XuEZISOJoRLxAPWo2p3ctIuadiMS4Fzh3DHYGGwfJG1liMywq6MPZdDRuiWwaqQEGbzBisnDJbcyTmk5kRuStlgjeNSnOfcn/sQwh3CvbJqzV+tGeabJCR7LcfMCLszecy9MJdDRugugmUkhOZMTuNV7WZCuGCVMFh71VzIo9SMIjh3CHcMFgbr4kiu5Wz4vXjCut3ICOvJCN1FsGRCWCzBavxdlYTwjJ4LOZiywdqISVGtfXDuoYT7R3H+Lf/g2mKw/JO9lmM+YS3JZKpnhAw+O5oQ1p01WD3iAWu12p2cjSn7q0EYd93696o4TuJb3zh3CPepaQCD5Y8OhhU1BKqwcueVEWJoVBisSr8hbOo0DNYCq6ThezX3Me2Shn4sCpy7r4T7em5t7RqsET5KUrLXcsyMsH1mMCNslL8jDB98BsJyJyG8WySEbXp3cvqpGUXnp9Nw7pa+iUW4/5dbW9IoBssfhazlmBnhLfEzQiAs3SUNITM5jU13iIRQ705O2iUN1Iz6wrm/65O/egvCHYOFIrU+rKghkBH2NJTncipmhEBYmhGs6ISwy3zAWiB3cg6rOY5p7+T0vo5B8YRzf88ff/UMhDsGC0UrZC3HyAg7GxqMrtEsGaHDCeElMiFs7hYGSyJYJ9TcxnFqRtH5ahucu6n34/w/Hn6aQzuJYNWewRrjqySmkLUcIyO891YyQj8MVmhCeJ1A3OVOzpM71dzGtHdyjmJPvOHc3/HFX334HIT7VDWMwfJJpyKKGkoZYUdD6XeELWSE3iWED4gHLIlgnVZzGdMuaegdwp3AuUO4IwyWVwpZyzEywq5gRlgwWIWM8LJARkiZu/oa94jfEDblTMTdQrD2qTmMQ2kbLGpG4dwh3BEGyy9ZazkiI+xuaChmhL8JZoS/JiP0ISG8fqWZEFoI1lo1h7EvbYNFzSicu5eE+/Mc2Ro3WNv5KMkpbC1nTjAjvD0iI2Tw2f2E8CaREM4S/urkNi1ncUva/oqaUVc49/viuIo3feDcYxHuT0C4mxrBYHmlkLUcIyNcUikjpMzdiYTw0vDfEDY9IhJCuZOzTs1ZTL2kYRfWxBGdgHOHcMdgoZiy1nJERpgjI/QnIfyVkRA2LxUJ4UNqd3J2UTOKLirn/qrzButdCHc3DNYaPkqCejoEwgpmhO13Z+yMkKIGFwxW+NDzZELY0G4mhG2rhMHaoeYopl3SQM2ob5z7VxDuEO5hGsNgeSW5lrPhUZER/qVhco9wwmBNp6jBEQSrYkK4WCSEsqThiJqbmPpOziC+xB0dhnN//PFnvo3zT9jwPy5s7RusAb5KgrLWckRG2JOHsEIzQsrcXSlp+Fm5pCGYEC4TCaEsadij5iRuSttg9WFL4Nyd0jsQ7hgsFEPHQyCsYEbYWYCwyAg9KWmYTAgndnLujSxp2K/mJKZe0kDNKJw7hDuqTYM1yldJUMcqFDUUHNatxYzwejJCt0saZEJ4tUgI2+ROzm4tB3HLIIw7uoA64D3nDuF+rtqOwfJMYi1nw2qREXaQEXpT4x5MCDtEQigRrANq7mHqJQ3UjLqlHQ96zrm/F+sN7yDHFYOFvguBsIIZYVc5I2Tw2aeEsEskhHp3crZSM4pS4Nw/95tw/xuEOwYLha7lBDPC/FrO3EXFjJDBZ+cTwpLBmr3cTAgV7+T0UzOKLizn/mMszv1ZCHckVHv+as0wXyVJ2Ws5IiP8c7DMfTIjjDn4jLnRUOMeGHqekc3WNTY13yMSQrmTs0LNTk7qJQ29m7Akjml/LIvxpZv+6lUIdwwWii1rLadksOaX13KKZe5XTKHMHQhLY0IYQLCWiIRQ705O6iUNvRtxJHDu7ugrCHcMFoqtgxWKGvIOKxeVEQJhuZsQNudEQih3cg6puYXj1IyidDj3zyDckaEBDJZ3stdyzIyw/TYjI2Tw2eka9xl5g9XUPK/dTAitnZy9am5h6iUN1IzCuTtEuL8J4e6WwRrhsyQqey1HQFiLyQi9SwhvFgmhLGk4o+YSbkw9IdyKHfGVc3/JPc4dwv18NIrB8k/rKxQ1tBXXckoZIUUNTpc0TCaEPSIhXK12J2codYNFzSicu2eE+3+4qhgsNCF7Lcd8wupsDWaEjdEZIUUN6mvcCwlhY3NLp0gIZUnD92oOYeolDb2v40a85dxfdI1zh3DHYKGp6Vi1ooZrShkhZe4O1riHJYS3iYRwvtzJ2aHlDG5J3V9txovAuUO4o1o1WGN8loR1KqSoIVjm3lHMCBl89qbG/Y4qCBY7OfE1jhfxmXP/wiV/9Wwswv0+CPcoDWOwPJS9lnOtUdTQFcwIGXx2OCGcMFgtXSIhlDs5h9VcwV3UjCI49wukLyHcMVhoqvqpSlFDd2trptrg86VkhDoTwrCh59nd5gOWhWCdUHMFN1MzilLl3D+GcEcYLJ8VupYTzAhvLA8+kxH6kBBeJxJCuZPz5E4tNzD9nZzeLTgRV3UkFuf+AoQ7mtBIDRqs7XyWpGWv5ZgZ4ZLWhkw+I7w+kBEy+OxuQviASAglgnVazQlMv6ShHx8C5+6GPodwx2Chc9DBKkUNuQKEZWeEl5ERak4IL41ICFtyIiGUCNY+NSewj5pRlJz2+MS5Q7hjsNA5KXQtJ5ARtl9ZzghnkxE6nxD+dmUVBGutlgOYfkkDNaNw7o5w7vEI9584p8oM1ho+S9IKWcsxM8LFDD67Y7B+LgyWNfR8k0gIJYJ1cpuWA5h+SQM1o3DubnDur74I4X7eGsNgean14UUN5Yywp5XBZ6cTwmKNezZbl08IHxEGS+7krFNz/7ZSM4rg3C+IPovzlz4I4Y7BQpZC13ICGWFna2um8uDzNJ6wVCeEQQRrqUgIH1K7k5N+ScNRPIjbnPtTcXzH1xDuqGYN1gDfJWkdq1TU0DaxlkNG6DKCNZkQtrabD1htq7Tu5NRAScMQHgTO/Ymn/qmecH8pzt/5I4Q7BguFSKzlbFgtMsIOBp/dTAgvMRPC+qbmlruqlDQcUXP8NqVvsKgZdVw7Y3Hub2jn3D+GcL8Q2l6LBmuU75K4vouEsOZPrOVUywh5wnIlIVxWpaRhj5rjd5SaUZS0vo9lPT7Q7a9egHDHYKFz10+VihrOOqzlMyczQooaNLeMVk0Iyzs5pYRQljTsV3P7BqkZRYnrjAecezzC/RiHFIOFwhSylmNmhDfaGeH0KWSEOKwaSgjDa9xnFAxWc8vVIiGcL3dydmu5fBvTf8Dahf+Acy/oU83+6gsI9wujNRgsTxWxljNrci2nlBFGDz5Po8xdU0I4LTwh7BAJoUSwDqi5fOmXNPRuwn/Auavn3CHcnTZYw3yX5HWwSlFDbiIjZPDZ8Rr3lq7JB6yF+YRQ705OPzWjqHY4d9cJ9/1cUQwWilDIWo5R5t5+ZTAjbCIjdC0hnD6REF6xvAqCpWYnpwZKGgZxH3Du6jn3eIT7gce4otU0gMHyVVFrOeWM8K7W1szcKhkhg89qShqmRQ093y4SQrmTs4KdnPjqw3zAuZf0slbO/etYhPsODBYGC0UqdC0nkBH2zCwPPpMROpwQLhEGS+9Ozjg1o+jiaK/LnHs8wv3wYxisqhqtSYM1woe5CApZyzEyws5AUUM5I7ycjFBXSUOVhLCpZXZOJIRyJ+eQmquX/k5O77/wHnDuyjn3mIT7NgwWBgtFS67lPC+KGhb+sQBhLSoNPpczwsvICB1KCOe2mw9Y1k7OXi03rwZKGqgZhXNXz7nHJNwfw2BhsFAFha7lBDLCvxaLGq4SZe5khE4lhDdXKWk4o+bmDaXvrzbjPODclXPucQl3DFYMDdekwRrjw1wMhazlGBlh18wpDj6zR1ijCeEvrIRwssa9RySEq9Xu5PSlb7DGMR7e6GQszv0VZwl3DBYGC/2fvbP9rbK+w3jMNl5sYU5pSIzU0jTEijNBmE+wETqioHVLZtJlL2SZiKQPUtFEu5Bla9bAC0DiwBkfQaLOR0SrqEg0FVxVRN6UlCcByQQiGWS8GC/2aj3n9Jxz39/76XdO27vf793P9RfQ3C++F7/Pda4rTnIt5w+CEXbW+srcp0UPPsMItRPCSR5CONlLCBvbEkoaDls5eL0KCCE1o+Tcjefc39jgmHDHYGGwUJxi1nJmD6/lMPicRULoNVgzBCEM7OQcsHLwFJQ09GzBd5Bzt51zf8E14Y7BwmChWIWu5XgY4dJKGSEGS5nB+n7i0POd4gHL7k7OQWpGUao5969dvMh7tvzVW84J9yHt4IYmqF+lwRrgw6SiwFqOYITLaoODz5dT5m6WEHqHnmtqpuYJYbswWHIn55SZe6egpIGa0Qmlb53MyPOmEu5Pu/xJp7sxWBgslKTAWo4wWE0NVQ0+84RlhxA2rhAlDTKCdc7KtVOwk9PTh+kg52465/6+e8Idg4XBQrEKX8vxFDXcxeBzxksabhFDz3InZ82glWO3TYHBomaUnHtQL2ct4V76YTEGy6bBWs2HSUePRhQ1FJ+wHqhl8Nk4IQyvcb98eOi5cXlCBOuCmWOnoKShZyueY2JpvVPO/blMJtyH9BUnNEH7MFgTWWcTQlhttVUxQgyWugesSwoPWLLGPb+TsyQmgnXcyqnr3UnNKCLnnl7CHYOFwULxCl/LKTPCxb8uM0LK3DNICK9+xE8IAxGstVZOnYaSBmpGyblbzrlXlnDHYNk1WLDdlBSyluMrc7+v9gYGn7NHCC8rEsIFghBeK/zV+f1WLl0fNaNoHLTSxZO880x2Eu4bDmCwMFjITYG1HMEI22uLg88xjJAyd+UlDZFDz41dghDKnZz1Zg7dZmpG0Xjk3B/OTM69woQ7BstBAzoN1l6+TDoKX8spM8LO2hwjZPA5o4SwrlUYrIes7uRoKGno6cVvkHO3m3N/zynhPojBwmAhR4Wt5fgY4YLIMnc3RojxUUsIp81qvKHJTwhnr7K6k6OhpGEzbmMC6lBWcu7PO8XJfP/l+owLisFCcQqs5QhGuFQMPl85taaGweesEMJIUj6pAAAgAElEQVRm8YAlSxpOmzlzx6gZReTcR6BnnBLuF7sxWJVoNQZrYit8LafMCFuHixpmMvicPULY2JFQ0nDEzJVTUNJAzegE1ZpM5NxfrjThjsGya7B282VS0t8SGGFTA4PPGSOE5aHnujY/IQyUNJywcuO2aIhgUTM6MbXW6Qnrdd3+6rmKE+4YLAwWSlJwLUcwwmbBCKMHn2GEOgnhJA8hnOwjhNeJkobZcifnkJUbt0uBv6JmlJy73Zx75Ql3DFaydmCwJroejS5qyDPCjnKZexQjZPDZKCG8PyGCddLMidNQ0nAGp0HOPUafZyzhjsHCYKFEnY0NYd10c1utZ/AZRmiaEP5YEMJ2QQjt7uRoIIS7cBrk3OP0UrYS7hisZO1VarD6+TRpKWwtx8sIF9/iZ4Qxg88wQr2E0Dv0XFMzNf+ANa8zIYLFTg41o2j0cu4bjSfcj2KwMFioQgXWckQI677qBp95wtJICH0RrNsFIbxK+KuVZnZyDlIzisi5p5twx2BhsFCywtdyykUN7V5GSJm7hQesmAiWlxAuFQ9YdndytlMzivTn3B9/O0sJ9yH9k/MZr90YrAmvsLUcb1FDZ4uPEU6LYYQMPlsghDmDlXvAqlsmDJbcyfnWynVTsZNzEJdBzt1mzr26hDsGy67B2senSU2BtZyFghEugBFmkhBOafITwpvkTs5RK9dNQ0lDzzZcxkTWcbs592fecfmnn+/GYGGwUOX6LjSEVWaEXTDCzBDCSz2E8NbSA9bivL+SJQ0XzRy3ddSMonHWnlUuLuWLjdlJuGOwMFjIQWFrOV5G2JpjhKUydxih6Rr3AiG8MkcIH0iIYJnZyVFR0rATj0HO3WTOvdqEOwYrWf1KDdYAnyY9ybWcVb/0M8KmhkIIK54RUtSglBBeEkEIczs5S+JKGg5bOW0qShrWYTEmuC4Yzbl/7vLv/noQg4XBQtUosJYzXTDC5jwjDA4+wwjtEsJZdQ2CEAZ2cg5YuWx91IwiKzn3V7X5q5ecXt7Cf/CCwcJgoUSFreV4GWFHS+TgM4zQGCG8rEQI7xSEUEawTpu5bBpKGnrexGGQc3fRa7r81caqE+4YLAwWclFwLcfPCNtaWvyDzyVGOBlGqJ8QFoeeBSFsF4RQ7uScsnLXVJQ0UDOK9lvMub9edcIdg5WsfUoN1mo+TYoKruX4GWFuLSdf1AAjNF3S4COE9Ss8hHDIYM2WEaxzVu7aNg3+ajv+Arnl3F+xl3CPqhz+kuOJwUKJClvL8TLC5dGM0GewIhkhJkgVIZw2q7FuriCEcidnzaCVs3ZGg8E6hr1ABnPuI0i4Y7AMG6wdfJsUFVzL8TPCdn+Z+zXThgyWlxEy+GyPEN4rCKEsabhg5aj17qRmFJFzTz3hPqQ93E4MFkpUcC2nbLByjLBzUbnMvV4WNcAITRLCZX6DNVtGsI5bOWpbVESwtuAukLmcu1vCfWU3BqtKDWg1WHv5Ninq34+JENZCXwjrppvvdmSEZYMFI9RNCGc+4ieEgQjWWis3TUVJAzWjKJ9zv8dUzt0p4f5wzGQWtxODhZIVXMvxM8IuwQjzBgtGaJgQ3i0I4Y3CX53fb+WmbaZmFKnROUs597cfH0nCHYOFwUJu+ldCUUMrjDBjhLBLEEIZwVpv5aLpKGnow1qgCnLuz6owWK86JdwPxfy1RHnitRqDhf4auZZTYoRNv6h48BlGqI4Q/qRMCOtbBSF8iJ0cakZRWjn3TzKQcM/pK26nTYO1m2+Tpv77j5C1HO8TVrM7I6TM3QAhrBWEcPYqqzs5x1QYrK04C1TQKSs5941fuPxD13RjsDBYaIR6NKGoocPDCKMGn2GE4/+A5UYIG+ubBSFkJ4eaUZRizv3F8c+5v+LkBON/7PIZpzNOOzBYKK+ItZxSmXvbIhhhVgjhNY119R2CEMqShiNWzpmOkgZqRpG1nPvIE+4YLAwWclPoWo63zH2unxEOGywYoWJCOCmaEM5bIQihLGk4YeWa7VJhsKgZRWWdNJFzH3nCHYOVpL1qDVY/Hydd/SehqGF5S0siI7wERmiEEN4mCGFgJ+eQlWO2jppRpEwHHjSQc39t5An3btaeMVjITRFrOSVG2F45I8RgqSWE9wtCKCNYJ63csl4V/qqnF1eBKs25f2g94Y7BwmAhR4Wu5XgYYeeiHCOckmOE82CExglhfXtCBMvMTo6OkobNeApUec59k/GEezdrzwnajcFCBYWs5fgZ4e/yjPCnFTNCDJY+Qjin008I7e7kHKRmFOnTCSf78vH4+atnRyPhjsGya7D28XFSVsRaTokRdhUY4fUwQvuE8HbxgHWt8FcrzezkqChpoGYUGcu5j0rCvZu1ZwwWclToWo6HEbYOM8JfwQjNEcLJBUJYM3WYEC4VBoudHGpG0QTKubsl3F2CAmzlYLCQi0LWcnyMsOn3LS35ogYYoe0dwsb6ea2CEMqdnG+t3LFtKvzVTgwFspRz3/iiyz9u1R6Hv5OUe5z6MVhoWHIt5+/TBSNs9jLCRhihXUI4pcn/gBXYyTlq5YzpKGk4g59AMuf+jYuHeWqT5YQ7jNCuwRrg46St0LUcDyPsWNQyXNSQZ4QlgwUjNEMIrygQwlsTShouWrlivTtVGKxd+AlkKOfulnC/4PZ3skaIwUIuClnL8THCthllRlgPI7T7G8J5DwhC+CerOzk6ShqoGUXV5tyfHI+c+yejlHCHEWKwkLNC1nL8jHAujDAThHBemyCEsqThsJUb1kfNKLKdc//AcsIdRpigfWoN1mo+TuoKXcvxMMLlMEJDEfdgy2jxN4QNghAGdnIOWLlhm6kZRcZz7h+l7a82uSXcnZtaYIQYLOSikLUcHyNsLzLCmRUyQp6wVBHCOwUhlBGs01YumJKShoN4CWQn5/7x6CXc86Jr1KTBol8jdQXWchb6GWHnjEW1hcFnGKFlQtguCKHcyTll5YLpKGno2YaXQNXn3N81nHDP6zNOJwYLJStqLafECOfDCDNACOesSIhgnbNywM5QM4o067RTzv0Juwl3UljxGtBrsPbydVJXyFqOjxF2zciVufsY4dSaICOcxBOWZkI410cIgzs5awat3C8dJQ3UjCI7OfcPRzXhXhA/JMRgIQcF1nK8g89DDqu1xAivhhGaJYT3igcsWdJwwcr52qLjAWsdRgJF6Ii2nLtbwv2eCrdIwU0YLJSswFqOYIRN18EIrRLCUsvonGUJEazjVq7XLh0Gqw8fgazk3N0S7pWGBMi5R2g1BguV9T+5lvOXUlFDgRHeEWCEVxQZ4eRYRojBUkMIr39kSXwEa62V66WjpKHnTXwEMpJzf/bJ0U64F0RVgzmDtZuvk77EWs5jf1zoD2F1RDLCH8EIjRDC+cMPWIuH/dWNwl+d32/kdvXq8FfUjCIzOfcPRj3hTs49RjswWMirsxEhrCIjbJtRKHOHEZohhJOLvyEsEsKuhAjWeiunS8lOznZMBIrJuW9w8TSfakq4V1PTAiTEYKFEha/leJ6wfh7GCC/3MMLvwQh1E8I5rYIQPmR1J+egDoN1DBOBbOTcNz01Fgn3gvglIQYLJSqwliMY4XIYoXFC2CII4VWrrO7kbKdmFOnXoJ6c+7tjknAfFnWjQe1VbLD6+TzjoMBajmCE7WVGOGSw6mb5GKHPYMEIdf6GsFkQQrM7OUpKGnq24CFQnA472Zq3xt5fPeGUcD9Z7d9J0B2DhRIUvpZTfsLqbJCM8EoYoSlC2LEkvqThiJW7paSkYScZdxSvi0py7k4J9werfsHeQxsWBgvFK7CWM10wwvm5weciI6yDEVojhFev8BPCQEnDCStna50Og7UZA4FM5Nw/GrOEe9Fh8YYltBuDhfz6LiKEVWSEXc6M8AcwQkWEsLhD+DNBCK+SOzmHjFwtLSUNfRgINBo59w1vaEi4fzOikhZyWHYM1j4+z3gofC3nxpLBap0BI7RMCO9bEh/BOmnlaCkpaaBmFI1Szv0FDQn3kT5gf4nHwmChaAXXcvyM8De3wQgtE8J2QQjN7uT0KTFYW/EPyEDOfYwT7h6LxRHFYKEoBdZy/iwY4R1RjPBSGKH+3xDO7BSE0OxOjpKSBmpG0Wjl3J8ey5z7p2ObcPeIRqyS+jFYSCh8LafMCDsKjHBKiREOGywY4fg+YLkRwt8KQnit8FcrB41crK1KHrDOYB5Qso465dzfN5xwJ4llzGAN8HnGRWFrOV5G2NYQywh/CCPUTAiXCkJodidnmxKDtQvzgPTn3NNIuJdEXwMGC0UpsJaz8P/snW9sVfUZx7MRMUslm15DQicR0pCy0iZWGhYFpjBA3eigi9NMI0Z6Q27btMUllqQje9OVF5SRBZzRgUWjxr+IVq+zNpra2lb7LyFtKFABySjNTCDypq8n9+85z/mde3/33nPueZ5zvp/3lOSQnt+X3+d7noc4wg05OsKf4QqLjSEsjxBDSPfkXJFyYM1jzChAz51Xwz2VsDCvAQEL2KDelpN2hHtWPZRyhOvhCEUZwtJNJGDRPTmzQs6rnl4mAQtjRgH/nnvRGu6whCbGGQesTvzzeINqW47REYZjjvDmoIZMjvAncIQMDeFWYgjpkIYFKccVlz05GDMKNLnuYc+9eA33JGO4xELAAiqs23LMjrClrCzuCKtzcIS34gqr+IZwicUQtpILrP1S9+RwGdIwg+AA2Pfc3ztcvIY7IhYCFsiEzbactCPcctMRlsIRypsyWt6QpYJ1Tspp1Y0xowA9d82G+2tFbLgbI1YUAYsx+BTBI1TbcoyOcB8coVBDuJEYQjqk4cC0kLOKy5AGjBkF+j33b3VyzifOB6wPitpwNzIU8EN8CgELWLBuyzE7wggcIeMLLIUhTO4hLN9BLrBoBeuqlLOKy56cXsQGoM0VraDziuMN93/r/LUu/e4PTSBgMWUUUccbbLblpBxhXU0ujhDD3PkYwkYSsOienDkpR9UFjBkFfu25H3M4YP2n6A13E4MBvsZCwAJWlNtyjI5wu4Yj/CkcITtDWNFsNoSWPTnXpJxUXIY0YMwocLzn/qYXDXdXP28J7AboTgQsYMW6LcfsCJvKVhkd4Wo4Qo6GsMRiCDeQCyxLBUvKnhwuQxrQcQc5cUir5/6yowFLr+Hu9q9+MFUh64A1gKTjEd+rS1gpR9hQVpZwhLVwhHKmjJbXZxnScEPKOdXHJWBhzChg3nP3ruFuUYUjQXOFUQQsoEC5LcfoCB+HI5RoCMPEENIK1kUp51QXxowC9NzZN9xVIQsBCwEr8JBtOf/aTxxh/U1HGF/4DEfIew/h0rQhDLWZL7AsFayDQk6pHi4XWBgzCnJkr07e+ehYcRvuh4s5nmUsOLZwFAELqDidpYQVhiMUaAh/QwzhZpKvrk8KOaS4DGnoOInAAHJj9rmi9twZNNzVISsQupB3wBpG0PEK5bYcgyNs2ZhyhBXla1fCEXpuCG/RMIT7iCGkFaxDUg6pGYwZBVIpbs+dR8M9qJ0sBCygRLEtx3yFtcUBR4isVAxDuCxlCCsixBCK3ZNzCmNGgVTOFrPn/opW5cu7X/zBMV+HLAQsoMa6LcccsPZRR5gKWHCETA1hxao6ErDasSenMLoQF0DOFLHnfkyr4b7g7fPw8ZCsAQQsoES5LcfgCCNlZav+tDwvR4iA5ZEh/D0xhGL35JzkErD6kRZA7hwoWs/9TS0dOev5E/FrxuIdsMaRczxDsS3nt4aAdW9dDRyhNEPYRC6w6JCG81IOKC5DGjBmFOTDQa2e+7uF56uXeTbc1YUsBCwErOCg2JZjdoTb4QiFGcLa5ixDGi4JOZ96etFxB5IpVs/9E74N92BELAQsYINyW47BETbBEXI3hLebDeHTpnyl2JNzVsjxxGZIwylEBZAPej33r/3ecPd/xBpGwAJqFNtyTI6wYSMcIUNDuMjeEO4hF1i0gnVZyvHUzyVgXUBUAHmh13N/IwANd39HLN4BawoxxzsU23LMjvAROEJOa3KyG8LGdMC6V1XBmpNyOnVjzCgQjl7P/UggGu4+jlgIWMCOH9QlrJQjrIcjFGUIq1vMhlDsnhw2Qxo6TiAogPw4+HfXe+6CGu7miDWCgIWA5X8U23JMjjBscITlcISsDeH6teW1DxBDSPfk7D0j5GxiM6ShowdBAeSJVs/9+Q+D0nD3acQaZx2wOpFyPESxLcfkCFt2wRFKMoS7iSEUuydnnku+6kZMAPnies9dWsPdlxELAQvYYbctJ+UItyod4Z1whLwM4T1xQ1gbIYaQ7sm5IuVoYjOkoR8xAeTNRXd77sc+0vnx19k+Hn9ELAQsYItiW47REf66FY7Q43x1q+0QLKshXL7JbAgte3JmhRxMJ9gYQowZBQUkiHZXe+4iG+6+i1jMA1YUKcdD/ms7qCHuCCMbN/4YsOAIORjCxVkN4ZPEENIhDQtSDqY+NgELY0ZBAbjac9druJ9mnkHFR6wpBCxgh922nOQVVt3TKke4VOEIF8MRul5xz2YIW4kh3C91Tw6bIQ0YMwoK4oaLPfevdX72t+y/a5EesZgHrFGkHA9RbcsxOcIdcIRiDGF1AzGEtIJ1Tsip1MPmAmseEQEUgl7P/e188tUbWrdjEmqXsiMWAhaw5x+2gxrijrAJjlCAIbw7ZgiriCG07MmZFnIqsdmT09GHiAAKwrWe+xHhDXffRKxOBCxgi922nOQVVvMuhSNclnSES+AIGRnCHcQQ0grWVSmH0gzGjAKfoNdz/yb3nvu74hvu5uc0FEXAQsDyHZZtOSuII3wMjlCKIWwkhlDsnpxTGDMK/IJez/0tdxruhyQ9KZkRK8o8YA0g5HjKD7YlrLgjrIcjFGIIq5uJIaR7cq4JedHyGdKAMaOgYNzpufuk4W5mbAIBCwHLX9hty0leYYW1HSGusDw1hNWPE0O4jlawpLxt+QxpmEE8AIXiSs/dPw13ErHElbFGEbBABlTbcoyOsK0KjlCGIawnhpAOabgh5SXbxSZgnUQ8AAWj13N/x/mG+16RpbWhCQQsBCzfYNmW8wRxhFvhCDkawl9QQ1gZJoaQVrAuCnnD8hnSgDGjwAEmn3G8567VcH9uVugDE/VNIfeANYyM4y1223KSV1itBXxHiCss5y6w4gHrtrQhvCMWsG5eYK1cW15RXdpmNoSWCtZBIa9XPkMaehEOgANcc7rn/uHzvmu4i41YCFggI6ptOUZHGHHEESJhuW0ItxBDuJnkq+uTQl6u/WwCVheyAXACvZ77ce2A9bZWw/2s5Ec2JOX8HEDAAplQbcsxOsK6P8AR8jKES5SGcN/DZkNIK1hi/j/LZ0gDxowCR9DruX8Z9Ia7ibEoAhYClg+w3ZaTvMLaAUfI4gIrbQgTF1g/Bqy7UoawMkIModQ9Oa/yqWC9j2gAHGHOyZ77kW90ftgB6c9sMIqA5QDjiDgeo9qWY3SETXCEXl9g3ZJhCNbqlTFDWFZnNoRr2oXuyTnJJ2BhzChwBr2e++t6Pfe3tNLaQfEPbXACAQsBSz7f25ewYo6wuQqOkEnFPT0EKxWwEmtyKn9HDKHYPTnzGDMKfIeDPXffN9zTSEhYwwhYICO223KSV1iPqRzhL5fGr7BKSjBrtEiGcJHZEC41GcImYgjpkIbzQt6pPb0YMwr8x2XHeu4BaLinGEHAKpQpJByvodty9hNHWA9HyN4QhpqJIaRDGi4JeaXy2ZODMaPAOaafdajn/k4QGu6CEhYCFsjCafsSVswRhuEIua3JsRjC++KGMHWBtYbuyZHyP1o+Qxo6TiAWAMdwqOcekIa7nISFgAWyYLstJ3GF1bbNEUeIhOWsIUwMwYobwj3EENIK1mUpL9RujBkFfkSz534UDXcz3AdijSNggcwot+UYHeGTRkdYAUfIzBBW1FaHGokhpBWsOSGvU0ZDGjBmFDjJJa1o9EXmfHU8OA13IQmLe8DqRMDxnP/Zl7BijrAVjpCXIbydGsJQCzGEUvfkMBrS0I9MAJzEiZ57kBruScYQsBCwREO25fzzL8QRRqrwHSFvQ/ggucCie3L2nhHyMr2AMaPApzjQc9druF/02YMbQ8AqgCgCjtcot+UYHGHdffiOkMmaHBtDuI8ELLF7cvgMaeh4FZEAOIpez/2zDA3313V+QPug3x4cZ0s4hYAFsqDclmN0hDvhCHkbwoi54m7ZkyPlq21GQxpOIRAAZ5n8TicfvXQUDXdBCYt9wBpFwPEc2205iSusRhtHqNhHCEfohiE0XGCZDeH6mCF8aJP5AsuyJ2dWyIu0j0/AuoBAABymwJ67XsP9hh+f3BACFgKWXJTbcgyOsLkKjpCzIXzUtCbHOqTh+qSQ92gXxowCH6PVc3/Rruf+ZQAb7uwTVicCFsiGZVvOE8QRPgBHyGcPYdIQ3pMyhK3EEO6XuieHT77CmFHgPHo990/RcJeTsBCwQHZst+UkrrB2wxFyNYS11ZWhBmIIaQXrnJCX6PuMAlYP4gBwnAJ67kf1Gu6Tfn10PGe6R9kHrAHEG+9RbssxOMIwHCFjQ7iNGMJ1dE/OtJB36AyffNWNMACcp4Ce+xda2eyaf5/dCAIWApZQLNtyVpgdYVsNHKGXQ7AyG8KdxBDSCtZVKa/QUxgzCvyNXs/9YzTchSSsUQQskB3Ltpw/E0f4qNIRLoMj5GAIG4khxJ4cjBkFTLmq1XN/AQ13BRMIWAhYMqHbcv5KHGFrRkdYAkfogSG8O2EIQ81mQ2jZkyNFGzDak4Mxo8Ad8uy5fxbohnuCwSgCVs4MI90wwLIthzjCyDY4QiaG8I5YwPpVwhBWV4YeIYbQUsGSsieH0ZAGjBkFLnFeKyp9nk/D/ZlJnz+7QQQsBCyRWLblrDA7wqfu13eEi+EIC7/AysEQ7iaGkA5pkNLL6GG0J2ceQQC4Q14998A33BOwG9YwgIAFNFBvyzE4wp1whF4bwtgFFjWElaFQ2GgI11grWFK8AachDX0IAsAl8ui5H38x8A33BFEELAQsiVi25RBH2AhH6KEhvE1pCGNrckLL24ghpBUsKbvJ+jFmFASB3Hvun+r8iWfPBuDZjSFg5cg4wg0HLNtyiCNsrsF3hJ4bwp9bDWEotIUYws1S9+R0Y8woCALTh3Xy0le5NtznAvHwRhCwELAEot6WY3CED2LWqOsBK/uaHKshLG0lhpBWsA4JeXNyGtKAMaPARXLsuR99CQ33NINjnKY1DCNgAS3otpy/EUe4G47QY0NYkjKEdxkMYWmEGEKpe3I4DWmYQQgA7nEmt577x2i4mxlCwELAksZp2xJW/AorDEfIyhCuTBjCXXVmQ7iuXeienHlGAeskQgBwkXNakemDeL56QavhfjlIz28IAUubKWQbFqi35aQdYVsNviPkYwhXpwzhdmII6Z6cBSkvTUZDGjBmFLjLQg49d72G+3Sgnt8EAhYCliys23KII/wjHCEDQ3gnNYRNxBDSIQ3nhbwyTzDKV71IAMBVcui5f46GuxU2HxOOI2ABPSzbcogjbM3iCEvgCJ0dgqVlCEubiSGkQxouCXll9jEKWF1IAMBdtHruh9/Tbbh/Nxmw5zeBgKULog0P1Nty0o4wUoPvCDkZwvKYIbyfGELLnhwpw3E4DWnAmFHgMno999d0G+6Xgvb8xhCwELBkYd2WY3aED2+AI/TAEC4yG8LkEKykIdxDDOH/2Tub36jOKw6rVUskp0oDRKlKZRE0shJIojhKIHFKkjpOahLy1aoOBSV1SxzkjxroIrgiUrKw8AJI1U03XYD4A8CSJS8QGwoCSxjIBwQCxFBaA1IkUFg063rGd2bue9654/m895yZ5/kT7uJ9f/M+Z85PLmmwMvs6oShfjR4iAECdKXHOnQn3CKYIWCUySbZRgd+WIxzhn5+mj1CRIVyVMYSDwhDKESwrsxmaenJYMwr1p6Q593/+iwn3wijpfT5HwIISEW05//ircISDOMJkDeFi3xCu3rou/IDlj2BZ2Y4zoyhfjXP7Q925UtKcOxPuup+wDASsU0QbHfhtOa4jHH4aR6jNEL4rHrBkT872C0aOy3FFAWuG2x/qz+Va5aumm3BXNIVFwIJS8dtyhCP8FY4wPkO4qCRDOCICltWeHE1LGlgzCnFQ2pw7E+5RqPgj4S4CFpRK4bacvCPcjCPUYAjb84ZwWf+zriGUPTmzRg5LTUsaRvdz+UMMXKpNvrrepJ9vmoBFwDKF35bjOsI+HGG8hjD0gOUawswSrLmA1dbpPmB5PTlXjByWe1gzCk3HnVrkq2accFfzhDVpIGAdI9kowW/LcR3hjjdxhBoM4fKcIVwfWoKVDliyJ+eOkekMVUsaWDMK8VCTOfcbTfv5pglYBCxLRLTl5B3hehyhLkM4JAyh1Z4cVUsajnLzQzxcZsLddsI6RcCC0vHbclxHuA1HWPcHrHIM4eoBYQjlCNYlIyflRdaMQhNy4Rsm3Kvh+IlJAhYBywx+W47rCPt7cYRxG8KWIoawVxhCuaRhzMp4hqYlDaMHuPghJmarzVc3m/0LTk8SsIpzkmCjhYi2nJwjXLcWRxjnEqwfBkuwMoZwSd4QBkuwlr0tDKFc0mDl9D2gKV+xZhTi4w4T7tW+Yk0RsAhYNijQluM6wg9whJoM4aAwhFZ7cg5qClisGYX4qHLO/TJfMNFHrGMELCgDvy3HdYSDOML6j7j/qNCIuzSE6Qes1uG8IUw/YJntybnFmlFoUvZWNeF+gQ+YZoqARcCywLeFh7ByjnC4F0eYqCEM1+SsfkcYQm8Ey8jxO3GYNaPQpFQ1536N7xc8Yp0hYEVxmlyjBq8tZ6NwhO/iCGMYcS/BEC6dC1ibhSGUI1h3jZyOqnpyRie4riBGZplwrwUnCFgELP18Fz2ElXnC2hzhCH/x4PwT1r33hhzhD3CEdTWEfcIQyhGsq0bOxqOa8tU+7iqIle2V5qu/MeEe4sZmAqMAACAASURBVHgSj1gnCVhQDhFtOTlH2NebfsLCEcZpCIMHrAcenH/AyhnC7s6wIVzjj2DtNnI07mPNKDQvVz5kwt2qJyRgQVl4bTmbXEe4owNHGLshDC/BemRFzhC+Igxhl9GeHFVLGlgzCnGzlwn3WkWsKQKWxzlijR4KtOW4jnB9lCP8OY6wfjU5uYAVqslp3SYMoRzB2mvkVFS1pIE1oxA3X1c2536JL1dAFE4RsAhYioloy8k5wm0V/4+QJ6xyDGHwgNXijbjnDGFrvzCEVntyZjTlq8PcURA3Fc25f893S/4Z6zQBC8rCa8sRjrD/zcAR9uAIkzWEj7/nGsKXdhrtyVG1pOEWFxTEzlgFE+5X+GyRz1gnzhCw8pBqFOG15WxyHeG6DTjC2A3h4kKG8HV3CdaaT0S+svILV9eShiNcTxA7uz9kwr3GGWt66gwBi4Cljqi2nJwj/EA4wlU4wmQM4ZD7gOUtabByAh9RFbBYMwoJsJcJd5Mhi4AFZeK15QhHOIgjrK8hXLSAIVw1bwjTPTmOIZRLGqxseVa1pIE1o5AEZc+5M+Feasg6Uc+Udc5CwJok1Sji2yJDWOknrOEOHGGdH7CiDGF72BBuEIbQ68n52sYJOKEqX7FmFBJhlgn3esesSQIWJI/XlrNJOMIXxK5RHGHdDGFETU7GEL4vDKFc0nDdyNl3SFXAushlBIkwxoR7HDmrxkHLRMA6RarRhNeWIxzhCI4wVkPo1eTMG8K+3BKseUMoR7BuGDn0LqoKWAe5hSARdjPhHl/QOj49PZe1TkxNnTkzWVXe2kXAgjLx2nKEI+zDEcZXk5MxhEsyAWtlYAifzBjC7q3CEMoRrNtGDrtx1owClDXnzoR7jfPW8SBvpQMXAQvqSlRbTtYR7ujAEdbjAas8Q/iCMISyJ2e7kTNYV08Oa0YhKcqYc2fCPYbElc1cxULXpImAdYxQowmvLecJ4QhfK+oIF+MIa2MIvZqcwBA+tnTpstbWEbcm5yV6cmrBHi4XSIqrpearO3yr+DNXOm95YYuABeXjteUIRziEI0zKEOaWYPX0C0Moe3JmjRxce1gzCpC5w3cy4W4iap2YyqasUwQsKJuotpysIxyozBHyhFW7mpzW5zvdJVheT46RQ3hCVU/O6CHuD0iMEufcv+BLaUhZkwQsqAi/Lcd1hM++mnaEf0ilXEfYXswR8oRV6RKs+8M1OU8FS7Ba1wtD+JDIV3fO2jiodC1pYM0oJMndUvLVN0y462AuYtkIWCfJNKrw23KEI9ySc4Q9GUf4xsNP/bKwI/TG3O/hCauCmpwHZU1Oz1DIEK4psKTByv+4j6rKV+PcGpAgJc25z/KdtDB9jIAF5RPVlpN1hIM4woRqcrKGsGdAGEI5gmXlf0a6enJmuDMgSa4y4W6KLwlYUD5+W47rCIc7cIRx1+SsDNfktHYIQ+j15Jy3cUDpWtLAmlFIloXn3JlwJ2ARsIwj23LGNglH+AKOMIElWCFD+IEwhHJJw00jB5SuJQ2j+7kyIFEWnHPfyzciYJXJaSKNMqLacrKOcKSjt9dzhMtxhOXmq3INYbYmp3tQGEKrPTm3dK0ZZcYdEuYuE+6G+JyABRXwhTeE5TrCPhxhzIaw3TGE3VvdJVhme3J0LWlgzSgkzQJz7ky4E7AIWOYRbTl//2M+YGUSVudzOMIEa3J6XnRrcl6SPTljRn7n7tdlCI9yY0DSFJ1z3873IWARsMzzP9GWM7bRdYSPvpZ3hOknLBxh9Q9YhQzh/RGGcLMwhHIE666R8+mIroDFmlFInLN/is5XHzLhTsAqn3MkGm34bTmuIxzCEcZZk+Mawp7uPmEI5QjWVSPnk64lDaMHuDEgcW4z4W6GrwhYUAn/jV7UkElYAyU5wvtwhNXU5EQawlSnawi9EazdNo6nCV35ijWjoIHIOfdvvubjELAIWA1AZFtO8IT1zKuZJywcYUw1Oe3Lc4awtbX7d9klWIEh7KInpxbc4sIABUTOuTPhTsCqCAKNNgq05biOcAuOMD5DGF6ClTaE24QhlCNYVkzCDGtGATxuFM5XY3wZAhYBq+EXNWQS1iCOsN6G8Ke+IZyvyWnrF4ZQ9uRY+aU7zppRAI+IOffdfBltfEbAgoqIbMsJnrCGnwscYapUR7gIR1itIXxs3hD2vuc+YHXttNmTo2xJwyhrRkEHt5lwJ2DVkEkCjTa8tpwnhCN8WTjCJ3GENTWEwYj7XMCSNTndbwlD+InIV98bOZ2ULWnYx30BSrjOhDsBi4DVyHwXPYSVSVgjOMIYDeGKsCEcdJdgeUsaLhs5nfboClgXuS9ACef/woS7BWzkq12nyDN2hrCCJ6w+HGFshvCRrCHM1OS0DQtDKEewrtk4nJQtaWDNKOjhBhPuBCwCVgPjteVsdB1h59oIR7gSR1ixIQwesFq8JVghQ9j2at4Qrim0pGHMiEtQtqSBNaOgh7P/ZsKdgEXAaly8tpwnhCN8HUdYS0O4qGRD+L4whHJJw3Ujh9NFXfnqMNcF6OEaE+4ELAJWA/NpVFtO8IQ1hCOsryFcHDaED+cNYZ8whHIE64aRw0nZkgbWjIImrjPhrp7/GAlYx4gz+vDachxHuCbdljMXsH6NI6y5IbyvqCFM7RCGUPbk3LZxOB1QZgiPcF+AIpw596t8DwIWAauh8NpyNrqO8Jl3cITxGcJVgSHsbntZGMKHRL7afsHG4XSQGXeAaEJz7mPH+RwELAJWQyHbcsY+Fo5wi3CEj+EI62EI28OGsKe7bUQYQqs9ObdYMwoQTWjOnQl3nXxJwILaLWoQjnAw7AhXzzvCp3CEZT5glWIIMyPugSFM9+SEa3K6jPbkTBxmzShAEXJz7nf5FgSsajhJmlHIt0WGsNJPWMNrw45w9VIcYekB655IQ9jiGcLljiH89W/mH7ACQ9jl9eRcsXE2aevJYc0oaOMmE+4ELAJWo+K15WwUjvAVHGF9anIyhnCJYwifzBrC14QhlCNYd87aOJuOKgtYB7kuQBnBnDsT7gQsAlYDIttyPhKOcARHGLshTA0JQ2i1J2cfa0YBinM5na92MuFOwCJgNdkQVvoJqz9whM8HjnApjrASQ1i8Jqc9W5OzNLMEKzUgDKEcwbpk42jStqSBNaOgj8ycOxPuavncSMA6TZjRSHRbzrwj7NywkCO8H0dYgSG8N2cI5RKs7ra1z7qG0OvJOW/jaNK2pGEPtwXo4xoT7gQsAlaD4rflCEf4uusIl+EIK1uC9eNiS7CWh2tyUlvcJVjekoabRo6mGWUB6yi3BSjkJhPuBCwCVoPyaZEhrPQT1hCOsN6G8JGsIZyvyUkNigcsqz05ypY0sGYUVHJ+lm9AwKqWc2QZlRRuy8k9YT06sBZHWC9D+EABQ9jWltrq1uRY7cnRtqSBNaMAUCZfEbCgCvy2HNcRPvNicUe4BEdYtSFc4RjC3wtD6I1gGenJOaIsX41zWQAAAQviw2/LEY7wfRxhXWtyVoZrctKGcLMwhHIEy8pErLYlDTNcFgDQmAFrF1nG0qKGvCMcxBHWyBAGD1gt3hIs1xD2CUMoR7CM7CSc0GYIWTMKAAQsiBO/Lcd1hFvX5hxh2wKO8CfN7ggjDeGiBQxhviYn9XinMIRyBMvIzpxD2gLWfi4LACiPzwhYUA1+W45whK/gCOM0hL8VhtBqT85FbWtGmXEHgEYNWJNkGZ0UbsvJO8KRUh1hS7M7wsprckKGcJtbk9P1kQhYe40cTOPKAtY+7goAIGBBwkNYriPsxxHWzhC2eIZwuWsInx8QhlD25BhZmqOtJ4c1owBQNlby1a5TRBmd+G05riPs3FDQEa7AEVa4BCtsCNvDhrBnLmB1rHMNYddOenJYMwoABCwClkG8tpyfCUf4VgFH+DCOsIaG8I2sIUyl3haG8GORr743ci7t0RawDnBXAAABC+LFb8txHeFQpvD56f+zdza/UV1nHFYLoSmlIbEpiLbBWKhSaD0qUAdqGmNjFyM+GyRsBCUeZAzyR7GRFxAB6sYCtZiKdBFlZ4s/ACxZYmF5Y7FgESWACMF8yCBQwFVVaGmq9AMSdWY8M77nPXfu3LkeM+fMfR5vLORsovE5P53n9fuL4AiD1OS4GcLX3QxhYsS9umOVwxDW60sa7thxLA2Z1pPDmlEAIGDBy0a05XzYIxxhO44w74awJBGwlicN4cq0IWw+JAyhHMG6b8exZNyShgmuCgDIkYfWBKxLJBlDEW05Hxz7ufqEtaY2gyN8C0eYJ0OYqslZ1iQMoVzScOqWHefSqGkBa4S7AgAIWPCScWnLUR3hfhxhYEPougRLGsKKtCFsEQ9YsifngSXnkmk9OawZBQACFhi2qCGWsDqSjjCCI5y+IUw+YMUClqzJiRvCVhGw5AjWIzuOJeOWNPSyZhQAcuU6AQumi9aWIxxh1y5fjvD7oXaEGZdgvZKlJsdhCKsjR9QlWFpPzhM7jiXjljSwZhQAijhgXSbImIrWliMC1urfZnaEP44FrAWaI/xW6BxhXmpyqjeIB6w9Il8dvmnHsTRhWsAa46oAAAIWvHz+4bWoIZawjvpwhPPD7QizGcJZqiFMjbiXKzU5zd3JgLU6wwiWLT05pi1p6D3PVQEABCwwYAhLPGG1pR1h9U9whPk1hM6anOY2YQgt7ckZMG4EizWjAEDAggKgteWIgLV+0653qrZHszjC74XYEebHEEZ3qIZQ68m5a8epZNyShmFuCgDImWvWBKxPyDHG4tKWkw5YiYT1rsMRbnwzV0cYgies4EuwnIZwq7oESxvBenrFjlPJuCUNfdwUAEDAgkKgteWIJ6xOHGFAQzjHwxCWCUMY6RSG0NaeHOMMIWtGAYCABQVBa8sRAat9U6ouB0cYzBDO0wzhCqchbEwErHZhCOUI1m07DiXjenJ6L3BTAAABCwrARa+2nHjCWrUXRzhTNTkVqZqc5l1rVEOo9eTcsONQGmfNKAAUAZ9bE7A+I8eYi96WI56w9uMIc6/JmS1G3F9zq8lxGMKDDkMY/x//e5GvHltyKA2yZhQACFgELPC1qKHVyxH+aOHCcDtCvzU5CUNYkghYy5OGcGXaEDZHOoQhtLQnx7wlDawZBQACFhQIr7aceMLq2oQjnBlDWJo2hJEu1RBqPTn37TiTRowLWKwZBYCiDlgnSTEGo7fliCesnU5H2Igj9GEIXZdgSUNYEQtYk0uwIuvEA5Y2gmVJT06fcQFrgIsCAHLnKgEL8sFjEbDkooZuT0e4ONSO0K8hTD5gxQKWrMlJGMKjImDJEaxndhxJ5i1pYM0oABR5wLpIirFoUcP7whG24QjzX5PjMITVzZE2dQmWNoJ1z44jybwlDawZBQACFhQMvS1HfcJa34QjnNGanEh0vfqApY1gnbbjSBozLmCNck8AQADsyVcnPybFGIzeliMc4bs4wvyOuJerNTmRzZOGMD3ibmtPjnFLGlgzCgAELCggXm058YTVmQxYDU5H+FNfjrC4n7Be9bEEy90QKkuwIp3CEB4XAeuMHSfSOePyVe857gkAIGCBMUNYPcIRTrbluDrCFcmA9YabIyz6J6yclmC51eRMBqyGdmEIZU/OF3acSOeNy1eDXBMAQMCCwqG35agBa8k6xRE2phzhr9wdoTbm/p1ifcLyPeKeuSYnbgjf+aW6BGvpMTt7ciaMC1jjXBMAEICHFgWsS4QYk/Fsy4knrBYcYVBD6KMmJ3JAGEK5pOErO06koWHWjAIAAYuABQ70thz1Cas17Qibly3DEea1Jqc60tAhtozKJQ137DiRzOvJYc0oABCwoKCItpwP5aKGriYc4cwYwnhNTuUhYQh77OzJGTUvYA1xTwBAAK4TsCBP/E0MYSmLGuIJawuOcHpLsDxqchpqpwxhvduShlO37DiR+o3LV/1cEwBQ7AHrMhnGbPS2HPUJqxtHON2anJJMNTkNLcIQyhGsB3YcSAYuaRjlmgAAAhYYtahBDmG1uTnCbSF3hMFqcsqUmpy4IWwVhlCOYD2y40Ayb0kDa0YBgIAFBcazLSeWsHbUTAasKI5weobwLd0QRo+oS7CWyp6cJ3YcSOOsGQUAAhYBC1S0tpwfiCesAzjCXA3hLMUQLliweLFrTU7DTmEI5QjW4Zt2HEjmLWlgzSgABOOaRQHrEyKM4fzJewirrhNHmB9DWK4YwurmSGW3ugRr6Qk7e3IMXNIwwS0BAAQsMGwIq0c4wvampgyOsCykjjAXQ/iG0xCKmpzKNmEILe3JGTEvYI1wSwAAAQsKzF9kW84i9Qkr2ZaDI/RpCDMuwZKGsHLtDnXEXevJuWvHeWTekgbWjAIAAQsKjktbjuoIW3w7wtdC4Qj91OS4G0JnTU4sYP1GGEK5pOHpFSuOoyHz8hVrRgEgIJ9bFLA+I8GYjmdbTixhtU46wu2VOMLAhnCFmyHsFIbQ0p6cC+blK9aMAgABCwqPbMvpEY6wqwZHmGXE/bv+anJUQxhtF4ZQjmDdtuM4GjMvYI1xSQAAAQsKjktbjuoIt+AIczSEczVDWCYMYSRS2bRKNYRaT84NO46jQfMC1nkuCQAo/oB1kgBjPJ5tObGE1R3IEc4pUkeY3RDO8zaEjUlDuF9dgqWNYD224zQysCeHNaMAEJSrBCyYwUUN74snrDYcYV4M4baUIUzU5ERbhSGkJydfDHNHAAABCwzgzyJg7RMBa0ctjjBXQ6jW5OiGsKEy2pUyhJMj7lpPzn07TqM+8wJWH3cEAIQhYF0kwJiOaMv5QG3LiSWsA05HuGzjm/EnrLA6wmw1OYohLEkErOVJQ7gybQibYwFrgzCE2gjWLSsOoyHzenJYMwoAgTlJwIJ8orXliCesDjdHuDJXR1iUASuzIZyvG8JSpyE8KgyhHMF6ZsdhZOCSht4L3BEAEIaA9TH5xbohLLmoob0GR6gFrOxLsKQhrIgFrPQSrO1t6hIsbQTrnh2H0ShrRgGAgEXAAne823Lq65b8GkeYoyFMjrjHApasyUkawqr1whDKEazTdhxGBvbkDHJFAAABC4zgf3+QbTniCasl7QgbdEe4PEyO0MUQzs5uCMsVQxivyYluVZdgLd1tZ0+OiUsaxrkiACAgD60KWJfIL+Yj2nJOyUUNrTjC4DU5y91qcrZ3CkN4XASsM3YcRgYuaWDNKAAQsMAU/uq5qKG+rqtmasw91I7Q2xAmH7DmakuwykVNTixgtasj7ntkT84XdhxGEwYGrAHuCAAgYIEZ6G054glrc02T6gjfDuffEWY0hHN8GsKNSUO4aY1qCPccs7Mnx8AlDawZBYDAXCdgQZ55nGVRQzeOML+G8KAwhHJJw1d2nEUDBj5gsWYUAEISsC6TXl4SF2N8GuffKb5M8c8p/pPmvymeP39+77Bg374TTkfYhiOcXk2OYggro9s7hCGUSxru2HEWmbikYZQrAgAIWMQd97iT4MXzFynOvjibYuLsRJy+vv5JBmMMD2cTNc6fcHw39e3NP2r0OJ+wduzN4Ah/Eaq/IwxkCLWanFjAqjokDGGPnT05Bi5pYM0oABCwrIo7St6ZYiJI3Ol1jzse/6R8OyNaRQ9YhxVHeBBHGMwQrnAawsaUIVynLsHSljTY0pNjYL7qPccVAQDhDVgecefLQrzuDGd+3RnO8l8UC9/oCWuR0xF2uDnCipA5wuCGcFvKEE7W5FS1CEMoR7Ae2HEUmdiTw5pRAAjOtfynoKvxrzR/T31l4F+TX5KP4l+CwY/6c3zd6TXudScUPNED1gnnE1Z7LY4wQ03ObPGAlc0QNsQCVusSZcRdG8F6ZMdRNM6aUQCwiqE056YYSHPhgmvg8RN34oFnMMnwcNaHmOHh+M9l+kn3fy7G150w8HWWIayfbcizIyzimpyEISxRDOHKtCFMLMFae0StydF6cp7YcVQNsmYUAGYy7kxxPsXIJKNJxuKMx0kqrDj9/Y6XnWTg8XyRGe71erPJGIL0nyUAgf5JeeA5hFVf14IjzJ8h3CIMoTaCddOKs9HEJQ2sGQWwKe74NloA9nLPZQjL+YTV6sMRlhS3I8xhxF0aworS0qklWNGqbmEIZU/OMztO4xETP8hD3JJA3Jmh1x3iDkAQ7mYZwuqqrZ1yhNVJR1gaJkfo1xAmH7DiAUvU5KQMYVWbMISW9uT0Gfg57udaBl53AMAkRryHsOrrNvtyhK/Pdw1YxfCElXEJ1iteNTllUzU5jcmanKpd76lLsLSenLt2XDgmfo5HCQLEHV53AMAozrgMYTmfsLpdHOEPQ+QIXw1iCF1rcqp+p9bkaEsanl6x4oozcUkDa0Z53SHuAIBh3M4yhNWmO8K3S0PkCLMZwlmqIVy4cPIBq1zU5MQDVoc64m5rT86YiR9j1ozyugMAYBYubTnHkwErkbDeWxfMERbL3xEGM4TlLoZwbbswhHIE67Yd17iJSxoGiTu87gAAmEWf2xCW8wnrYG1N0yb/jnBeBkdo6RNWkJqcDIawVvwN4W45gnXDinx1zsRP8QSvOwAAYBjfZBnC6gi1I/Q2hN/WDOFid0NYGQtYLcIQyhGsx3Y8YJ038UPcz+sOAAAYxpPMQ1iJhHVob5gdYUZDOCeLIVRqchKGsFUYQkt7cib4lQEAAMjO125DWI4nrNUbcnOEs4rJEQYxhCvcDeHaLucSLJeenPt2DFLz1AMAAOADl7YcdQjraIgdYfCaHNUQRqvW7hSGUOvJuWVFwBrgNwYAAMAPelvO4UWxhJV2hK05OcK5ReUIAxnCMldD2K2OuNvakzPKLwwAAIAf7roNYTmesLr2htYR5mQIS1wMYeOUIWxTa3J2yxGse3YErH5+YQAAAPwwkmUIq25raB1hcEO4LWUIlyUN4a71whDKEazTLGkAAAAoJvS2nP+zdze7UVxpAIY1icIQhpgAMQZiwliWFYZg7DBAmIDbBmwIPwlkBDYZCIyM8XS31Rh5YS/QzAWAr8FRLoAgzS7yAq6AlWUwCCMkflZGYsOO0bi7q7vrfKeqT1V1LXyq3uceSjo671fnm1Aa4Xhq/yP0LoTyAqtJWZPjKoTVEfflA9YZUQi77NyTc4fPBQCAYBa8h7CqV1jZWiPc23m5vb0jLY3QtCbnA+cRLFchFI9gHa+syfl2TBRCOYI1bUchfMrnAgBAMB7bcprdB6yfMylthNHW5GxX1uQ4hfDbnPoI1k9yT84LOw5YPNIAAEBAMx5DWEojHE1pIwwx4i4LoXwEq3ePWggt3ZPDIw0AAAT2P+8hrOoVVj6djTBoIayMuG/a0upbCEfFiLvck/POjgusWT4WAACCWjIMYRUupLIRRiuEbUoh7HEKYV4UQvlIw2MeaQAAIGE8tuU0uxvh/otpbISroxRCnzU5hwqiEE7YuSeHbwUAgMA8tuXcVK6wpmJqhIk5YFUvsNZoj2C1yTU5xQNWvyiEXXbuyfmNbwUAgOAWDUNYI2lshJHW5LgL4fFaIZwShVCOYD23oxA+5FMBACC4Jx5DWO4T1mQmfY0w1JocUyEccT2C5TWC9dKOA9ZdPhUAAIKb9RnCql5hnUlfIwxUCJvMhbB4gTU0qRZCbU/OEntyAABInmnDENZY+hph5EK401UIO8sHrJOiELbIEax59uQAAJA8Cx5DWO4TVjZ1jTDCmpzWbnchPO8qhOPqmhxtT85bOwrhbT4UAADCmDcMYX3XX2qEQ76NsHX5gPWZqxGuLR2wLL7C8rjAClIISyPuu8SanKGsKIR27sn5L3tyAAAIZcY0hDVapxG2uRvhuqCNcHViRtzlmpxiIayOuBcPWIPfqY9gaXtynvBIAwAASXTPYwjLfcLKq42wp6NOI5Rj7jY2wgiF0HdNzqFRUQjlIw1vHlhxwLrPZwIAQDhLhiGsQiZAI9yQnEYYbU3OdmVNTrUQ5vfXH8FiTw4AAMn03jCEtf9cqhphI4VQewRrqCAKoRzBWuCRBgAAEsljW06zcsKaqvsf4Y6ENcKghdAZcV8+YLX6F8LMF+oFVpccwZrjkQYAAJJp0TCENZKJ9B/hKjsbYbRC2KYUwsqanKFh9REsbQTrlR2F8DUfCQAAYc0ZhrAmM7G/Nbo6WYXQb03O0IgohJbuyeGRBgAAQtO35dxQG+GZEI2wyfJGGGhNzhrzmpzyAeu6KIRyT84zK85Xv/CNAAAQ3rRhCGss2n+EVjbCyGtyvArhKVEIu+SenEc80gAAQFItGIawspmg/xFa3wjDFML1xkI4LgqhpXtyeKQBAIAI9G05E8oV1oH+1DTCQGtyAhTCK8sHrKETWVEI5QjWoh17cvhCAACIYMY0hHU1NY0wciHc6RTC0gWWUwgHfxSFUI5g3WJPDgAAyXXPMISVT0sjjFIIu92F8Ly7EJ6tXWAVD1hdLXbuyXnKBwIAQBT6tpybygmrkAnXCNfa2ggD/UPYpBXCg1ohLF5gnRgThVCOYE3bMYJ1lw8EAIAo3huGsI6cKjfCQ76N8PNkNMJ4CuEx54CVU0fcu+SenBc80gAAQILp23JuyG05qWiE8RbCS3vUCyxtT84TKw5Ys3wfAABEo2/LaVZOWCP1G2F3QhphoH8IPQvh95VC2F4rhFdFIZR7ct7ZUQhv83kAABDNnGEIa7I/FY0weCGsrcnp3l4thNvUQpgXhVA+0vCYRxoAAEi0WcMQ1tGzadhHWH/EvXjAWlsrhBuUQvh1tRBerhTCEwVRCCes3JPDIw0AAEQ2rQ9hKSessciN8CN7GmG8hfCiKIQtdu7JecjHAQBAVAuGIaxc6Eb4oU8jtOuAJQth5QJLFsJd7kJYvsCaEoVQPtLwnEcaAABIuHnDENaBgeQ3wvCFUK7JUQphVhRCOYL10orz1a98GwAARDbjMYSlnLCuJr8R+l5gfVTvEaxyIdzoFMKeaiEcPKyuydH25CxZccC6w7cBAEB09wxDWHmtER5PYtXYJwAAIABJREFUWiP0vsAKWAi3ykJ4WhRCbQRr3ooD1ms+DQAAolsyDGEV+uNvhHYWQmfE3aMQdrgK4eCYKIRyBOutHY80/M6nAQBAdO89hrDcJ6wjp4I2wnWWNsJohbDNrxDmjtR/pIE9OQAAJJ++LUcMYU0lvRGGWJNTPWC51+SohbDvgFoILd2Tc58vAwCARiwahrBGEt4IQxbCyoi7LIR7SwesE4OjohA2i/PVmwdWHLBm+DAAAGjEnMcQlvuENdnf31gj/HhlX2E1XAiPK4Uwf6T+CJYde3J4pAEAgMbMGoawjp4N1gjXW9oIQxTC9eZCOFionK+cfwjlCNYCjzQAAJAG04YhrLFEN8L6hdC5wApQCK/88Lfi+WrgK/UCq0WOYM1ZccB6ymcBAEBjtG05NzY7J6ziAevPR3OJboSRC+FOVyHsrBbCKVEI/yPOV6/s2JPDIw0AADRI35azWbnCOjDgboTHjumNsNXiRhihEHa7C+F5tRCOiAssO/fk8EgDAACNmjENYQ1HaoR/sKIRRiyEB7VCWL7A6r0uDlhyT84zKw5Ys3wVAAA0StuWM6E2wnyCG6FvIVwVphAeqxywTopHsLQ9OY94pAEAgHRY8h3CKl9hFXwa4cZAjXBlP+YecyEcFxdYlu7J4ZsAAKBh7w1DWEdOhmuEa4pXWB9Y0QgDFcImr0L4faUQtrsLYdYwgrVoxQHrN74JAAAapm/Luak2wvHENsJIhXC7byHs+1EUQjmCdcuKA9ZDvgkAABq36DuEVb7CyjqNcMirER60uRHGUQgvVwth7zVxgWXpnpy7fBIAADRuzjCENTkgGmF7qREWH2qwuxF6XGA1VAjzhhGsafbkAACQGvq2nM3lE9ZPTiO8ltBGGLwQfupVCLe5CmFxxL03Jwqh3JPzgj05AACkx7TvEFb5CmssoY3QWAjX1grhhtIBS6zJUQth/xfqBZa2J+eJFQes23wQAADEYcEwhJVLZiOMuxAOi0Io9+S8s+ORBvbkAAAQi3l9CMvdCI9+c66/P7N8wBrUGuHXIRrhH1faFVaAQrjGpxDuchdC5xGs3hFRCOUjDY95pAEAgBSZ8RvCqpywhtVG2JmMRlj3EaywhXCwt++6KIQTVu7Juc/3AABAPO4ZhrDypUbYm6xG2Egh3OgUwh5XITxleKSBPTkAAKTLkj6EpTTCwkD9RrjDxkYYrBB+4l0It+qFcFwUQvlIw3MeaQAAIFXe+w1hVU5YJz0b4dbSQw22NsKAhdC5wFo+YLWKQthRK4TL56u+rCiEcgTrJY80AACQKvq2HHHAGk9eIwxcCN1rcna0+RbCvsPigCX35CxZccB6zdcAAEBcFvUhLKURZvVG2NFwI7SvELrX5MhCeNY5X5UPWC36CNa8FQcsHmkAACA2c35DWM4J6/BA0Eb4qSWNcHW4Qrhp0+eehXBv8YBVusAaExdYcgTrrRXnq1/4FgAAiM2saQjrWtIaoe8FVtBCeFwUwpzhkQY79uTwSAMAADGa1oewiics97acWiO8csX+RmhckxOyEGa+qZyv/lE6XzXbuSeHRxoAAIjRgt8QlnPCyjmN8IRvI/yLVY0wbCHc4lMIqxdYV8UF1mZxvnrzwIo9OXwJAADEaN4whLXn7/6NcOeXf23zb4SrVuQVVuRCuNNVCDtdB6y8YQSLPTkAAKTPzCs5hLVbbYTDno1w376NdjbCEIVwfYBC2HepoJ6vmuUI1oIVB6ynfAkAAMRJ25azW73CGklUI6xfCH3X5PgXwnP7xQFLjmDNWXHAusuHAABAnJYMQ1iFi0lqhPEUwmO1A9aUuian5d/ifPWKRxoAAEghbVvOhGiEp5VGuNfuRhihEHa7C+F5WQhHxAXWv6zckzPLdwAAQKy0bTk3RCMcl42wp6fD1kYYsRCWHsFyCmG7UggvTIoDltyT88yKA9ZtvgMAAOK1aBjCyno2wm2iEW76rNwIP1nRjTBSIdxepxCeFoVQ25PziEcaAABII21bzk21ER4+V6cRfika4Z9WdiOMoxBerhbC3r5L4+J8ZeeeHB5pAAAgbvflAeuf4gprtNwIXQufbW2E8RfCrOGRhkUrDlgP+QoAAIjbtGEIayxYI9y08huhbyFULrCalDU5rkK4zVUIS2ty+jI/G0awbvFIAwAA6aRty9mtNsJcsRFeCNgIV/J/hKuNhXBtrRBuKB2w3I9geRTCUXG+snNPzq98AwAAxG7eZwircsLac8qrEW6zrxF6XGA1WAjzhhGsaSsusO7wDQAAEDttW44cwhoO0gi3qP8RfrgCG2EDhXCXuxD+UC2EOcMI1gsrDliv+QYAAIjfPW0Iq3jCcm3LEY2w087/CBsshPvUQrh8vro08JV6vtL25Dyx4pGG3/kEAACI35LPEFblhFU4NzCQCdEIlQPWymmEgQvhOr0Qbvw/e2fXG8V9xWEFmioJISoJQTQGHGobKG+yExI1Il7sYjv1mhAwdhI1LraMIX6pbcQFriJZQpVwJQpquUC960dornKViyJFVS+qYEBAgaggIFAgAcFFuWtVz86+zJyZ2ZlZ7+ycYZ/nG4xk//XTec6en6shHBQDLNmT84SeHAAAgKrlvz5LWNt3BHCEmYAVwBGqClguR7A8DOFrbobQ3pPzqqMn52oiAtZp/gMAAAAiwNGWMyAc4WTOEXYm2BEWP4JViiFMTQhDeCiRPTl/5j8AAAAgCq65LmEVEtZwUUc4F7BqG/U7wnIYwmabIUz7HGlIRk8ORxoAAACi4YLPElZrz1PgCIP9hnBxCEM4KQyhPNJwgyMNAAAAVcxp5xKW3REecHOEvb15R1ibAEcYyhAunQtYK4QhbCgYws6MIRwWhlCuYN1ORMD6F3//AAAA0XDcdQmrkLBGnY6wrs7DEXocc497hFWaIVxdxBCmWkXAkj05DxIRsDjSAAAAEBFXfJawRjKOsM90hO/sLOIIl2h1hKUYwnW1q7eu9TCEfan9mXxlBiwjXzlWsC5xpAEAAKCaueRcwtpsDVirunoyS1gFR7jXxxG+oM0RBjSEi4obwi0WQzgmBlhyBetxIgZYX/LXDwAAEBGOtpzfiBHWlOkIt23rLNkRPh/rCCsCQzjic6QhGT05HGkAAACIjL/6LGENWRyhEbAyjvA9wxG+kneEKzQ7wvIbwvY3cobQzFfLk9mTw98+AABAZMi2nIP1dkc43v2JlyPcWMQRGgFLhyMMZwiXLavxNoQfmYZwUAywNot89fBMEgLWX/jbBwAAiAxHW069fYS1/QPjUIO7I2wK4QjjClieA6yghjAzwLIZwlGfFaxk9OT8k799AACAyHC05cglrMmCIzQDVofNEW71c4QxH2oovyFMjdvz1XK5gnUlEQHrc/72AQAAokO25QwIRzjsdIR1GUdoHGoI6wgrHrCeC2kIf+xhCPt3vvNu1hB2/VwELLmCdYGeHAAAgGrngo8jbO3yc4TrFDvCCAzhlDCE0yJf3aEnBwAAoOpxtOVMC0d4IO8IP7I5wtcyhxpsjvBH6hyhe8B6dj6GcEgMsJLZk/N7/vIBAACiRLblHBKOcLTbtfA5EY6wbIYwN8DqS7Ud9lnBup6IIw305AAAAESKbMuZKThCsy3HdIQttj7ChvdWmsfcdTvCkg3hek9DuEsYQkdPzmWONAAAAIBrW45lhLUq3dNud4SbHI7wp0odYQhDuCSAIWzpSxk9ObZ8NZ3InpzT/N0DAABEiqMtZ7petOW4O0J74XPBES62OMKYj7mX3RB+nGob9jGE1+jJmR+f/xsAoKz8KakE+7w/gFr+d9DKQ3MJy+IIh7ptjrC/v6gjXKTIEUZgCNt/JQLWgAhYx44AAIAmLh5NJrPBPu/r34JW7v/OyqmZQ+JQw0RXzhEWDjU0NxRxhC8FcoQJMIS9TkO4T+SrZPbkAABUEbNPd8D6ihyjlru2gPXHmZl6uyPcviuQIzQCljJH6GMIF7obwq3FDOGoCFiyJ+c4TxkAAAGrLAT8vr8RZNTyyJawZmamcyOs7BLWmHCE9t8RrlXrCF1WsEowhB22gDXis4L1LU8ZAAABq5IBC0mol3PCEX4qHOGwuyNcaXGEjdIRyoAVhyOMwBB2b7DnK0dPzjc8ZQAABKyKBiwkoVq+EwFrQDjC1q6eEhzhwtgd4fwNYZ00hFM+Rxqe8JIBACjj6NMesJCEavleLmGtEY5wX8YRflxwhJuEI6zV6AhdBljPz9cQ2ntyljt6cq7ykgEAELDKw83An4gk1Mo9sYS1RzjCUcMRplJ91mPuFkf4ps0RqjnmXoIhbPQxhO0TwhAmsicHAICA9XQFLCShVm75HGoYCeQIa7wdYSzH3Es2hO97GsIdPkcaktGTAwBAwHq6AtaRvxNldHJSBKzP6s2EVWjLyTvCfMBqzhQ+ezrCF8wR1jPxjbCiMISTwhDKFawbPGQAAMq4mdiAdT7EV35BllHJf06JJaxpMcKacnGEdXW6HWE5DOHevCHc1tKXamsfFoZQrmDd5iUDACBgxRCw/kGW0ckJsYQlDzUM2RzhXMAqOMJXDEdoHHNvzAYsLY4wAkPY3ioCluzJecBLBgBAwIohYCEJleJsy7E7wokub0e4sYgjXODqCCsSsEoyhLVFDGEq1XZAGELHCtYlXjIAAGWcr46AxZ67Tu6KgFU41GAmrNd3ZR3hNsutUd2OMApDOCoGWLIn5zEPGQAAASuWgMUxLKU88lnCGjMdYZ/hCM2A1bF3LmDN1xHGZwgXlGIIR3yONNCTAwBAwCobZ8N9KMewVHLOsYRlJCxrW0628LnFfqihN3OoQaEjjMIQ9rwhDCE9OQAABCwtAYs9d5W4teVYR1itXV2ZwmdXR9iUcYTrVDnCKAzhoBhg1Yt89fAMDxkAgDbOVkvA4lSDSrzbcrIjrH0FR5gLWKYjLBQ+r7MVPsfsCKMwhEM+K1j05AAAELDiC1j8kFAlzrYcuyMcLeoI1xcc4dKllmPuL8ZV+FxGQ/huzhC2jxcClpGvNssVrCu8YwAABKyycTHkl/JDQpXcEgHrkM0RGm05piNssd0azRc+a3OEURjCtBhgOVawLvCOAQAQsGILWKy5q8SrLSc3wtqwwzjUULIjfLbCjrCoIVxgGsKXQhrCSRGwZE/OHZ4xAAACVowBi0sNGnFpy7E7wqmcIyxa+LzCu/C5ko4wEkM4LAwhPTkAAAngYvUELH5HqJITrocazIRltuV02xxhv90RrhWOcFGsjtDdEP5gXoaw/bAwhHIF6zrPGAAAAat8zIb9VJawVOLVlpMbYU2k846wcKihuSF/zN3pCDUELHdDWFIP4a/lCpbsybnMMwYAQMCKMWBxqEElsi3nszVzCcvelhPEEdZ4O8LKFT7P0xCuzBnCnVZDOCYM4TQ9OQAACWC2igIWhxpU8sh1CctIWLm2nHzhc9YRbhKOsNbDET5T6RFWJIZwRAyw5ArWNV4xAAACVjkJ/a1suavkXJElLCNhDecdoeVQg3CESg41+FwZLckQ9vxCBKwBEbCO8YoBABCwYg1YbLmrxNGWIxzh7rR5zD2II1wSqyN8LsgKVlhDOCgMoezJOUhPDgAAASvegMUSlkq+FwFrZo1whPsKjrDT4gh7e70dYTyFz5EYwlExwNojAtZxHjEAAI0craaAxRKWSu6JJaw9whGOGsfc21N2R5grfN6YOeauwxFGYQg/Gfc50vAtjxgAAAGrrNwM/bE4QpU42nJE4fOIzREaAWtL9pj7W3MBq8k81NC4IrQjTIQhTL9tN4SOnpxveMQAAAhYMQesI4QZjZx0O9RgJKxCW47DEe5tzhc+q3GEpRvCJm9DOCUGWPJIwxPeMAAAAlbsAQtHqBF7W84p66EGM2FN5RzhNsut0ZwjbFLjCCMxhEM+Rxqu8oYBAGjkZnUFLByhSk6IJaxPhSMcyjpCo/C50wxYHYXC5ya/wucKOcJ5GsK3XA1hz4QwhPTkAAAQsCLmfPjPpS1HJfedS1g2RziRzh1zb7EfagjiCCtW+BzJbwh3iQFWPT05AAAELH0B68jXpBmF3PVawsomrNf3G46wrc3pCM1DDetF4XM8jtDHEC4oyRCO+axg3eANAwBQyfkqC1gcc1fJI58lrDGLI8wFrIIjfN/PERYCVoSOsFyGsN9mCIeFIZQrWLd5wwAACFgKAhaOUCXnnEtYRsKytuUEKXxeUbNs6VL3wufoHWEIQ5gPWNIQNktD2LPbPsBy9OQ84A0DACBglZmzpXwwvyPUyHdiCWtAHHPfnQ5f+FzpQw2lGcLVb5pHGjwM4QG/FaxLvGEAAAQsDQGL3xFqpEhbjpmwBtMux9wthc8KDjWUYgjXuRpCS9GztSfHGGDJnpzHPGEAADo5W20BizV3lTjackTh82igwuc4j7mX1xB+mDWEI8IQ0pMDAEDAUhqwWHPXyC2vQw2v5ttyvI65+zvCiixhFRlg/dBiCBdnDeEypyFscBrCrlUiYNGTAwBAwIqci6V98hfEGX2cFAFLHmrYsEP7MfdIDOGUMITySMPDMzxhAAAELCUBixGWQpxtOeKY+6TnMXeXwucYDjVE8xvCITHAoicHAICApTZgMcLSyAn3Qw3LLW05hiNMBS58XlxZR+gesLwM4VzACmIIe8Z9VrCu8IIBACjlYhUGLH5IqJD73ktYmYQ1kXZ1hA1WRxjimHt0AcvHEC4KYwh3bLcbwnq5gnWBFwwAgIBVdmZL/WhuYenDry3nl/tDH3Ov5BJWAEP4YrjfEKba23smxQBLrmDd4QEDACBgKQpYnHNXyCPnEpbtmPuY1zH3XvsxdyNgvVzxQw3RGMJhnxUsenIAANQyW40Biz13hZzzWsLKJqzhdLbwOX/Mvb9DHHNfLQ81ZEdYFTjmXqohXGs1hCJg9XQfFoZQrmBd5wEDACBgaQpYXBvVR5G2nEzA2p3OHHPPOMJObY5wvoZwpashPCAGWI6enMs8YAAABKwIKP2zv+KXhNpwtOX8RDjCwWCFzzVxOEJfQ7jQYghfDmoIx3xWsOjJAQAgYCkLWKxh6eOeCFh7rCMssy2n2+4It3RoKXyOxhCOCEMoV7Cu8X4BAKjlaJUGLG41qOOWWMKShxrG3RyhjsJnT0PoOONeMISNvoaw62fCEA6IgHWM9wsAgIClLWCx6K4NZ1uOvfD57Q/UFj6HNoQ1QQzhoM8K1kF6cgAACFiRcHNen841LF24teXYCp8nLYXPH6oqfC5qCJ/xMIS1foZwVBjCPSJgHef5AgAgYCkMWCQsZZwQAUseahj6P3vn1lrVmcdhnDJDVaQanYFRh5ZEd207wpTRivUUdapjsmuiGMVDrcQ9MYcmkV40UBByYy7EgnPhV+g36CcI0gsZc8CIB1DMqJS2Sr3xYq4ma699eN//Wnud37XXSp7nG2RfvPxYv39+T23MvRKwNOFzMztC5wes5UEawr97N4TD4gOWHGl4xvMFAJBZ5pdywCJhZYufHUdYekc4UtQ6QitgiY7QW/hc7wgTDlhhGsI1gRvC4gERsKQn5xHvFwAAAcsIs3H/fBJWlvhJHmG1CuFzn9IRJil8NtwQ/s6vIezZ3LbnvKMhHBUNoRxpeMPzBQBAwMpowCJhZYrfGh9hlRPWkLvwuS2i8DmxhBV0pOGdd4I0hPsqDWFJfMCSIw0Peb4AALLL7BIPWCSsLDHjOMIq6LacoiJ8PpKZMfcAM+5BGsKFgFXOV+3nyg1h54jPCRaeHAAAAlZ2AxYJK0M4bTl6R3isWBtzb/cTPq9Lb8w9SEO4InRD2K2ONCzkqwKeHAAAAlZKTCfxE5CwMsOvImBNtIqOsLcqfNY7wtqY+4dNET6baQiHxAcseYL1lNcLAICAleWAxeJodvC05SwErMEOpSPMivA5fEO4sUFD+KnaEPb7nGA95/UCAMgw0wQsrDnZQdpyLhV04fNwMYTwOa0xdzMNYecxvSF0eHJe8noBABCwsh2wxid/INtkAndbTv0T1ifdGRQ+m2kIL4oPWI4TrHu8XgAABKyMB6zxyf8QbrKAbsuZcA41jGZP+ByxIdxVawgPWw2hHbCUhnBQBCzpyXnN4wUAQMAyxVxyPwSn7pngO5ehBnXMvZS9jtBjxt2vIfxro4bw7PHOAdEQ4skBAMgVcwSsCpy6ZwF3W041Ydm2HIfweWtQ4bORjjB6Q2idYLk1hP/47ERnx0f6Byw8OQAABKx8BiwSVhZobMuxP2Gd6bM7wuwIn6M3hJ97NYRjPiMNr+7weAEAELByEbDGb3Pq3nycthy9IxzShc+7dx5VOsK1/sLnesBabjJgKaJn/4awzaUhLImGUJ5gzfB2AQAQsIwxleyPwal785lxPcKyE1bVlhNO+LxSHmElK3yO0hBu8W0IO4dFQyhPsB7wdgEAZJopApYKNWGz+UUcYV0QQw2WLSeU8Hmld0cY9wgrRENYC1j1hnC91hCeqjeE3Qd9TrDu8nYBABCw8hOw+IjVbFxsObrwuddF+HzId8x9hakjrGgNoTrj7toQjoqGUJ5gveDpAgAgYBnEwC/CR6zm4rTl6MLnwUpHmBHhc7yGcLtsCNsrDaHlyVE/YOHJAQAgYOU8YPERq7n81+MIy0pYww06QnXMPUXhs4GG0Bpp2O9zgvWEpwsAINtcJWDxEStT/FscYX0rOsID3eGEz2aHGgI2hKtCNoR92kjDpk2bpCfnPk8XAAABK3cBa3ySXfem4WLL0YXPo1kac0+oIfxSawiPVzw59Q9YV/DkAAAQsNJk3tTvcpuI1Sy+8+kIS3ZHmLzwOZmGsEHACtAQHqk3hAOiIZQnWI95uQAAss08AYuvWBnjZxGwvhZj7iPF7AiffRtCZca9xQpYwRrCjh16Q1i4IALWNZ4uAAACVk4DFhGrSfzkdoSldIRn+oJ1hBv9O8LkApZPQ7hSNITvOxrCT9WGsFc0hK0iX13GkwMAQMAyyqzZn4eI1Qx+a3CEVRU+D8USPic65h74BGu1JnquNoT6SEO9IRwUDaH05Fzn5QIAIGDlOWAtRKxbCArTZsbnCGug6Cl8/ji9jjCM6LncEG6QDeFmZ0O4ELCGRUMoRxqe8XIBAGScWQKWL7fYxUqXX0TAutCqC5+/KDqEz9u2VYYaFOHzB0L4bDJguX3AWmZ/wGogeq43hCJgnTje2VXx5FQ/YBWkJ+cRLxcAAAEr9wHL+oxFxkqRX2+42HJU4XNvaOHzKjPC5ygjDe+WRxpcGsKT1Yawc1Q0hHKk4Q0PFwAAAWsxBCwyVhNtOROqLcf+hDWYEeFzmIZwTYiGsKQHrIIcaXjIwwUAQMAyy3SKvxXnWE2z5Ygx9+FiJOFz4h2hx0jDssai53pD2OPeEHaMiIYQTw4AQO6YJmCRsfJhy1GEzwe6QwifW8wJnxNvCPeWG8I+0RAW8OQAABCwFnfAGmfivam2nOonrNHamHsI4XOQMfe3DYmeKw3hRteG8OjO3VpDOCQaQnmC9ZR3CwCAgLXoAhYZK21bzoSzIywV3YTP1ph7T4pj7jEawuqM+57zLg1hfzVgVT5gyROs57xbAAAELMPMNedn4+Q9dVuONuY+0pUF4XP0htA6wZIN4b5qQ9hxTDSE0pPzkncLACDzzBGwImcszrFSs+VoQw1WwuqrDjXsFWPugYTPCQ01BG8IVysN4a5aQ6iInq0PWOcqDWGvaAgdJ1j3eLcAAAhYizZgjVMVpmnLEcLnoQwIn31Fz/4NYZtbQzgoGkLpyXnNswUAQMBa1AGLz1jp2XJERzggx9y9hc+rHR1hkgErREO4JUBDOCAawkt4cgAACFhpM9X0X5CIlaItpzbm/kVX88fcwzeEH2xRRM9qQ3hKaQiLH4mAhScHACCHTBGwYnObg3ezthy3I6yx+ph7Y+FzgzH3ZIYafBtCVfS8bt2f7IZQHWlwNoRnj3d2jNVPsMr5qlXkq1d3eLYAAAhYSyFgcYyVhi1HCJ9LTR9zD9oQrhQNoSZ6rjeE7XutE6zOsidH+4AlT7BmeLUAAAhY5snI7zhJxErBlqOMuQ93NRxz/0s6Y+6BT7ACNIRH9lVFzx0dI6IhlJ6cB7xaAAA54CoBK6mIdYtUZMqWc1Oz5ZQT1sHuBsLn2GPuBmbcW6yAtTGA6Pl4Z8dX7+kNoeME6y6vFgAAAWsJBSz+pTBZW8734gjrihhzH3Udcz9fPcIyPtQQZMY9QENYC1h7KyMNZU+O8gFLenJe8GgBABCwllbAGudfCk3bcpShhv64Y+6/r3WE8QJWEqJnpSHs9xlpwJMDAEDASoP5jP2g/EuhaVtOJWF909VozL2nx3PMPaGhhtCi5wANoTXSsF8JWFZDKE+wnvBoAQDkgHkCFhErB7acm9ZQQ6vDllMbc3cZagjdEYYLWDFEz2urouetLjPuF+2RhtoHLDnSMHGfVwsAgIC1JAPW+Pgksw0J23Ju1Icaah3hoBxz33nU7ggPWx3hWqsj3CXH3JM7wkq0ITzZXptxHzztPdLwlEcLAICAlQazGf1lb//Ih6wEbTkT2lBDecx9wG/MvTbUsMHAUEPohlCInu2GcCFg7dYbwgHREMoTrMc8WgAABKylHLDsD1ncvBuy5SwkrH92+Q01NBxzjz/UkIDoeY+b6Lm4Q28ICxdEwLrGowUAkAdmCViGP2TxHSsRW07lCEsbcx/TxtzVoQb3Mfckhxo8T7BiiJ7HREMoT7Au48kBACBgEbDKEYt7rARsOdoRVmXMvRR3qOEP0Yca/E+wVgSdcT+iip5LWsAqOE6wrvNmAQAQsAhYNmy8J2DLkUdYCwlruNIRakMNcsz93YZj7rGGGsLMuK9zm3F3Fz0XhysBq9oQypGGZ7xZAAAErFSYzsPPjKkwGVtOq8OWUxtqUI+wYg81vB1zpOGt4DPuuui5+6DeEDo8OY94swAAcsE0ASsduMUKz//QJTZiAAAgAElEQVS+F0dYV8RQw2jRqyM0OdQQcaThfWWkwVX0PCpOsKQn5w1PFgAAAYuApUFPGMuWc8NlqKHffaihzfxQg4kZd6sh7BeiZznS8JAnCwCAgEXAEh+xSExxbDkTDWw5oYcaVsQfajA14178Rhc948kBACBgNYu5/PzYJKwEbDkF1ZZzMdBQQ/JHWHFm3Nd6zLj3nREjDd/iyQEAyCdzBCwSVg5tOZWhhsGAQw0bGw01RDzCCjTSsEodafhbfaRhe2WkwZpxF6LnITHScAVPDgAAAYuA5Q93WAnachYSVt2Woww1bN1q23LchxoSOcLym3F3HWnQZtzbXGfc+8VIgzzBes6LBQBAwCJgucD/Eka35UxYtpxWYcvpqg81nDzpGGrwsOW8FeMIK6GRBmXG3R5pKB4TIw3Sk/OSFwsAgICVElO5+r0nCU2GbDl2R1gOWIca23KSGWqIcIIlZ9xrAUuZce/o9fHkTNzjxQIAyAlTBCw+YeXTlvPHui3nRDlgtUe35SwP9wnL1EjDoBhpkJ6c1zxYAAAELAKWK9y5x7LlfB3AlvOlcVuO3wlW1JGGATHScAlPDgAAAatp5OwX/4HUFNWWM+Fiy/nK3ZazZ3NcW07UE6wYIw1dn+DJAQBYLFwlYKUM/0ho2JZz1O4ID9u2HBNHWIFPsFY3PMGqenKOKCdYxTEx0iBPsF7d4cECACBgEbDc4cy9SbacP/vZciIGLM8TrJaW6kiDeoLV5n6CVfI5wZrhvQIAIGARsBrxI6kpVVvO+162nEhHWFE8Oc6RhlrAqo00jIiGUHpyHvBeAQAQsNJjPmc/OWfukW05Ey62nL7yEdbZFI+w4nhy1ssTLLsh/MwaafjXez4nWHd5rwAA8sI8ASt9WGqIasu5qQ41VALWYNHLlrPW6ggTPsKK7Mn5WHhydofz5LzgvQIAIGARsPiElbwtx+0Ia8D9CGtPhCOs5VEClvcJlurJ+RBPDgAAAYuAZRCWGmLZcgrCluM4wjK8hJXYCdZu/QRrv88J1hPeKwAAAlaKzObuV2epIaYtRw1Yp8dSXsIydYJ10c+Tc5/3CgAgN8wSsPiElSNbjnKEVQtYJaEjrC1hRTzCih+wgp1gqSMNJzRPjn2CJUcanvJcAQAQsAhYnnCFFdGWc0MfaigHrOHGOsIep46wxUtHGOjKPeQJ1oYAK1g1T47XCdZjnisAAAIWAcsb/pEwji2n4LDlSB3htpBHWGGu3E2dYO0QJ1gXRMC6xnMFAEDASpPpHP7ufMKKY8vRA9bpUeUIyw5Y9tRom3qEtcX9CGtZ+I4whohwvZuIsHKCNeZzgnUZTw4AQI6YJmA1B+bco9lyblaHGpSA1V87wjpnHWHZAeuQrSNc76IjjHflHktEuF0VEZ7SRIQlEbDkCdZ1XisAAAIWAcsPjITRbDnaEVYlYJVtOQ2nRuUR1hrnEVaoqVFTIsL/s3d2vVFcdxwWCcVuSlBQkiZQsrhFFMrGLTh4Ce9hNxDMq6MGXFxKLXCpva7tiAtsGUKvsKoolZyLfoFe8A3yCVCUi0gxQXGUgJQoFKJWVSLlolx35/2c/8zszszOrndnn+cTJF509GjO7/x+k2KIUJY0POS0AgBAsBCsmlDVUMdajl41aqzleFWjZ/Wq0eAQVh1Vo+E3hKtCI1gbRQQrIOM+WDIFK3wn5z6nFQAAgtVUltrzT0/OPfFajgxhTdTae96W4t5zggjWVjOCZQiWjGAdPH/gwGEz4z4tbgjlTs5jDisAgHZiCcFaLrgkTLSWY4awhGCNN7FqNEHNqBfBWq9GsPYNKRGsYzKCJUsa7nFYAQAgWAhWFLgkTLKWs+Cs5SiCdVRUjRqCZYaw3ki/atQvWKERLEuwZARrsz+CZWTcp0TNKDs5AAAIFoKVDC4Jk6zlqCEsW7CMtRwn5f5akpR7WNVovTWjWgTLybjvD6oZvTysZ9x/McdODgAAgrW8LLbrH59LwsRrOSLlXg5KufdWS7knrhptRM1oRbAmhvWM+zvs5AAAtDWLCNYywiVhgrUcQ7CuiBDWZEjKfVO1lPsaR7Bi3RGmXTNqZ9zHakSwHnFWAQAgWAhWVLgkjL+WY4Sw5oRglQablXKvq2Y0OONu9ri/KQRL7uR8x1kFAIBgIVhR4ZIwwVrOvFnUoAnWueljsbrcn0ldsOrMuF8cFoIl/Gr+c84qAIC24mYWaOO/P5uECddyhGCN6s8IU+tyb0DGPbDHvSwES+7k/MBRBQCAYCFYMSCGFXstxwtheYJ11U65688InZT7y+l1uUfIuK+JlHHXHxGOq4IVEMH6iqMKAADBQrDiQAwr7lrOglXUYH/CsgRr+LL9jPCA94xQ63LfUq3LPcYdYR0Z9+Ae99eNjPuJnHhEyE4OAACChWDVxe0P0KeYazkBIazhidBnhOmm3OvPuAc9IpypEcH6/hOOKgCAtuJBJgTrQVv/BsSwkq3l6CGscUuwjJS79QXLeUaoptzrF6zYGfcN2y3BsiNYIY8IR2tEsD7lqAIAQLAQrJgQw4q5lmMI1ogQrKMnlGeEQ9ozwn7vGeF29RlhkpR7rIx7RbA2RHtEOCkES+7kfMlRBQCAYCFYcfkIf4q1lmOFsHTBGr4Y4xlhjJR75AjWqtAe941exj3wEeFbxwdLQrBkBOszjioAAASr+dxt958Bw4q3lmM4x2+FYJXdNUIhWGdMwYrwjDDKHWH1R4RPRnpE6G9pmB7WBUvu5HzLSQUA0GbcRbBagds8JYy/liMEazJo7jnqGuGKNASr6iPCHUGPCJ2WhjEhWOzkAAAgWAhWKobFU8I4azmGYM0JwSqe9s09az0Nco0wWco9/iPCKkuE7tTzVSFYMoL1NScVAACChWBhWI1eyzFDWO/ogjU8LYqwGtHT4H9EuFIIlpNxf0Z/RFi1peFyjxAsuZPzBScVAACCtQzcycAvQVlDnLUcwzr+LARr1BYsrQhLmXuOt0bYFUGwqj4iDFwiVFsaBg46gjVh+JUjWAERrG84qAAA2o07CBaG1a5rOdpWzvDwlNM0qnzB8s09Oz0NCdcIaz0i1JcIf/qzkJYGQ7AGvBqs8RoRLHZyAAAQLAQLw2rWWs4vjU9YlmCZhvUXp2nU/YJ1JIWehu6YS4QhLQ2BU8+2YB0VgjUiBOtdDioAAAQLwcKwmrWWI+4IJ1zBOjswZAhWYBHWhopgqc8IY/U0RHxEGK8G66KIYMmdnLfZyQEAQLAQLAyrGWs5QSGsMVWwIhRhqT0NMQWrK3pLg6zB8gtWWQjWNSFY73FOAQC0HUuZEKylrPwcH/OWMM5ajhCsN72tHCFY/c+GCFbcZ4QJBMurwQrpGX1rUgiWLGl4yDkFAIBgIVh1QVtDnLUcIVg9l/xbOXrTaL1FWN3p1GDpgnWsIARL7uTc55wCAECwEKw6DYtO9+hrOdeEYJV9gpVG02h3kpYGV7DUGqxgwZrp0QVLljQ85pgCAECwEKy6+RCRirKWY6jHFSFY4zUFK0bTaFddgrU2qGdUKXJXBGtUCJYsabjHMQUA0H4sZkKwFjP1mxDEiryWY/qVJ1iFY2KM0N7KCaxyt3saVsfpaYhTg1W7yN0WrCkhWOzkAAAgWAhWI7j9IfeEEddydMHqmQkQLH0rZ6sUrKfSFKzVUrDUntEQwTpREoI1x04OAACChWA1yrH4jBVlLce6IXQFa1QXrD/qgqVt5axNV7ACekafW7duQwTBmtYE6/kX2ckBAMgCN7NBFn8aSrEirOW8qDa59/RM1Ras7dUEq8Yzwu4IPaP+Ind9itAnWGOKYBmfsGQE6xGnFAAAgoVgpQhp96prOYZgzf/azbibglU6HVWwlK2c1fEFqytOkXvY1rMtWIeEYMmdnO84pQAAECwEK01IYlVby7FDWLpgTdcWLGWMUK1yX9EwwdpbVbD+VHIFywphCb+a/5xTCgAAwUKwUuUjjKrGWs6s0tJgCNaYVtMQLljPxRGs7kYK1oQjWHYIS+7k/MAhBQDQhjzIiGA9yOjvwy1hrbUcIViHqgpW8NqzEcJaEakIyx/BijBFWEOwxoVgsZMDAIBgIVgNh2L38LUcK4SltjT0lEqXowiWXHuO2jQa1jMaR7BEyP3wq5Zguc8I2ckBAECwECw+Yi3jWo4ZwromBKusjT0HC1bEtefogrUqvmA5Te6XSoZgeT0NMoL1/SecUgAAbcjdjAjW3Qz/RnzEqrqWowpWRVbG20ywykKwZATrUw4pAAAEC8Fq0EcsSkfD13LUntGKrOQOq4LV25qC5Y49nz8wWSqV1J4GGcH6kkMKAADBQrAa9RGL54QO/7slQlg3lJ5RQ1YuSsHaLF8RLpdgrQ8QrN/nVcH6zQu+CNZnHFIAAAgWgtUwPuae0L+WY4awZtUarAqjB84fPDgwNLTHFKwL8QWrShFW7a3nuII1U/IEy/iEdUP41becUQAACNYycif7PxX3hP61HDOEpbY0VJgyekbPGh+wPMHq79cEa11zBcvbInzJFKxeRbBGXcGy7ghn2ckBAMgEdxCsNlIs7CpoLed59RFhqVQ87gjWqZ0VwdpkCdazYUWjzResC5ZgWT0NU0VdsGQE62vOKAAABAvBajBEscRajilY17QIVqk4LQXrzJmUBKs7uWCd1AXLKcI6XrQFy0m5y52cLzijAAAQLASr8YpFFEtdy7FCWFoEq1QcczLup3YeOeIJ1o6T217xxp7rE6yueIK11xasfkOwNlUEy20anbYEyw1hyZKGbziiAAAQLASrGZB2/68IYY1oEaxS8ZAiWL1+wbIz7s0XLLOnwRQsrwhrTBEs4xOWjGB9xREFANCeLGVEsJY66Dfr9ItC31rOC2oEq1QsDqpLOfs3v3Hmpf7161/ecXKLIVjbmylY6zzB2mEL1mZNsA4JwRoRgvUuRxQAAIKFYDVNsTr7ReF/ZAjrnJpxLxYnjAiWUuQeKFhrQ7cIUxCsn5iCZX7CMgXrFVWwlJ6G04WiFsKSEay32ckBAECwEKxm0sk3hf8SIawrWgSrWBy3M+5qkXtFsLYZgrU1kWB1JxesX5mCteWkv8p939DAhCNYdghLRrDe44QCAECwEKwmK1bHfsV6X4Sw5rQIVrGw67UB9xGh1zNqCtZGXbCebqRgOSEsn2B5zwjHCwXtjlCWNDzkhAIAaFMWMyJYi53443XqRaF/LUeLYBUKl3yPCIOmCBssWF7K/ed7tSIs5xnhnqGDryqCZXzCkjs59zmhAAAQLASr+XRo3P3vQrBm1Q9YFcEqDzkZ96AarADBeiJFwXrKJ1jeVo54Rni5UNDuCOVOzmMOKAAABAvBWpaPWJ2+lmOFsNQPWBXBmqz4lT317Dwi9GqwvClCVbBWJBeslT7BeroiWAFNozLlvq+cVwWrZ1iWNNzjgAIAaFduZoVO/QE7Mon1bxHCmj+n3RAW8q/bGfcL6iNCV7DWCcF6sm7B+lENwVJ6Gpw1QiOENZkvaHeEMoL16F0AAGhT/pkVOvcnfL8D8YWwtBvCQn5GiWA5jwi1lgZHsNakKlhPeIIlmkaNngYz5e6M5Rh3hL/L5fU7wnkAAMgKf8sKHfwbKr2bHYgVwtI/YOVH9+gRLOcRodfSENQzagvWjxMKlvUJSxMs+YzQTbmbd4QX83ntjvAG5xEAAIKFYGFYLYEZwhrRP2Dlr+7b7UWw3Iy79oiwgYLlVrkHp9ydENbuUVOwPMOa5TwCAECwECwMqzUw/wLnFMGqaEvuuNOCtcnLuPsfEYYLVldiwQoowtJT7nYIa+ep3VM5XbBGOI8AABAsBAvDaqE7wusl9YYwn5t2bwj1CFbVGqzogtXtF6xqRVgyhGXdER7O5ZxPWJZgcRwBACBYCFZr0el3hFe0G8JcbuyUfUOoR7DsjLtsaahDsIKLsPzPCL0QlntHOOMJlmlY1zmOAAAQLASrtfhHh98RzukfsHJ/2Ge8IbRvCJ0IljeUEypYK1MTLDXl7na5q2s5O8dy+icsIlgAAAgWgtVqLHR4COuG8gGrIli5wZ3ihlBEsNyMu9XSEFjkXr9g6SEsqwnLuSPcfSinf8IiggUAgGAhWHzCarGiBu0DVq6vLG4IZQTL94gwgWD5t3K8Z4Qy5e6EsNw7wt5jfX2aYRHBAgBAsBCsFjSsCgsLCx0cwlI/YPVNBtwQ2i1YasY94BFhfMEKe0YoQljijnBaCBYRLACADHErM4J1ix9T6pZkoTqtqE7RMP+Pdb/q6ztrfsCybghlSUPVjHsqguWm3NUmLPWOcH/veJ9uWFf4VwsAgGAhWBCicRWW5b/luhCsS9YHrOAbwkYIVo0QlntHaH/C2n1UCNYc/54AABAsBAtajFndr/pG7Yi70TJq3xCGZdzDitwjCVZgyj3kjtDuGjU/YQ3u6tMM66/8hAAACBaCBa3GiO1XtmDtmnJ3COUbwsAIlpVxD1vKiSxYWsrdbsJS3xF6Mffyrl2WYNmGRUkDAACChWD9n717662ruAI4/tKqUp9oKZcXl7bBASEMCgnYCbkS1yYJCZWb2GkcEgnSS4QCb6nUQj97z55ZM2utmdmXc2yi4P3/fwSI5J/WWnsOvXy5Adbm5ub2qfV04n7mvdENof+IsP1ThKPAahxhVW+NpjP3Z5tJWBFY3LgTEQEsgEUvXf/5LPlKgPXv7o2G/AiWfENYbwiXOMEywBq+ctcjrHJH2J25xxHW081ihHX9B9P/uv5b9WPVX4mI6GXsnycn/meekGpE/FhLIwDEiuSHz9yCcNE3OsByJ+7ul56PE1j1EVbcERZn7jLC+mbTjrDsjz5fv/6HRQ8ePPjbog8XvdH1WtebXR/E3k6ddv2JiIiI5t7poqwGUUQQxZsBF4EZnTc6dyz48WChkOvXzW8Qmgv3hV2eb+zGAdarZ273bQjdCdb4jfsUYA3vCHWEtbvxXQTWkLD6iJWMpcgqmYW3iIiIZgip072yUlyJrvp51fRVGmB9Gz4hjAOs97Kv8oaweYI1BqzRdxqqHaE7c//0nTzCWttd/37TCeuTQWEZYomxMrKssgakRURERHPp7bIPClxFXSmvenz1WeWrz2/EN7DqAdaEDeFSwJIr9+IIy+wIGyOsbkl48NVmeYZlhNVDLG8sRVbtLMxFREQ/gz/89NNmpVDgKurK86rtK7Mg3HrSXbiHN7DMAKtnQzh6gjUKLHeEJQ81+DP3aoR1b/3Jlo6wRoRVE0uR5ZQ1Ri0iIiKaE6o8rZq6Crwqx1dtX21u3QwX7voJoT1xj98QFhvClYDVe4Tld4R+hJWec7+7tVmdYXXCsmvCglhirBpZLWeNxb9AInpJ/xYQ0TH1pivxQXTV4pX11Sfqq7Qg3HomTzTYTwj1xL3aEI6cYE0HVmtHKGfu7i2scOf+dERYeYgVieWNlZHlmbUitoiIiOjkkaqiVcaV1VW1HUzjq8pXW1/fy0802AFW88R9/ASrAazmEVZrR9gcYcUl4TdbY8JSYtkxVjaWQVbTWURERDTjXvO94XFldeV41fJVBNbznbggtL9COHDifnRgtXeEboRV37k/ep6F9fshYVliJWMpsgpmwS0iIiI01ZaV4kp0pcOrKb7a+lYXhL0DrOaG0JxgrQYsuyM0Z+71CKsT1rduhBWE1UMsZ6yMLKusPmgRERHRLHuj7MMCV2Z4VfCqx1efX1mrF4R+gDW+IZwELHuENTLCaiwJD77ywnJDrDaxkrEUWZWzABcREdGcIdUvK4Ortq78+Krw1da/1tbcE1jFJ4SNAda0DaEF1vQRln0Ly39JuPb1UxWWWxP6IVaPsbyyBqRFREREc6tEgtIq4aqHV258ZXx17cl9OcByC8LmAGtJYE3fEcrP5ZgRVmtJuHbv6vdP+4VVEysZyyqrdhboIiIifEENWamtBFdWV8qr2lfXnvw9H7ifKS7cmwOsZTaEI8Aqd4ThpQY7wmoJa309GOuj6hCrIlYyliLLKWucWkRERDRHVBW0yrhyuip4ldeDHwVdnVtPP5HzfrEgtG9gpVfcBwZYE4E1tiOMIyxz514Ka3d9/dSphbGe+b5r9Xyga0RERES+58M1uVGQ5NmTf5w7darzlR64Vxfu/QOsgQ3hZGCl3yNsXGHZO/eGsC492tjYOXfu8fnzFy5cuHhwcOPG/v6VK1euXn14//7ly5e3t//cdXh30d7e3q1FN6Uvcl9qfyEiIqK59WWrxIQEh1uhhSb27h4eHi50sb1oYY37Dx9evbqwx/7+jYODixcvXDh//s7jczs7G48uXcq+6lkQ+gusnhP3qcDq/Y6wZ4Tll4R9wrrTIpY1VkJWUFZmloVWS1xEREQ0i7wFFAoiK7FVhyuvqwavhn2VF4Txwr0aYC2zIZy6IyxGWHLnbn8xpwNWvsParYSViLXfEUuNZZEVlLUn/7Fuln1BRERE8+lmX7e0vWgri6ugq5pX475yXxCGBWF6xN0PsI4HWMWHhPIWli4JwxmWPXTPwqqHWJ5YaqyIrIWyIrOis7K02twiIiKiOXSrkUgh0aqzVcSV0dXVTleRV83xVeErPcAqLtyXGWD1Act+Rzg0wnJLwvLQvSUsR6y0KYzGSsgSZRlnZWntNcRFREREs8l5IBjh8DDTSmzV4SpsBqOuuuGV41U1vjK+0gOs/AWhXRCuMsBaeoQlTzWYLwnDGVZjS9gJKw+xdFGYxlidsRRZUVmZWVFaai3THhEREc0k/ft/aEpW2La2SriKuuqGV3k5qOMrux70vjIHWLIgHB5gHQVY/SOsvCQshaXvYe3mIVbaExpidcbyyArKSs6y0PLi+gm7S0S0bIdE9ALyINg2XY62srhSXTlepfGVnl+Jr85mX/UsCKcOsPqBNTLCKpaE5gyrJSwZYsU9oZ1iJWPJICsga6GsyCxxVpZWL7eIiIjoxLfdLmlBaBVslXAVdJV2g45XxflVOb8yviou3P0Aa9qGcBBYjRFWsSSshCWvNaQ1YRhixT1hJFYcYxljBWRFZXXMEmeptBrgIiIiolnlUXA/wUpoFWwVcaW6Crx67Hnlzq/UV+7AfWhBWA2wVgDWyAgrLAkbwrKn7p5Y6dw9jrHCHCsgKygrMkucFaWVqaVdJiIionmlDHhoSmK4km2luEq6Ul6F7aAZX4Xzq9JX6QDLLgiXGGANAWtwR7i0sPQSS4klxpJdYUCWUVZylkrLeMt2n4iIfvoeEr08ORkkL+wLrYKtEq5UV55XOr4K51ejvhoYYE0A1vQRlvmS0J5hyWMNSVh6iCVDLEOssCmUVaEMspyysrNUWlfa5CIiIqL5VKAgaeFGolWwVcKV1ZUsB4VXaXyVf3+w8FU+wKov3JsDrGWBVV1hFUvCfIZVCKt7DysfYimx1iOxwheFYiyPrIWyIrMytKy19vvVRURERCe7mgPRCQKHSKtgK8FV1lUcXmVe2fGVfD4o9+2Dvpo6wBoE1ugIyy8J9bEGea1BfvlZXsSSPWEklo6xkrEEWVlZHbOSs7y1ivaJiIhoDrm//we2ixeNrKKtBFdJV2F4VfJKxlfyPMOwr1oLwv4B1iRg+RFW35KwFta7UVhuiJUXhTLGisYKyAqTrKgsZVailsPWC+gGEdGyHRDRi+qiK5MhKiLZSnGVdeV5JeOreH4V329v+6peEC45wBrYEdoRllsSVsJ63QgrrgnlEqsgljWWIsswq4BWSS4iIiKaY6ULEhs6WUVaLWwVcGV1FR9mcLzK46t4fhXevxJf/abhq9UHWMuOsAaElQ+x8hDLEUuNZZEVlZWdlaE1pC0iIiKaU+fL7iislFYLWwmukq7C8Ep5VYyvxFevl76qDrDaA6zVgVXfudtD90JY6dTdDLGUWOHc3RkrICsqyzArQitSq9QWERERzbI72mNTgMOOsZXiKukqDK8sr8z4KpxfZV+l/WDjAGu1AdbUEVZ5htUWVlgThiFW2hNmYjljJWSpsoKzjLQMt1J3iIiIXqoe0wtOgLCT24i0irbyuIrDq4pXYXyl51d9vooHWPWC8DiAVS4Je4X12ygsO8QKe8I8xSqMZZCVmJWdlahVaYuIiIjm2E7dRoKVyOqSoKLDVaErub3qeBW2gzK+kvMr+X2clq/MAdYvV/CVB1bPnXtxhtUQVj7EkiFW2BNGYukYS4xlkGWZFaHlrbXRcBcRERHNKYMBoUJylaVViaukq4JXeXxlztsHfLXyAGvyCGuCsORrwh5iJWMlZBllJWaptZRbw+oiIiL6GfaIlulSnbpBaBVttcCV11WDV2Z8dTy+mgKsowurRaxsLI+sTlkds7KzCmrV6CIiIqIZVtMgskFlpbYKuCp05Xl1ZF9NGWANAmuSsIaIZcZYyVgZWaIsdZaT1pi5iIiIaEYpDKIZMqwCrcRWCVeqq1Fe+fcZ1FfuAGuFAdbEEZY7dHfCqoZYDWLpHMsiyzMrQkux1S8uIiIiOuHtNrpXtGZkJbbKuLK6qnhVjK/6fDVtQbgksHqWhJWw8pqwGGIZYjljKbKSsqKzDLQKb5XtEhHNtntE8y4r4eOPC1kFW2VcJV3J8Crzyo2vlvTV0YC1jLB+nYWVh1g1sZyxFFlJWcZZIq02t4iIiGi2fVxn/PCq2MriKukqDK9KXuXxlZ5fHbuvRkZYY8Kya0IZYgmxZFEYxljRWIqsTlmeWQ5aTXMRERHRnKuQ8GqWVUerzlYWV1FXYXhleVWNr8Z8NXjhPh1YzRHWsLDsEKsiVmEsQVZWVmCWg9agt4iIiGjOZShEQARZBVp1thJcVboKt1fKKx1fpfVg21dHG2BNXhIWwvKHWGGIVRArbQqjsQRZMslSZgm0RFptbREREdG8e990RrqdZdXRKtkq4yrrKp22K6/M+CqeX0311a+m+2oEWG1htdaEaU+YiJXGWGqsDllJWcqsBK1ErRJcRERENMvOVN3ORUIEWQVaJVt1uOdOSnwAAAbESURBVCp0lb4cNLyqx1er+GoYWMchrIpYvxNiqbEssrKyxFlJWlZb2hkiIqK5dJvavWcSPERYRVoFWxlcFbrKvDLbwXI9uLyvlgPWUsIqiPWKI5YayyArKEuZlaCVqVV4i4iIiObbO2Vnc5ERUVaBVp2tEq5UV5ZXr7R4Nd1Xyw2wlhVWdYhVDLGUWGosGWQFZAVlRWZFZyVpGWydbamLiIiIfuadPUqfaiKICKtIq2CrhKuGrkpe1evBtq9WHWANAGtYWO0hVjXG6oyVkKXKiswSZ2VpOW01OktEREv8ESI6If3R9VYuakJpFWzV4Uo2g6Irx6vB8ZXx1S+O6qvxEdaAsGSI1UMsM8dSZAVleWcZalXgIiIionn2VqN3tUiJKCtjqzS6+n+79pbbNhKEUTi2ECRjGIljGAGMmQVk3rL/1Q0i9qWqu6pZpEhJY56zBkr88BeFrixeiflqla9WAGskrPIhVj9iJWKlS2FjrIqsSVmJWRlaCls2uoiIiOgj92u236IMiUlWE63Otsq4anSVjoOCV3K+qudBx1crBqywsPwRSxBLzFh/jKWQNSlrYlZyVpWWwpbuFxER0eBdS0foX1VmRJLVRKuzrQqusq58Xs3NVwNfXQisobAGxOqMdUbWpCzFLCGtRlv0f4zfP32Mf24iurP+aSuKeH8XtDrbquJK6mrEq718tVRYn01htcRSxhLISsrKzpLU6rxFRERER+/vvmKI96yKt2qriqtWV4pXs+fBka+CwFojLJtYtrEmZE3KSsyq0KrSMsFFRERER+3d7Gctq+JV2Kriquhqhld7+aoHlisscSYsX2L1xNLGmpCllFWdJaTliYuIiIgO10+3aogMq0yryVYVV1pXHq/keXBTXy0XVjNinYmVv8USxhLISspKzCrOUtRyyUVERETH6s1PICLDKtNqstWEq6qrMl5VXjnzVchXC4A1FJZ/JrSIZRorISsr6+VH7bXvjYiIiI7d6yDBiAyrTKtkK4GrOl4NeNWcBzfzlQEsX1izxBLGmpCVlJWZVZylqTUgFxERER2sH34vsqwLZSsxXXW66q6D/nx1qa8WCsshlmOshKysrMIsLS0fXERERHTQXpy+y7IwlK16Xc3wahdfRYWlRyyHWNJYGVlZWYVZWlqet4iIiOjofTcTosiyKraSuOp1pXjVzlcb+2pOWM6IJYllGCshq1OWhpatLSIiIiLLU52rBK2SrRKukq5meWXNV5avtgGWKax5YiVjNcgqytLQsrBFRERENEOqBlaFVjaukq7GvNrBVwuE1dwJE7FMY2VkFWUpZ/XU6uJRIiKi1e9e+qB9a3pqaVVwZerK5dUuvrKFFRqxNLGysTpkSWZ10oqbi4iIiI5mKCOlikqrYquMq0ZXLa/i89VKXy0RViGWPhQWY3XIksxqoDXmFhEREdG3J7tn1cnDVasrg1f7+SogrAGxOmMVZAllnZ7bnoiIiIjiPfedZI8troquorza2leOsMLE6o1VkaWYZUkLdhERER1NRhd1ahLoqLjqdbWOVxf5aqGwKrF6YwlkSWW1zgpxi4iIiA7fyetR92DgytCVx6tdfOUJawmxqrGUsh4e205EREREq3rsk+oQtqq4MnUVmq8u9lVMWJJYprEkspSyLGghLiIiIgpDaggrbSuBK6Ern1f7+coVVohY0lgKWR2zxtQiIiIiCpuql5XGlaerGK828VV0xFLEksZSyGqUZToLdBEREVFAUA8hWDW2krga6crl1Va+io5YA2NpZPXMClmLiIiIKIoqg1YaV1pXLa++7M6rgbDGxNLGapHlOQtzERERUdxQEVi1tprT1RXmq7GwOmI1xmqQZTErRC0iIiKipaoybdXgagmvNvbVMmK1xuqQ5TELbxEREdEllhrLysDVEl1tz6uhsAxidcYykBWAFhEREdHSbHT0tvrLEMzXK/tqTKyQsVxmgS0iIiLanlQDW5m6ugWvZoRlEctG1phZsIuIiIhibprPloiJq6GuduTVLLFsYznIWgotIiIiostc5eNqrKu9fTVLLMdYI2WBLSIiItqTVGNazetqf14FiOUaK8Is2EVERESL6bSaVgFdXYdXEWINkbXGWUREREQbyyqCqyvyKkasOWQhLSIiIrqFquK4uq6u4sb6+mVJPBBERES0F6gW2uo2vIoKaymy8BcREa14YRJtjKtb8WqRsTZkFhEREdGutLoxrxYSC2cRERHRncPqHnS1zlhIi4iIiO6PVfekq4uQhbeIiIjoppy6X1xtZSwkRkR0py8dokP0iYiIiIiIiIiI6Cj9B/jKA8l881zVAAAAAElFTkSuQmCC;" vertex="1" parent="1">
          <mxGeometry x="377.03999999999996" y="470" width="65.93" height="60" as="geometry" />
        </mxCell>
        <mxCell id="fbeROoTmtEvh5QqqCgWJ-17" value="" style="sketch=0;html=1;aspect=fixed;strokeColor=none;shadow=0;fillColor=#3B8DF1;verticalAlign=top;labelPosition=center;verticalLabelPosition=bottom;shape=mxgraph.gcp2.connected" vertex="1" parent="1">
          <mxGeometry x="400" y="284" width="50" height="36" as="geometry" />
        </mxCell>
        <mxCell id="fbeROoTmtEvh5QqqCgWJ-22" value="" style="ellipse;shape=cloud;whiteSpace=wrap;html=1;align=center;" vertex="1" parent="1">
          <mxGeometry x="490" y="260" width="430" height="340" as="geometry" />
        </mxCell>
        <mxCell id="fbeROoTmtEvh5QqqCgWJ-23" value="Уеб услуги за потребители" style="verticalLabelPosition=bottom;html=1;verticalAlign=top;align=center;strokeColor=none;fillColor=#00BEF2;shape=mxgraph.azure.cloud_service;" vertex="1" parent="1">
          <mxGeometry x="750" y="420" width="110" height="70" as="geometry" />
        </mxCell>
        <mxCell id="fbeROoTmtEvh5QqqCgWJ-24" value="Уеб услуги за поръчки" style="verticalLabelPosition=bottom;html=1;verticalAlign=top;align=center;strokeColor=none;fillColor=#00BEF2;shape=mxgraph.azure.cloud_service;" vertex="1" parent="1">
          <mxGeometry x="640" y="310" width="110" height="70" as="geometry" />
        </mxCell>
        <mxCell id="fbeROoTmtEvh5QqqCgWJ-28" style="edgeStyle=orthogonalEdgeStyle;rounded=0;orthogonalLoop=1;jettySize=auto;html=1;entryX=0.06;entryY=0.447;entryDx=0;entryDy=0;entryPerimeter=0;" edge="1" parent="1" source="fbeROoTmtEvh5QqqCgWJ-7" target="fbeROoTmtEvh5QqqCgWJ-22">
          <mxGeometry relative="1" as="geometry" />
        </mxCell>
        <mxCell id="fbeROoTmtEvh5QqqCgWJ-29" style="edgeStyle=orthogonalEdgeStyle;rounded=0;orthogonalLoop=1;jettySize=auto;html=1;entryX=0.06;entryY=0.447;entryDx=0;entryDy=0;entryPerimeter=0;" edge="1" parent="1" source="fbeROoTmtEvh5QqqCgWJ-17" target="fbeROoTmtEvh5QqqCgWJ-22">
          <mxGeometry relative="1" as="geometry" />
        </mxCell>
        <mxCell id="fbeROoTmtEvh5QqqCgWJ-30" value="Облачна инфраструктура" style="text;html=1;align=center;verticalAlign=middle;whiteSpace=wrap;rounded=0;" vertex="1" parent="1">
          <mxGeometry x="660" y="580" width="150" height="30" as="geometry" />
        </mxCell>
        <mxCell id="fbeROoTmtEvh5QqqCgWJ-31" value="Уеб услуги за доставки" style="verticalLabelPosition=bottom;html=1;verticalAlign=top;align=center;strokeColor=none;fillColor=#00BEF2;shape=mxgraph.azure.cloud_service;" vertex="1" parent="1">
          <mxGeometry x="580" y="410" width="110" height="70" as="geometry" />
        </mxCell>
      </root>
    </mxGraphModel>
  </diagram>
</mxfile>
